<?xml version="1.0" encoding="UTF-8"?>
<svg xmlns="http://www.w3.org/2000/svg" xmlns:xlink="http://www.w3.org/1999/xlink" width="75pt" height="44.999999pt" viewBox="0 0 75 44.999999" version="1.2">
<defs>
<clipPath id="clip1">
  <path d="M 28 4.925781 L 55.351562 4.925781 L 55.351562 34.175781 L 28 34.175781 Z M 28 4.925781 "/>
</clipPath>
<clipPath id="clip2">
  <path d="M 46.179688 4.5 L 58.929688 4.5 L 58.929688 16.5 L 46.179688 16.5 Z M 46.179688 4.5 "/>
</clipPath>
<clipPath id="clip3">
  <path d="M 8 17 L 18 17 L 18 26 L 8 26 Z M 8 17 "/>
</clipPath>
<clipPath id="clip4">
  <path d="M 13.21875 15.035156 L 19.847656 21.125 L 14.265625 27.199219 L 7.636719 21.113281 Z M 13.21875 15.035156 "/>
</clipPath>
<clipPath id="clip5">
  <path d="M 13.21875 15.035156 L 19.847656 21.125 L 14.265625 27.199219 L 7.636719 21.113281 Z M 13.21875 15.035156 "/>
</clipPath>
<clipPath id="clip6">
  <path d="M 56 30 L 66 30 L 66 40 L 56 40 Z M 56 30 "/>
</clipPath>
<clipPath id="clip7">
  <path d="M 60.964844 28.203125 L 67.59375 34.292969 L 62.011719 40.367188 L 55.386719 34.277344 Z M 60.964844 28.203125 "/>
</clipPath>
<clipPath id="clip8">
  <path d="M 60.964844 28.203125 L 67.59375 34.292969 L 62.011719 40.367188 L 55.386719 34.277344 Z M 60.964844 28.203125 "/>
</clipPath>
<clipPath id="clip9">
  <path d="M 19.648438 28.203125 L 32.398438 28.203125 L 32.398438 40.203125 L 19.648438 40.203125 Z M 19.648438 28.203125 "/>
</clipPath>
</defs>
<g id="surface1">
<g clip-path="url(#clip1)" clip-rule="nonzero">
<path style=" stroke:none;fill-rule:nonzero;fill:rgb(2.749634%,67.83905%,43.919373%);fill-opacity:1;" d="M 31.480469 25.390625 C 33.730469 29.988281 38.535156 32.960938 43.726562 32.960938 C 45.765625 32.960938 47.742188 32.519531 49.597656 31.640625 C 50.402344 31.257812 51.160156 30.808594 51.863281 30.289062 C 49.132812 30.277344 46.460938 29.527344 44.128906 28.117188 C 41.722656 26.65625 39.800781 24.554688 38.570312 22.035156 C 36.085938 16.953125 36.820312 10.984375 40.320312 6.660156 C 39.46875 6.878906 38.636719 7.179688 37.832031 7.558594 C 31.085938 10.75 28.238281 18.75 31.480469 25.390625 Z M 37.304688 6.476562 C 38.765625 5.789062 40.316406 5.339844 41.910156 5.144531 L 43.699219 4.929688 L 42.410156 6.167969 C 38.242188 10.175781 37.140625 16.34375 39.667969 21.515625 C 41.914062 26.117188 46.71875 29.089844 51.910156 29.089844 C 52.460938 29.089844 53.015625 29.054688 53.558594 28.988281 L 55.347656 28.773438 L 54.058594 30.011719 C 52.910156 31.117188 51.585938 32.027344 50.125 32.71875 C 48.105469 33.675781 45.953125 34.160156 43.726562 34.160156 C 40.980469 34.160156 38.289062 33.410156 35.945312 31.988281 C 33.539062 30.53125 31.613281 28.425781 30.382812 25.90625 C 26.851562 18.671875 29.953125 9.957031 37.304688 6.476562 "/>
</g>
<g clip-path="url(#clip2)" clip-rule="nonzero">
<path style=" stroke:none;fill-rule:nonzero;fill:rgb(2.749634%,67.83905%,43.919373%);fill-opacity:1;" d="M 56.273438 16.480469 C 56.222656 16.480469 56.167969 16.46875 56.121094 16.445312 L 52.550781 14.585938 L 48.980469 16.445312 C 48.871094 16.5 48.738281 16.492188 48.636719 16.417969 C 48.539062 16.347656 48.488281 16.222656 48.507812 16.105469 L 49.191406 12.167969 L 46.300781 9.382812 C 46.214844 9.296875 46.179688 9.167969 46.21875 9.050781 C 46.257812 8.9375 46.359375 8.851562 46.484375 8.832031 L 50.472656 8.257812 L 52.257812 4.679688 C 52.3125 4.570312 52.425781 4.5 52.550781 4.5 C 52.675781 4.5 52.789062 4.570312 52.84375 4.679688 L 54.628906 8.257812 L 58.621094 8.832031 C 58.742188 8.851562 58.84375 8.9375 58.882812 9.050781 C 58.921875 9.167969 58.890625 9.296875 58.800781 9.382812 L 55.914062 12.167969 L 56.59375 16.105469 C 56.613281 16.222656 56.566406 16.347656 56.464844 16.417969 C 56.40625 16.460938 56.339844 16.480469 56.273438 16.480469 Z M 52.550781 13.898438 C 52.601562 13.898438 52.65625 13.910156 52.703125 13.9375 L 55.839844 15.570312 L 55.242188 12.113281 C 55.222656 12.007812 55.257812 11.898438 55.335938 11.824219 L 57.875 9.378906 L 54.367188 8.871094 C 54.257812 8.859375 54.167969 8.792969 54.121094 8.695312 L 52.550781 5.550781 L 50.984375 8.695312 C 50.933594 8.792969 50.84375 8.859375 50.738281 8.871094 L 47.230469 9.378906 L 49.769531 11.824219 C 49.84375 11.898438 49.878906 12.007812 49.863281 12.113281 L 49.261719 15.570312 L 52.398438 13.9375 C 52.445312 13.910156 52.5 13.898438 52.550781 13.898438 Z M 52.550781 13.898438 "/>
</g>
<g clip-path="url(#clip3)" clip-rule="nonzero">
<g clip-path="url(#clip4)" clip-rule="nonzero">
<g clip-path="url(#clip5)" clip-rule="nonzero">
<path style=" stroke:none;fill-rule:nonzero;fill:rgb(2.749634%,67.83905%,43.919373%);fill-opacity:1;" d="M 12.894531 25.925781 C 12.867188 25.898438 12.847656 25.867188 12.835938 25.832031 L 11.839844 23.1875 L 9.121094 22.421875 C 9.035156 22.398438 8.972656 22.328125 8.953125 22.246094 C 8.933594 22.160156 8.964844 22.074219 9.03125 22.023438 L 11.21875 20.355469 L 11.011719 17.566406 C 11.003906 17.480469 11.046875 17.398438 11.121094 17.359375 C 11.195312 17.320312 11.289062 17.324219 11.359375 17.375 L 13.703125 18.992188 L 16.296875 18.03125 C 16.378906 18.003906 16.46875 18.019531 16.53125 18.082031 C 16.597656 18.140625 16.625 18.230469 16.601562 18.3125 L 15.863281 20.976562 L 17.671875 23.175781 C 17.730469 23.242188 17.742188 23.332031 17.707031 23.410156 C 17.675781 23.488281 17.597656 23.539062 17.511719 23.539062 L 14.714844 23.570312 L 13.238281 25.886719 C 13.191406 25.957031 13.109375 25.996094 13.023438 25.984375 C 12.976562 25.976562 12.929688 25.957031 12.894531 25.925781 Z M 12.160156 22.839844 C 12.1875 22.863281 12.210938 22.894531 12.222656 22.929688 L 13.09375 25.253906 L 14.390625 23.21875 C 14.429688 23.15625 14.5 23.121094 14.574219 23.121094 L 17.03125 23.09375 L 15.441406 21.160156 C 15.394531 21.101562 15.378906 21.023438 15.398438 20.953125 L 16.042969 18.613281 L 13.765625 19.457031 C 13.695312 19.480469 13.617188 19.46875 13.554688 19.425781 L 11.496094 18.007812 L 11.675781 20.460938 C 11.683594 20.53125 11.652344 20.605469 11.59375 20.648438 L 9.671875 22.113281 L 12.066406 22.785156 C 12.101562 22.796875 12.132812 22.8125 12.160156 22.839844 Z M 12.160156 22.839844 "/>
</g>
</g>
</g>
<g clip-path="url(#clip6)" clip-rule="nonzero">
<g clip-path="url(#clip7)" clip-rule="nonzero">
<g clip-path="url(#clip8)" clip-rule="nonzero">
<path style=" stroke:none;fill-rule:nonzero;fill:rgb(2.749634%,67.83905%,43.919373%);fill-opacity:1;" d="M 60.640625 39.089844 C 60.617188 39.066406 60.59375 39.035156 60.582031 39 L 59.589844 36.355469 L 56.867188 35.589844 C 56.785156 35.566406 56.71875 35.496094 56.699219 35.410156 C 56.679688 35.328125 56.710938 35.242188 56.78125 35.191406 L 58.964844 33.523438 L 58.757812 30.734375 C 58.75 30.648438 58.792969 30.566406 58.867188 30.527344 C 58.941406 30.484375 59.035156 30.492188 59.109375 30.542969 L 61.449219 32.160156 L 64.042969 31.199219 C 64.125 31.167969 64.214844 31.1875 64.28125 31.246094 C 64.34375 31.308594 64.371094 31.394531 64.347656 31.476562 L 63.609375 34.144531 L 65.421875 36.339844 C 65.476562 36.410156 65.488281 36.5 65.453125 36.578125 C 65.421875 36.65625 65.34375 36.707031 65.257812 36.707031 L 62.460938 36.738281 L 60.984375 39.054688 C 60.941406 39.125 60.855469 39.164062 60.769531 39.152344 C 60.722656 39.144531 60.675781 39.125 60.640625 39.089844 Z M 59.90625 36.007812 C 59.933594 36.03125 59.957031 36.0625 59.96875 36.097656 L 60.839844 38.421875 L 62.136719 36.386719 C 62.175781 36.324219 62.246094 36.289062 62.320312 36.285156 L 64.777344 36.261719 L 63.1875 34.328125 C 63.140625 34.269531 63.125 34.191406 63.144531 34.121094 L 63.789062 31.78125 L 61.511719 32.621094 C 61.441406 32.648438 61.363281 32.636719 61.300781 32.59375 L 59.242188 31.175781 L 59.425781 33.625 C 59.429688 33.699219 59.398438 33.769531 59.339844 33.816406 L 57.421875 35.28125 L 59.8125 35.953125 C 59.847656 35.960938 59.878906 35.980469 59.90625 36.007812 Z M 59.90625 36.007812 "/>
</g>
</g>
</g>
<g clip-path="url(#clip9)" clip-rule="nonzero">
<path style=" stroke:none;fill-rule:nonzero;fill:rgb(2.749634%,67.83905%,43.919373%);fill-opacity:1;" d="M 29.742188 40.183594 C 29.691406 40.183594 29.636719 40.171875 29.589844 40.144531 L 26.019531 38.289062 L 22.449219 40.144531 C 22.339844 40.203125 22.207031 40.191406 22.105469 40.121094 C 22.007812 40.050781 21.957031 39.925781 21.976562 39.804688 L 22.660156 35.871094 L 19.769531 33.085938 C 19.683594 33 19.648438 32.871094 19.6875 32.753906 C 19.726562 32.636719 19.828125 32.554688 19.953125 32.535156 L 23.941406 31.960938 L 25.726562 28.382812 C 25.78125 28.273438 25.894531 28.203125 26.019531 28.203125 C 26.144531 28.203125 26.257812 28.273438 26.3125 28.382812 L 28.097656 31.960938 L 32.089844 32.535156 C 32.210938 32.554688 32.3125 32.636719 32.351562 32.753906 C 32.390625 32.871094 32.359375 33 32.269531 33.085938 L 29.382812 35.871094 L 30.0625 39.804688 C 30.085938 39.925781 30.035156 40.050781 29.933594 40.121094 C 29.875 40.160156 29.808594 40.183594 29.742188 40.183594 Z M 26.019531 37.601562 C 26.074219 37.601562 26.125 37.613281 26.171875 37.636719 L 29.308594 39.269531 L 28.710938 35.8125 C 28.691406 35.710938 28.726562 35.601562 28.804688 35.527344 L 31.34375 33.078125 L 27.835938 32.574219 C 27.726562 32.558594 27.636719 32.492188 27.589844 32.398438 L 26.019531 29.253906 L 24.453125 32.398438 C 24.402344 32.492188 24.3125 32.558594 24.207031 32.574219 L 20.699219 33.078125 L 23.238281 35.527344 C 23.3125 35.601562 23.347656 35.707031 23.332031 35.8125 L 22.730469 39.269531 L 25.867188 37.636719 C 25.917969 37.613281 25.96875 37.601562 26.019531 37.601562 Z M 26.019531 37.601562 "/>
</g>
</g>
</svg>
