<?xml version="1.0" encoding="UTF-8"?>
<svg xmlns="http://www.w3.org/2000/svg" xmlns:xlink="http://www.w3.org/1999/xlink" width="75pt" height="44.999999pt" viewBox="0 0 75 44.999999" version="1.2">
<defs>
<clipPath id="clip1">
  <path d="M 29 39 L 32 39 L 32 43.351562 L 29 43.351562 Z M 29 39 "/>
</clipPath>
<clipPath id="clip2">
  <path d="M 37 24 L 52 24 L 52 43.351562 L 37 43.351562 Z M 37 24 "/>
</clipPath>
<clipPath id="clip3">
  <path d="M 17 2 L 58.648438 2 L 58.648438 28 L 17 28 Z M 17 2 "/>
</clipPath>
</defs>
<g id="surface1">
<path style=" stroke:none;fill-rule:nonzero;fill:rgb(100%,15.289307%,40.779114%);fill-opacity:1;" d="M 26.03125 38.007812 C 25.804688 37.941406 25.585938 37.960938 25.378906 38.074219 C 25.171875 38.183594 25.035156 38.355469 24.964844 38.578125 L 24.453125 40.285156 C 24.386719 40.511719 24.40625 40.730469 24.519531 40.9375 C 24.632812 41.144531 24.800781 41.28125 25.027344 41.351562 C 25.105469 41.375 25.1875 41.386719 25.273438 41.386719 C 25.460938 41.386719 25.628906 41.332031 25.78125 41.21875 C 25.933594 41.105469 26.035156 40.960938 26.089844 40.777344 L 26.601562 39.070312 C 26.667969 38.847656 26.648438 38.628906 26.535156 38.421875 C 26.425781 38.214844 26.253906 38.074219 26.03125 38.007812 Z M 26.03125 38.007812 "/>
<path style=" stroke:none;fill-rule:nonzero;fill:rgb(100%,15.289307%,40.779114%);fill-opacity:1;" d="M 27.566406 32.886719 C 27.339844 32.816406 27.125 32.839844 26.917969 32.953125 C 26.707031 33.0625 26.570312 33.230469 26.503906 33.457031 L 25.992188 35.164062 C 25.921875 35.390625 25.945312 35.609375 26.054688 35.816406 C 26.167969 36.023438 26.335938 36.160156 26.5625 36.230469 C 26.644531 36.253906 26.726562 36.265625 26.808594 36.265625 C 26.996094 36.265625 27.167969 36.207031 27.316406 36.097656 C 27.46875 35.984375 27.570312 35.835938 27.625 35.65625 L 28.136719 33.949219 C 28.207031 33.722656 28.183594 33.507812 28.074219 33.300781 C 27.960938 33.089844 27.792969 32.953125 27.566406 32.886719 Z M 27.566406 32.886719 "/>
<path style=" stroke:none;fill-rule:nonzero;fill:rgb(100%,15.289307%,40.779114%);fill-opacity:1;" d="M 29.675781 28.828125 C 29.742188 28.601562 29.71875 28.382812 29.609375 28.175781 C 29.496094 27.96875 29.328125 27.832031 29.101562 27.765625 C 28.875 27.695312 28.660156 27.71875 28.453125 27.832031 C 28.246094 27.941406 28.105469 28.109375 28.039062 28.335938 L 27.527344 30.042969 C 27.460938 30.269531 27.480469 30.488281 27.59375 30.695312 C 27.707031 30.902344 27.875 31.039062 28.101562 31.105469 C 28.179688 31.132812 28.261719 31.144531 28.34375 31.144531 C 28.535156 31.140625 28.703125 31.085938 28.855469 30.972656 C 29.003906 30.859375 29.109375 30.714844 29.160156 30.535156 Z M 29.675781 28.828125 "/>
<path style=" stroke:none;fill-rule:nonzero;fill:rgb(100%,15.289307%,40.779114%);fill-opacity:1;" d="M 36.273438 38.007812 C 36.046875 37.941406 35.832031 37.960938 35.625 38.074219 C 35.414062 38.183594 35.277344 38.355469 35.210938 38.578125 L 34.699219 40.285156 C 34.628906 40.511719 34.652344 40.730469 34.761719 40.9375 C 34.875 41.144531 35.042969 41.28125 35.269531 41.351562 C 35.351562 41.375 35.433594 41.386719 35.515625 41.386719 C 35.703125 41.386719 35.875 41.332031 36.023438 41.21875 C 36.175781 41.105469 36.277344 40.960938 36.332031 40.777344 L 36.84375 39.070312 C 36.914062 38.847656 36.890625 38.628906 36.78125 38.421875 C 36.667969 38.214844 36.5 38.074219 36.273438 38.007812 Z M 36.273438 38.007812 "/>
<path style=" stroke:none;fill-rule:nonzero;fill:rgb(100%,15.289307%,40.779114%);fill-opacity:1;" d="M 37.808594 32.886719 C 37.585938 32.816406 37.367188 32.839844 37.160156 32.953125 C 36.953125 33.0625 36.816406 33.230469 36.746094 33.457031 L 36.234375 35.164062 C 36.167969 35.390625 36.1875 35.609375 36.300781 35.816406 C 36.410156 36.023438 36.582031 36.160156 36.804688 36.230469 C 36.886719 36.253906 36.96875 36.265625 37.050781 36.265625 C 37.242188 36.265625 37.410156 36.207031 37.5625 36.097656 C 37.714844 35.984375 37.816406 35.835938 37.871094 35.65625 L 38.382812 33.949219 C 38.449219 33.722656 38.429688 33.507812 38.316406 33.300781 C 38.207031 33.089844 38.035156 32.953125 37.808594 32.886719 Z M 37.808594 32.886719 "/>
<path style=" stroke:none;fill-rule:nonzero;fill:rgb(100%,15.289307%,40.779114%);fill-opacity:1;" d="M 39.347656 27.765625 C 39.121094 27.695312 38.902344 27.71875 38.695312 27.832031 C 38.488281 27.941406 38.351562 28.109375 38.285156 28.335938 L 37.769531 30.042969 C 37.703125 30.269531 37.726562 30.488281 37.835938 30.695312 C 37.949219 30.902344 38.117188 31.039062 38.34375 31.105469 C 38.425781 31.132812 38.503906 31.144531 38.589844 31.144531 C 38.777344 31.140625 38.945312 31.085938 39.097656 30.972656 C 39.25 30.859375 39.351562 30.714844 39.40625 30.535156 L 39.917969 28.828125 C 39.984375 28.601562 39.964844 28.382812 39.851562 28.175781 C 39.742188 27.96875 39.570312 27.832031 39.347656 27.765625 Z M 39.347656 27.765625 "/>
<g clip-path="url(#clip1)" clip-rule="nonzero">
<path style=" stroke:none;fill-rule:nonzero;fill:rgb(100%,15.289307%,40.779114%);fill-opacity:1;" d="M 30.640625 39.714844 C 30.414062 39.648438 30.195312 39.667969 29.988281 39.78125 C 29.78125 39.890625 29.644531 40.0625 29.574219 40.285156 L 29.0625 41.996094 C 28.996094 42.21875 29.019531 42.4375 29.128906 42.644531 C 29.242188 42.851562 29.410156 42.992188 29.636719 43.058594 C 29.714844 43.082031 29.796875 43.09375 29.882812 43.09375 C 30.070312 43.09375 30.238281 43.039062 30.390625 42.925781 C 30.542969 42.8125 30.644531 42.667969 30.699219 42.484375 L 31.210938 40.777344 C 31.28125 40.554688 31.257812 40.335938 31.144531 40.128906 C 31.035156 39.921875 30.867188 39.78125 30.640625 39.714844 Z M 30.640625 39.714844 "/>
</g>
<path style=" stroke:none;fill-rule:nonzero;fill:rgb(100%,15.289307%,40.779114%);fill-opacity:1;" d="M 32.175781 34.59375 C 31.949219 34.523438 31.734375 34.546875 31.527344 34.660156 C 31.316406 34.769531 31.179688 34.9375 31.113281 35.164062 L 30.601562 36.871094 C 30.53125 37.097656 30.554688 37.316406 30.667969 37.523438 C 30.777344 37.730469 30.945312 37.867188 31.171875 37.9375 C 31.253906 37.960938 31.335938 37.972656 31.417969 37.972656 C 31.605469 37.972656 31.777344 37.914062 31.929688 37.804688 C 32.078125 37.691406 32.183594 37.542969 32.234375 37.363281 L 32.75 35.65625 C 32.816406 35.429688 32.792969 35.214844 32.683594 35.007812 C 32.570312 34.796875 32.402344 34.660156 32.175781 34.59375 Z M 32.175781 34.59375 "/>
<path style=" stroke:none;fill-rule:nonzero;fill:rgb(100%,15.289307%,40.779114%);fill-opacity:1;" d="M 33.714844 29.472656 C 33.488281 29.402344 33.269531 29.425781 33.0625 29.535156 C 32.855469 29.648438 32.71875 29.816406 32.648438 30.042969 L 32.136719 31.75 C 32.070312 31.976562 32.089844 32.191406 32.203125 32.402344 C 32.3125 32.609375 32.484375 32.746094 32.710938 32.8125 C 32.789062 32.835938 32.871094 32.851562 32.953125 32.851562 C 33.144531 32.851562 33.3125 32.792969 33.464844 32.679688 C 33.613281 32.570312 33.71875 32.421875 33.773438 32.242188 L 34.285156 30.535156 C 34.351562 30.308594 34.332031 30.09375 34.21875 29.886719 C 34.105469 29.675781 33.9375 29.539062 33.714844 29.472656 Z M 33.714844 29.472656 "/>
<g clip-path="url(#clip2)" clip-rule="nonzero">
<path style=" stroke:none;fill-rule:nonzero;fill:rgb(100%,15.289307%,40.779114%);fill-opacity:1;" d="M 51.097656 24.71875 C 50.929688 24.449219 50.6875 24.3125 50.371094 24.3125 L 38.417969 24.3125 C 38.183594 24.3125 37.980469 24.398438 37.816406 24.5625 C 37.648438 24.730469 37.566406 24.929688 37.566406 25.167969 C 37.566406 25.402344 37.648438 25.605469 37.816406 25.769531 C 37.980469 25.9375 38.183594 26.019531 38.417969 26.019531 L 43.453125 26.019531 L 42.695312 33.617188 C 42.683594 33.738281 42.695312 33.855469 42.734375 33.96875 C 42.769531 34.082031 42.828125 34.183594 42.910156 34.273438 C 42.992188 34.363281 43.085938 34.433594 43.195312 34.484375 C 43.304688 34.53125 43.421875 34.558594 43.539062 34.558594 L 45.164062 34.558594 L 44.402344 42.15625 C 44.382812 42.363281 44.429688 42.554688 44.550781 42.726562 C 44.671875 42.902344 44.835938 43.015625 45.039062 43.066406 C 45.105469 43.085938 45.175781 43.09375 45.246094 43.09375 C 45.621094 43.09375 45.882812 42.921875 46.03125 42.578125 L 51.152344 30.625 C 51.210938 30.492188 51.234375 30.355469 51.21875 30.214844 C 51.207031 30.070312 51.160156 29.9375 51.082031 29.820312 C 51.003906 29.699219 50.902344 29.605469 50.773438 29.539062 C 50.648438 29.46875 50.511719 29.433594 50.371094 29.433594 L 49.191406 29.433594 L 51.136719 25.546875 C 51.277344 25.265625 51.265625 24.988281 51.097656 24.71875 Z M 46.648438 36.800781 L 46.949219 33.789062 C 46.960938 33.667969 46.949219 33.550781 46.914062 33.4375 C 46.875 33.324219 46.816406 33.21875 46.734375 33.132812 C 46.652344 33.042969 46.558594 32.972656 46.449219 32.921875 C 46.335938 32.875 46.222656 32.851562 46.101562 32.851562 L 44.480469 32.851562 L 45.164062 26.019531 L 48.984375 26.019531 L 47.039062 29.90625 C 46.972656 30.039062 46.945312 30.179688 46.949219 30.328125 C 46.957031 30.476562 47 30.613281 47.078125 30.738281 C 47.15625 30.867188 47.261719 30.964844 47.390625 31.035156 C 47.519531 31.109375 47.660156 31.144531 47.808594 31.144531 L 49.074219 31.144531 Z M 46.648438 36.800781 "/>
</g>
<g clip-path="url(#clip3)" clip-rule="nonzero">
<path style=" stroke:none;fill-rule:nonzero;fill:rgb(100%,15.289307%,40.779114%);fill-opacity:1;" d="M 50.019531 8.960938 C 49.789062 8.144531 49.457031 7.375 49.019531 6.648438 C 48.578125 5.921875 48.054688 5.269531 47.4375 4.683594 C 46.820312 4.101562 46.140625 3.609375 45.390625 3.214844 C 44.640625 2.816406 43.855469 2.523438 43.027344 2.339844 C 42.199219 2.15625 41.359375 2.085938 40.515625 2.128906 C 39.667969 2.171875 38.839844 2.324219 38.035156 2.59375 C 37.230469 2.859375 36.476562 3.230469 35.773438 3.699219 C 35.066406 4.171875 34.4375 4.730469 33.882812 5.371094 C 33.535156 5.054688 33.152344 4.78125 32.734375 4.558594 C 32.320312 4.332031 31.886719 4.15625 31.429688 4.035156 C 30.972656 3.910156 30.507812 3.84375 30.035156 3.832031 C 29.5625 3.820312 29.09375 3.863281 28.632812 3.960938 C 28.171875 4.0625 27.726562 4.210938 27.300781 4.417969 C 26.875 4.621094 26.476562 4.875 26.109375 5.171875 C 25.746094 5.472656 25.417969 5.808594 25.132812 6.183594 C 24.847656 6.5625 24.609375 6.964844 24.417969 7.398438 C 23.96875 7.292969 23.515625 7.238281 23.050781 7.242188 C 22.347656 7.238281 21.664062 7.359375 21.003906 7.601562 C 20.339844 7.84375 19.738281 8.191406 19.199219 8.648438 C 18.660156 9.101562 18.21875 9.632812 17.867188 10.246094 C 17.515625 10.859375 17.28125 11.511719 17.164062 12.207031 C 17.042969 12.898438 17.046875 13.59375 17.171875 14.289062 C 17.300781 14.980469 17.542969 15.632812 17.898438 16.238281 C 18.253906 16.847656 18.703125 17.375 19.25 17.824219 C 19.792969 18.273438 20.394531 18.613281 21.0625 18.851562 C 21.28125 18.929688 21.5 18.917969 21.714844 18.816406 C 21.925781 18.714844 22.070312 18.550781 22.148438 18.328125 C 22.230469 18.105469 22.21875 17.890625 22.117188 17.675781 C 22.011719 17.464844 21.851562 17.320312 21.628906 17.238281 C 21.359375 17.144531 21.105469 17.027344 20.859375 16.882812 C 20.613281 16.738281 20.386719 16.570312 20.175781 16.378906 C 19.964844 16.1875 19.773438 15.980469 19.605469 15.75 C 19.433594 15.523438 19.289062 15.277344 19.167969 15.019531 C 19.046875 14.761719 18.953125 14.496094 18.886719 14.21875 C 18.820312 13.941406 18.78125 13.664062 18.769531 13.378906 C 18.757812 13.09375 18.773438 12.8125 18.820312 12.53125 C 18.863281 12.25 18.9375 11.976562 19.039062 11.710938 C 19.136719 11.445312 19.261719 11.191406 19.414062 10.949219 C 19.5625 10.707031 19.738281 10.484375 19.933594 10.277344 C 20.128906 10.070312 20.34375 9.882812 20.574219 9.71875 C 20.808594 9.554688 21.054688 9.417969 21.3125 9.300781 C 21.574219 9.1875 21.84375 9.101562 22.121094 9.039062 C 22.398438 8.980469 22.679688 8.945312 22.964844 8.941406 C 23.25 8.9375 23.53125 8.960938 23.8125 9.011719 C 24.089844 9.066406 24.363281 9.144531 24.628906 9.25 C 24.742188 9.296875 24.859375 9.316406 24.980469 9.308594 C 25.101562 9.304688 25.214844 9.273438 25.324219 9.222656 C 25.433594 9.167969 25.527344 9.09375 25.605469 8.996094 C 25.679688 8.902344 25.734375 8.796875 25.769531 8.679688 C 25.816406 8.5 25.875 8.324219 25.945312 8.15625 C 26.019531 7.984375 26.101562 7.816406 26.191406 7.65625 C 26.285156 7.496094 26.386719 7.339844 26.5 7.195312 C 26.613281 7.046875 26.738281 6.90625 26.867188 6.777344 C 27 6.644531 27.136719 6.523438 27.285156 6.410156 C 27.433594 6.296875 27.585938 6.195312 27.746094 6.101562 C 27.90625 6.007812 28.074219 5.925781 28.246094 5.855469 C 28.417969 5.785156 28.59375 5.726562 28.769531 5.675781 C 28.949219 5.628906 29.132812 5.59375 29.316406 5.566406 C 29.5 5.542969 29.683594 5.53125 29.871094 5.53125 C 30.054688 5.53125 30.242188 5.542969 30.425781 5.566406 C 30.609375 5.589844 30.789062 5.625 30.96875 5.675781 C 31.148438 5.722656 31.324219 5.78125 31.496094 5.851562 C 31.667969 5.921875 31.832031 6.003906 31.996094 6.097656 C 32.15625 6.191406 32.308594 6.292969 32.457031 6.40625 C 32.605469 6.519531 32.742188 6.640625 32.875 6.769531 C 32.46875 7.460938 32.15625 8.191406 31.9375 8.960938 C 31.386719 8.992188 30.84375 9.074219 30.308594 9.207031 C 29.773438 9.34375 29.257812 9.527344 28.757812 9.765625 C 28.257812 10 27.789062 10.28125 27.34375 10.609375 C 26.898438 10.933594 26.492188 11.300781 26.117188 11.707031 C 25.742188 12.113281 25.414062 12.550781 25.125 13.023438 C 24.835938 13.492188 24.597656 13.984375 24.402344 14.503906 C 24.210938 15.019531 24.070312 15.550781 23.980469 16.09375 C 23.890625 16.636719 23.851562 17.1875 23.871094 17.738281 C 23.886719 18.289062 23.953125 18.832031 24.078125 19.371094 C 24.199219 19.910156 24.371094 20.429688 24.59375 20.933594 C 24.816406 21.441406 25.085938 21.917969 25.402344 22.371094 C 25.71875 22.824219 26.074219 23.242188 26.46875 23.625 C 26.867188 24.007812 27.296875 24.347656 27.761719 24.648438 C 28.222656 24.949219 28.710938 25.199219 29.222656 25.40625 C 29.734375 25.613281 30.261719 25.765625 30.800781 25.871094 C 31.34375 25.972656 31.890625 26.023438 32.441406 26.019531 L 33.855469 26.019531 L 33.671875 26.628906 C 33.605469 26.855469 33.628906 27.070312 33.738281 27.277344 C 33.851562 27.488281 34.019531 27.625 34.246094 27.691406 C 34.324219 27.714844 34.40625 27.726562 34.492188 27.726562 C 34.679688 27.726562 34.851562 27.671875 35 27.558594 C 35.152344 27.445312 35.253906 27.300781 35.308594 27.121094 L 35.820312 25.414062 C 35.828125 25.371094 35.832031 25.328125 35.832031 25.289062 C 35.84375 25.246094 35.851562 25.207031 35.855469 25.167969 C 35.855469 25.152344 35.847656 25.136719 35.847656 25.121094 C 35.84375 25.0625 35.832031 25.003906 35.8125 24.945312 C 35.800781 24.898438 35.789062 24.847656 35.769531 24.800781 C 35.742188 24.753906 35.710938 24.707031 35.675781 24.664062 C 35.644531 24.621094 35.613281 24.578125 35.574219 24.542969 C 35.535156 24.507812 35.488281 24.480469 35.445312 24.457031 C 35.394531 24.421875 35.34375 24.394531 35.289062 24.371094 C 35.273438 24.363281 35.265625 24.351562 35.25 24.347656 C 35.207031 24.339844 35.167969 24.339844 35.125 24.335938 C 35.085938 24.328125 35.046875 24.316406 35.003906 24.3125 L 32.441406 24.3125 C 31.992188 24.3125 31.550781 24.269531 31.109375 24.179688 C 30.671875 24.09375 30.242188 23.960938 29.828125 23.789062 C 29.414062 23.617188 29.023438 23.40625 28.648438 23.15625 C 28.277344 22.90625 27.933594 22.621094 27.617188 22.304688 C 27.300781 21.988281 27.015625 21.640625 26.769531 21.269531 C 26.519531 20.894531 26.308594 20.5 26.140625 20.085938 C 25.96875 19.671875 25.839844 19.242188 25.753906 18.804688 C 25.664062 18.363281 25.621094 17.917969 25.625 17.46875 C 25.625 17.023438 25.667969 16.578125 25.757812 16.136719 C 25.847656 15.699219 25.976562 15.269531 26.148438 14.855469 C 26.320312 14.441406 26.53125 14.050781 26.78125 13.675781 C 27.03125 13.304688 27.316406 12.960938 27.636719 12.644531 C 27.953125 12.328125 28.296875 12.046875 28.671875 11.796875 C 29.046875 11.546875 29.441406 11.339844 29.855469 11.167969 C 30.269531 10.996094 30.695312 10.871094 31.136719 10.78125 C 31.578125 10.695312 32.019531 10.652344 32.46875 10.65625 C 32.484375 10.65625 32.574219 10.660156 32.589844 10.660156 C 32.792969 10.660156 32.976562 10.597656 33.136719 10.46875 C 33.292969 10.339844 33.398438 10.179688 33.441406 9.980469 C 33.53125 9.546875 33.652344 9.128906 33.8125 8.71875 C 33.972656 8.308594 34.167969 7.914062 34.394531 7.535156 C 34.621094 7.160156 34.878906 6.804688 35.167969 6.472656 C 35.453125 6.140625 35.769531 5.835938 36.109375 5.554688 C 36.449219 5.277344 36.8125 5.03125 37.195312 4.8125 C 37.578125 4.597656 37.976562 4.414062 38.390625 4.265625 C 38.804688 4.121094 39.230469 4.007812 39.664062 3.933594 C 40.097656 3.859375 40.535156 3.820312 40.972656 3.820312 C 41.414062 3.820312 41.851562 3.859375 42.285156 3.933594 C 42.71875 4.007812 43.140625 4.121094 43.554688 4.265625 C 43.96875 4.414062 44.367188 4.597656 44.75 4.8125 C 45.132812 5.03125 45.496094 5.277344 45.835938 5.554688 C 46.175781 5.835938 46.492188 6.140625 46.78125 6.472656 C 47.066406 6.804688 47.324219 7.160156 47.554688 7.535156 C 47.78125 7.914062 47.972656 8.308594 48.132812 8.71875 C 48.292969 9.128906 48.417969 9.546875 48.503906 9.980469 C 48.546875 10.179688 48.648438 10.34375 48.808594 10.472656 C 48.96875 10.597656 49.152344 10.664062 49.355469 10.660156 L 49.515625 10.65625 C 50.28125 10.65625 51.027344 10.78125 51.75 11.03125 C 52.472656 11.28125 53.136719 11.640625 53.738281 12.113281 C 54.339844 12.589844 54.847656 13.148438 55.261719 13.792969 C 55.679688 14.433594 55.976562 15.128906 56.15625 15.875 C 56.335938 16.617188 56.390625 17.371094 56.316406 18.132812 C 56.246094 18.894531 56.050781 19.625 55.730469 20.320312 C 55.414062 21.019531 54.988281 21.644531 54.460938 22.199219 C 53.933594 22.753906 53.328125 23.203125 52.644531 23.554688 C 52.4375 23.664062 52.296875 23.828125 52.226562 24.054688 C 52.152344 24.277344 52.171875 24.496094 52.28125 24.707031 C 52.386719 24.914062 52.554688 25.054688 52.777344 25.128906 C 53.003906 25.199219 53.21875 25.179688 53.429688 25.074219 C 54.261719 24.644531 55.003906 24.09375 55.652344 23.421875 C 56.304688 22.75 56.832031 21.988281 57.230469 21.144531 C 57.632812 20.296875 57.886719 19.410156 57.996094 18.480469 C 58.105469 17.550781 58.0625 16.628906 57.871094 15.714844 C 57.675781 14.796875 57.339844 13.9375 56.863281 13.132812 C 56.386719 12.328125 55.792969 11.621094 55.082031 11.011719 C 54.375 10.402344 53.585938 9.921875 52.71875 9.570312 C 51.851562 9.21875 50.949219 9.015625 50.015625 8.960938 Z M 50.019531 8.960938 "/>
</g>
</g>
</svg>
