<?xml version="1.0" encoding="UTF-8"?>
<svg xmlns="http://www.w3.org/2000/svg" xmlns:xlink="http://www.w3.org/1999/xlink" width="75pt" height="44.999999pt" viewBox="0 0 75 44.999999" version="1.2">
<defs>
<clipPath id="clip1">
  <path d="M 16 0 L 59.25 0 L 59.25 43.5 L 16 43.5 Z M 16 0 "/>
</clipPath>
</defs>
<g id="surface1">
<g clip-path="url(#clip1)" clip-rule="nonzero">
<path style=" stroke:none;fill-rule:nonzero;fill:rgb(2.749634%,67.83905%,43.919373%);fill-opacity:1;" d="M 50.738281 7.710938 C 50.496094 6.855469 50.148438 6.046875 49.6875 5.285156 C 49.230469 4.527344 48.675781 3.839844 48.03125 3.226562 C 47.386719 2.617188 46.667969 2.101562 45.882812 1.683594 C 45.097656 1.265625 44.273438 0.960938 43.40625 0.769531 C 42.539062 0.574219 41.660156 0.5 40.769531 0.546875 C 39.882812 0.59375 39.015625 0.753906 38.171875 1.035156 C 37.328125 1.3125 36.539062 1.703125 35.800781 2.195312 C 35.058594 2.691406 34.402344 3.273438 33.820312 3.949219 C 33.453125 3.617188 33.050781 3.332031 32.617188 3.09375 C 32.179688 2.855469 31.722656 2.671875 31.246094 2.546875 C 30.765625 2.417969 30.28125 2.347656 29.785156 2.332031 C 29.289062 2.320312 28.796875 2.367188 28.3125 2.46875 C 27.828125 2.574219 27.363281 2.734375 26.917969 2.949219 C 26.46875 3.164062 26.054688 3.425781 25.667969 3.738281 C 25.285156 4.050781 24.945312 4.40625 24.644531 4.800781 C 24.34375 5.195312 24.09375 5.621094 23.894531 6.074219 C 23.425781 5.960938 22.945312 5.90625 22.464844 5.90625 C 21.722656 5.90625 21.007812 6.035156 20.3125 6.289062 C 19.617188 6.542969 18.988281 6.90625 18.425781 7.382812 C 17.859375 7.859375 17.394531 8.417969 17.027344 9.058594 C 16.660156 9.699219 16.414062 10.386719 16.289062 11.113281 C 16.164062 11.84375 16.167969 12.570312 16.296875 13.296875 C 16.429688 14.023438 16.683594 14.707031 17.058594 15.34375 C 17.433594 15.980469 17.90625 16.535156 18.472656 17.003906 C 19.042969 17.476562 19.679688 17.835938 20.375 18.082031 C 20.609375 18.164062 20.835938 18.152344 21.058594 18.042969 C 21.28125 17.9375 21.433594 17.765625 21.515625 17.535156 C 21.597656 17.300781 21.585938 17.074219 21.480469 16.851562 C 21.375 16.628906 21.203125 16.472656 20.972656 16.390625 C 20.6875 16.292969 20.421875 16.167969 20.164062 16.015625 C 19.90625 15.863281 19.667969 15.6875 19.445312 15.488281 C 19.222656 15.289062 19.023438 15.070312 18.847656 14.828125 C 18.667969 14.589844 18.515625 14.335938 18.390625 14.066406 C 18.265625 13.796875 18.164062 13.515625 18.09375 13.226562 C 18.023438 12.933594 17.984375 12.640625 17.972656 12.34375 C 17.960938 12.046875 17.976562 11.75 18.023438 11.453125 C 18.070312 11.160156 18.148438 10.875 18.253906 10.59375 C 18.359375 10.316406 18.488281 10.046875 18.648438 9.796875 C 18.804688 9.542969 18.988281 9.308594 19.191406 9.089844 C 19.398438 8.875 19.621094 8.679688 19.863281 8.507812 C 20.109375 8.335938 20.367188 8.191406 20.640625 8.070312 C 20.914062 7.949219 21.195312 7.859375 21.488281 7.792969 C 21.777344 7.730469 22.074219 7.695312 22.371094 7.691406 C 22.671875 7.6875 22.964844 7.710938 23.257812 7.765625 C 23.550781 7.820312 23.835938 7.902344 24.113281 8.015625 C 24.234375 8.0625 24.355469 8.082031 24.484375 8.078125 C 24.609375 8.070312 24.730469 8.039062 24.847656 7.984375 C 24.960938 7.925781 25.058594 7.847656 25.140625 7.75 C 25.21875 7.652344 25.277344 7.539062 25.308594 7.417969 C 25.359375 7.230469 25.421875 7.046875 25.496094 6.867188 C 25.570312 6.6875 25.65625 6.511719 25.753906 6.34375 C 25.851562 6.175781 25.960938 6.011719 26.078125 5.859375 C 26.199219 5.703125 26.324219 5.558594 26.464844 5.421875 C 26.601562 5.285156 26.746094 5.15625 26.902344 5.039062 C 27.054688 4.917969 27.21875 4.8125 27.386719 4.714844 C 27.554688 4.617188 27.726562 4.53125 27.90625 4.457031 C 28.085938 4.382812 28.269531 4.320312 28.460938 4.269531 C 28.648438 4.21875 28.835938 4.179688 29.03125 4.152344 C 29.222656 4.128906 29.417969 4.117188 29.613281 4.117188 C 29.804688 4.113281 30 4.128906 30.191406 4.152344 C 30.386719 4.179688 30.578125 4.214844 30.765625 4.265625 C 30.953125 4.316406 31.136719 4.378906 31.316406 4.453125 C 31.496094 4.527344 31.671875 4.613281 31.839844 4.710938 C 32.007812 4.804688 32.167969 4.914062 32.324219 5.03125 C 32.476562 5.148438 32.625 5.277344 32.761719 5.414062 C 32.335938 6.136719 32.007812 6.902344 31.777344 7.710938 C 31.199219 7.742188 30.632812 7.828125 30.070312 7.972656 C 29.511719 8.113281 28.96875 8.308594 28.445312 8.554688 C 27.921875 8.800781 27.429688 9.097656 26.960938 9.4375 C 26.496094 9.78125 26.066406 10.164062 25.675781 10.589844 C 25.285156 11.015625 24.9375 11.476562 24.636719 11.96875 C 24.332031 12.460938 24.082031 12.980469 23.878906 13.523438 C 23.675781 14.0625 23.527344 14.621094 23.433594 15.191406 C 23.339844 15.761719 23.300781 16.335938 23.320312 16.914062 C 23.335938 17.492188 23.410156 18.0625 23.535156 18.625 C 23.664062 19.191406 23.84375 19.738281 24.078125 20.265625 C 24.3125 20.796875 24.59375 21.296875 24.925781 21.769531 C 25.257812 22.246094 25.632812 22.683594 26.046875 23.085938 C 26.460938 23.488281 26.914062 23.84375 27.398438 24.160156 C 27.882812 24.472656 28.394531 24.738281 28.933594 24.953125 C 29.46875 25.171875 30.019531 25.332031 30.589844 25.441406 C 31.15625 25.546875 31.730469 25.601562 32.308594 25.597656 L 33.339844 25.597656 L 32.320312 31.714844 C 32.300781 31.847656 32.304688 31.972656 32.339844 32.101562 C 32.375 32.226562 32.4375 32.34375 32.519531 32.441406 C 32.605469 32.542969 32.707031 32.621094 32.828125 32.675781 C 32.945312 32.730469 33.070312 32.757812 33.203125 32.757812 L 35.890625 32.757812 L 35.890625 42.605469 C 35.890625 42.824219 35.960938 43.019531 36.105469 43.1875 C 36.25 43.355469 36.429688 43.457031 36.648438 43.488281 C 36.695312 43.496094 36.738281 43.5 36.785156 43.5 C 36.980469 43.5 37.15625 43.441406 37.3125 43.328125 C 37.472656 43.210938 37.578125 43.058594 37.636719 42.875 L 42.113281 28.550781 C 42.15625 28.417969 42.164062 28.277344 42.140625 28.136719 C 42.117188 27.996094 42.066406 27.871094 41.980469 27.753906 C 41.898438 27.640625 41.789062 27.550781 41.664062 27.484375 C 41.535156 27.421875 41.402344 27.390625 41.257812 27.390625 L 40.023438 27.390625 L 42.960938 21.523438 C 43.03125 21.382812 43.058594 21.238281 43.054688 21.082031 C 43.046875 20.925781 43 20.78125 42.917969 20.652344 C 42.835938 20.519531 42.726562 20.414062 42.59375 20.339844 C 42.457031 20.265625 42.308594 20.226562 42.15625 20.226562 L 34.992188 20.226562 C 34.773438 20.226562 34.582031 20.300781 34.414062 20.441406 C 34.25 20.582031 34.148438 20.761719 34.109375 20.976562 L 33.640625 23.808594 L 32.308594 23.808594 C 31.839844 23.808594 31.371094 23.761719 30.910156 23.667969 C 30.449219 23.578125 30.003906 23.441406 29.570312 23.257812 C 29.132812 23.078125 28.722656 22.855469 28.332031 22.59375 C 27.941406 22.332031 27.578125 22.035156 27.246094 21.703125 C 26.914062 21.371094 26.617188 21.007812 26.359375 20.617188 C 26.097656 20.222656 25.878906 19.8125 25.699219 19.375 C 25.519531 18.941406 25.382812 18.492188 25.292969 18.03125 C 25.203125 17.570312 25.15625 17.105469 25.160156 16.632812 C 25.160156 16.164062 25.207031 15.699219 25.300781 15.238281 C 25.390625 14.777344 25.527344 14.328125 25.710938 13.894531 C 25.890625 13.460938 26.113281 13.046875 26.375 12.65625 C 26.636719 12.265625 26.933594 11.90625 27.269531 11.574219 C 27.601562 11.242188 27.964844 10.945312 28.355469 10.683594 C 28.746094 10.425781 29.160156 10.207031 29.59375 10.027344 C 30.03125 9.847656 30.476562 9.710938 30.941406 9.621094 C 31.402344 9.53125 31.867188 9.488281 32.335938 9.488281 C 32.351562 9.488281 32.449219 9.496094 32.460938 9.496094 C 32.679688 9.496094 32.871094 9.429688 33.039062 9.296875 C 33.207031 9.160156 33.3125 8.988281 33.359375 8.777344 C 33.449219 8.328125 33.578125 7.886719 33.746094 7.457031 C 33.914062 7.027344 34.117188 6.613281 34.355469 6.21875 C 34.59375 5.824219 34.863281 5.453125 35.164062 5.101562 C 35.464844 4.753906 35.796875 4.433594 36.152344 4.140625 C 36.511719 3.847656 36.890625 3.589844 37.292969 3.363281 C 37.691406 3.136719 38.109375 2.945312 38.546875 2.789062 C 38.980469 2.636719 39.425781 2.519531 39.878906 2.441406 C 40.332031 2.359375 40.792969 2.320312 41.253906 2.320312 C 41.714844 2.320312 42.171875 2.359375 42.625 2.441406 C 43.082031 2.519531 43.527344 2.636719 43.960938 2.789062 C 44.394531 2.945312 44.8125 3.136719 45.214844 3.363281 C 45.617188 3.589844 45.996094 3.847656 46.351562 4.140625 C 46.710938 4.433594 47.039062 4.753906 47.339844 5.101562 C 47.644531 5.453125 47.914062 5.824219 48.152344 6.21875 C 48.390625 6.613281 48.59375 7.027344 48.761719 7.457031 C 48.925781 7.886719 49.058594 8.328125 49.148438 8.777344 C 49.195312 8.988281 49.300781 9.160156 49.46875 9.296875 C 49.636719 9.429688 49.828125 9.496094 50.042969 9.496094 L 50.210938 9.488281 C 50.679688 9.488281 51.144531 9.535156 51.605469 9.625 C 52.066406 9.71875 52.515625 9.851562 52.949219 10.03125 C 53.382812 10.210938 53.796875 10.433594 54.1875 10.695312 C 54.578125 10.957031 54.941406 11.253906 55.273438 11.585938 C 55.605469 11.917969 55.902344 12.277344 56.164062 12.671875 C 56.425781 13.0625 56.644531 13.472656 56.824219 13.90625 C 57.003906 14.34375 57.140625 14.789062 57.234375 15.25 C 57.324219 15.710938 57.371094 16.179688 57.371094 16.648438 C 57.371094 17.117188 57.324219 17.582031 57.234375 18.046875 C 57.140625 18.507812 57.003906 18.953125 56.824219 19.386719 C 56.644531 19.824219 56.425781 20.234375 56.164062 20.625 C 55.902344 21.015625 55.605469 21.378906 55.273438 21.710938 C 54.941406 22.042969 54.578125 22.339844 54.1875 22.601562 C 53.796875 22.863281 53.382812 23.082031 52.949219 23.261719 C 52.515625 23.445312 52.066406 23.578125 51.605469 23.671875 C 51.144531 23.761719 50.679688 23.808594 50.210938 23.808594 L 43.945312 23.808594 C 43.699219 23.808594 43.484375 23.894531 43.3125 24.070312 C 43.136719 24.246094 43.050781 24.457031 43.050781 24.703125 C 43.050781 24.949219 43.136719 25.160156 43.3125 25.335938 C 43.484375 25.511719 43.699219 25.597656 43.945312 25.597656 L 50.210938 25.597656 C 50.785156 25.597656 51.359375 25.542969 51.925781 25.433594 C 52.492188 25.324219 53.042969 25.160156 53.574219 24.945312 C 54.109375 24.726562 54.621094 24.460938 55.101562 24.148438 C 55.585938 23.832031 56.035156 23.472656 56.449219 23.070312 C 56.863281 22.671875 57.234375 22.230469 57.5625 21.757812 C 57.894531 21.285156 58.175781 20.785156 58.40625 20.257812 C 58.640625 19.730469 58.820312 19.183594 58.945312 18.621094 C 59.074219 18.058594 59.144531 17.488281 59.164062 16.910156 C 59.179688 16.335938 59.140625 15.761719 59.046875 15.191406 C 58.953125 14.625 58.804688 14.070312 58.605469 13.527344 C 58.402344 12.988281 58.152344 12.472656 57.851562 11.980469 C 57.550781 11.488281 57.207031 11.027344 56.816406 10.601562 C 56.425781 10.175781 56 9.792969 55.535156 9.449219 C 55.070312 9.109375 54.578125 8.8125 54.058594 8.566406 C 53.539062 8.316406 52.996094 8.121094 52.4375 7.976562 C 51.878906 7.835938 51.3125 7.746094 50.738281 7.710938 Z M 35.75 22.019531 L 40.707031 22.019531 L 37.773438 27.882812 C 37.703125 28.023438 37.671875 28.167969 37.679688 28.324219 C 37.6875 28.480469 37.730469 28.621094 37.8125 28.753906 C 37.894531 28.886719 38.003906 28.992188 38.136719 29.066406 C 38.273438 29.140625 38.417969 29.179688 38.574219 29.179688 L 40.042969 29.179688 L 37.679688 36.738281 L 37.679688 31.863281 C 37.679688 31.617188 37.589844 31.40625 37.417969 31.230469 C 37.242188 31.054688 37.03125 30.96875 36.785156 30.96875 L 34.261719 30.96875 Z M 35.75 22.019531 "/>
</g>
</g>
</svg>
