<?xml version="1.0" encoding="UTF-8"?>
<svg xmlns="http://www.w3.org/2000/svg" xmlns:xlink="http://www.w3.org/1999/xlink" width="75pt" height="44.999999pt" viewBox="0 0 75 44.999999" version="1.2">
<defs>
<clipPath id="clip1">
  <path d="M 24 2.109375 L 52 2.109375 L 52 37 L 24 37 Z M 24 2.109375 "/>
</clipPath>
<clipPath id="clip2">
  <path d="M 20.015625 31 L 55.265625 31 L 55.265625 42.609375 L 20.015625 42.609375 Z M 20.015625 31 "/>
</clipPath>
</defs>
<g id="surface1">
<g clip-path="url(#clip1)" clip-rule="nonzero">
<path style=" stroke:none;fill-rule:nonzero;fill:rgb(100%,15.289307%,40.779114%);fill-opacity:1;" d="M 37.054688 36.3125 C 37.222656 36.453125 37.433594 36.523438 37.644531 36.523438 C 37.851562 36.523438 38.0625 36.453125 38.234375 36.3125 C 38.757812 35.875 51.089844 25.496094 51.089844 15.359375 C 51.089844 8.054688 45.058594 2.109375 37.644531 2.109375 C 30.226562 2.109375 24.195312 8.054688 24.195312 15.359375 C 24.195312 25.496094 36.527344 35.875 37.054688 36.3125 Z M 37.644531 3.910156 C 44.050781 3.910156 49.261719 9.046875 49.261719 15.359375 C 49.261719 23.460938 40.085938 32.230469 37.644531 34.421875 C 35.203125 32.230469 26.023438 23.460938 26.023438 15.359375 C 26.023438 9.046875 31.234375 3.910156 37.644531 3.910156 Z M 37.644531 3.910156 "/>
</g>
<path style=" stroke:none;fill-rule:nonzero;fill:rgb(100%,15.289307%,40.779114%);fill-opacity:1;" d="M 44.265625 15.0625 C 44.265625 11.464844 41.296875 8.539062 37.644531 8.539062 C 33.992188 8.539062 31.019531 11.464844 31.019531 15.0625 C 31.019531 18.660156 33.992188 21.585938 37.644531 21.585938 C 41.296875 21.585938 44.265625 18.660156 44.265625 15.0625 Z M 32.847656 15.0625 C 32.847656 12.457031 35 10.335938 37.644531 10.335938 C 40.289062 10.335938 42.441406 12.457031 42.441406 15.0625 C 42.441406 17.667969 40.289062 19.789062 37.644531 19.789062 C 35 19.789062 32.847656 17.667969 32.847656 15.0625 Z M 32.847656 15.0625 "/>
<g clip-path="url(#clip2)" clip-rule="nonzero">
<path style=" stroke:none;fill-rule:nonzero;fill:rgb(100%,15.289307%,40.779114%);fill-opacity:1;" d="M 45.046875 31.789062 C 44.546875 31.71875 44.085938 32.066406 44.015625 32.558594 C 43.949219 33.050781 44.296875 33.503906 44.796875 33.574219 C 51.078125 34.433594 53.421875 36.105469 53.421875 36.957031 C 53.421875 38.53125 47.273438 40.8125 37.644531 40.8125 C 28.011719 40.8125 21.867188 38.53125 21.867188 36.957031 C 21.867188 36.109375 24.207031 34.4375 30.496094 33.574219 C 30.996094 33.503906 31.34375 33.050781 31.273438 32.558594 C 31.203125 32.066406 30.742188 31.71875 30.242188 31.789062 C 27.175781 32.210938 20.039062 33.5625 20.039062 36.957031 C 20.039062 40.667969 28.894531 42.609375 37.644531 42.609375 C 46.390625 42.609375 55.246094 40.667969 55.246094 36.957031 C 55.246094 33.554688 48.113281 32.210938 45.046875 31.789062 Z M 45.046875 31.789062 "/>
</g>
</g>
</svg>
