<?xml version="1.0" encoding="UTF-8"?>
<svg xmlns="http://www.w3.org/2000/svg" xmlns:xlink="http://www.w3.org/1999/xlink" width="75pt" height="44.999999pt" viewBox="0 0 75 44.999999" version="1.2">
<defs>
<clipPath id="clip1">
  <path d="M 16.648438 1.648438 L 57.148438 1.648438 L 57.148438 31 L 16.648438 31 Z M 16.648438 1.648438 "/>
</clipPath>
<clipPath id="clip2">
  <path d="M 36 32 L 47 32 L 47 42.148438 L 36 42.148438 Z M 36 32 "/>
</clipPath>
<clipPath id="clip3">
  <path d="M 19 32 L 29 32 L 29 42.148438 L 19 42.148438 Z M 19 32 "/>
</clipPath>
<clipPath id="clip4">
  <path d="M 27 32 L 38 32 L 38 42.148438 L 27 42.148438 Z M 27 32 "/>
</clipPath>
</defs>
<g id="surface1">
<g clip-path="url(#clip1)" clip-rule="nonzero">
<path style=" stroke:none;fill-rule:nonzero;fill:rgb(100%,15.289307%,40.779114%);fill-opacity:1;" d="M 48.535156 10.410156 C 47.824219 5.421875 43.5625 1.648438 38.414062 1.648438 C 34.457031 1.648438 30.859375 3.957031 29.179688 7.480469 C 28.980469 7.464844 28.785156 7.457031 28.589844 7.457031 C 24.109375 7.457031 20.441406 11.003906 20.246094 15.441406 C 18.03125 17.023438 16.726562 19.535156 16.726562 22.285156 C 16.726562 26.9375 20.511719 30.722656 25.164062 30.722656 L 47.433594 30.722656 C 47.539062 30.722656 47.644531 30.707031 47.742188 30.679688 C 52.992188 30.226562 57.074219 25.796875 57.074219 20.496094 C 57.074219 15.464844 53.398438 11.21875 48.535156 10.410156 Z M 47.355469 28.289062 C 47.304688 28.292969 47.253906 28.296875 47.207031 28.308594 L 25.164062 28.308594 C 21.84375 28.308594 19.140625 25.605469 19.140625 22.285156 C 19.140625 20.152344 20.238281 18.222656 22.082031 17.121094 C 22.460938 16.894531 22.683594 16.476562 22.667969 16.035156 L 22.65625 15.894531 C 22.65625 15.867188 22.652344 15.839844 22.652344 15.808594 C 22.652344 12.535156 25.316406 9.871094 28.589844 9.871094 C 28.953125 9.871094 29.328125 9.910156 29.707031 9.980469 C 30.292969 10.09375 30.867188 9.765625 31.070312 9.207031 C 32.1875 6.132812 35.136719 4.066406 38.414062 4.066406 C 42.613281 4.066406 46.042969 7.351562 46.21875 11.546875 C 46.242188 12.164062 46.730469 12.664062 47.347656 12.703125 C 51.445312 12.960938 54.660156 16.382812 54.660156 20.496094 C 54.660156 24.601562 51.449219 28.023438 47.355469 28.289062 Z M 47.355469 28.289062 "/>
</g>
<g clip-path="url(#clip2)" clip-rule="nonzero">
<path style=" stroke:none;fill-rule:nonzero;fill:rgb(100%,15.289307%,40.779114%);fill-opacity:1;" d="M 45.105469 32.640625 L 36.625 41.121094 C 36.390625 41.355469 36.390625 41.738281 36.625 41.972656 C 36.746094 42.089844 36.898438 42.148438 37.054688 42.148438 C 37.207031 42.148438 37.363281 42.089844 37.480469 41.972656 L 45.957031 33.496094 C 46.195312 33.257812 46.195312 32.875 45.957031 32.640625 C 45.722656 32.40625 45.339844 32.40625 45.105469 32.640625 Z M 45.105469 32.640625 "/>
</g>
<g clip-path="url(#clip3)" clip-rule="nonzero">
<path style=" stroke:none;fill-rule:nonzero;fill:rgb(100%,15.289307%,40.779114%);fill-opacity:1;" d="M 28.691406 32.640625 C 28.457031 32.40625 28.074219 32.40625 27.839844 32.640625 L 19.363281 41.121094 C 19.128906 41.355469 19.128906 41.738281 19.363281 41.972656 C 19.480469 42.089844 19.636719 42.148438 19.789062 42.148438 C 19.941406 42.148438 20.097656 42.089844 20.214844 41.972656 L 28.691406 33.496094 C 28.929688 33.257812 28.929688 32.878906 28.691406 32.640625 Z M 28.691406 32.640625 "/>
</g>
<path style=" stroke:none;fill-rule:nonzero;fill:rgb(100%,15.289307%,40.779114%);fill-opacity:1;" d="M 32.933594 32.640625 C 32.695312 32.40625 32.316406 32.40625 32.078125 32.640625 L 26.097656 38.621094 C 25.859375 38.859375 25.859375 39.242188 26.097656 39.476562 C 26.214844 39.59375 26.367188 39.652344 26.523438 39.652344 C 26.679688 39.652344 26.832031 39.59375 26.949219 39.476562 L 32.933594 33.496094 C 33.167969 33.257812 33.167969 32.878906 32.933594 32.640625 Z M 32.933594 32.640625 "/>
<g clip-path="url(#clip4)" clip-rule="nonzero">
<path style=" stroke:none;fill-rule:nonzero;fill:rgb(100%,15.289307%,40.779114%);fill-opacity:1;" d="M 37.210938 32.640625 C 36.976562 32.40625 36.59375 32.40625 36.359375 32.640625 L 27.882812 41.121094 C 27.644531 41.355469 27.644531 41.738281 27.882812 41.972656 C 28 42.089844 28.152344 42.148438 28.308594 42.148438 C 28.460938 42.148438 28.617188 42.089844 28.734375 41.972656 L 37.214844 33.496094 C 37.449219 33.257812 37.449219 32.878906 37.210938 32.640625 Z M 37.210938 32.640625 "/>
</g>
<path style=" stroke:none;fill-rule:nonzero;fill:rgb(100%,15.289307%,40.779114%);fill-opacity:1;" d="M 41.449219 32.640625 C 41.214844 32.40625 40.832031 32.40625 40.597656 32.640625 L 34.613281 38.621094 C 34.378906 38.859375 34.378906 39.242188 34.613281 39.476562 C 34.734375 39.59375 34.886719 39.652344 35.042969 39.652344 C 35.195312 39.652344 35.351562 39.59375 35.46875 39.476562 L 41.449219 33.496094 C 41.6875 33.257812 41.6875 32.878906 41.449219 32.640625 Z M 41.449219 32.640625 "/>
</g>
</svg>
