<?xml version="1.0" encoding="UTF-8"?>
<svg xmlns="http://www.w3.org/2000/svg" xmlns:xlink="http://www.w3.org/1999/xlink" width="75pt" height="44.999999pt" viewBox="0 0 75 44.999999" version="1.2">
<defs>
<clipPath id="clip1">
  <path d="M 16.835938 1.835938 L 58.085938 1.835938 L 58.085938 32 L 16.835938 32 Z M 16.835938 1.835938 "/>
</clipPath>
<clipPath id="clip2">
  <path d="M 29 41 L 32 41 L 32 43.085938 L 29 43.085938 Z M 29 41 "/>
</clipPath>
<clipPath id="clip3">
  <path d="M 34 41 L 37 41 L 37 43.085938 L 34 43.085938 Z M 34 41 "/>
</clipPath>
<clipPath id="clip4">
  <path d="M 40 41 L 42 41 L 42 43.085938 L 40 43.085938 Z M 40 41 "/>
</clipPath>
<clipPath id="clip5">
  <path d="M 45 41 L 48 41 L 48 43.085938 L 45 43.085938 Z M 45 41 "/>
</clipPath>
</defs>
<g id="surface1">
<g clip-path="url(#clip1)" clip-rule="nonzero">
<path style=" stroke:none;fill-rule:nonzero;fill:rgb(81.17981%,93.328857%,81.959534%);fill-opacity:1;" d="M 49.359375 10.875 C 48.628906 5.777344 44.273438 1.921875 39.011719 1.921875 C 34.964844 1.921875 31.289062 4.277344 29.570312 7.878906 C 29.367188 7.863281 29.164062 7.855469 28.96875 7.855469 C 24.386719 7.855469 20.632812 11.484375 20.4375 16.019531 C 18.167969 17.636719 16.835938 20.203125 16.835938 23.015625 C 16.835938 27.773438 20.707031 31.644531 25.460938 31.644531 L 48.230469 31.644531 C 48.339844 31.644531 48.445312 31.628906 48.546875 31.601562 C 53.914062 31.132812 58.085938 26.605469 58.085938 21.1875 C 58.085938 16.042969 54.332031 11.703125 49.359375 10.875 Z M 48.152344 29.152344 C 48.101562 29.15625 48.050781 29.164062 48 29.171875 L 25.460938 29.171875 C 22.066406 29.171875 19.304688 26.410156 19.304688 23.015625 C 19.304688 20.835938 20.429688 18.863281 22.3125 17.738281 C 22.699219 17.503906 22.929688 17.078125 22.910156 16.625 L 22.902344 16.484375 C 22.898438 16.457031 22.894531 16.425781 22.894531 16.398438 C 22.894531 13.050781 25.617188 10.324219 28.964844 10.324219 C 29.335938 10.324219 29.722656 10.363281 30.109375 10.4375 C 30.707031 10.550781 31.292969 10.214844 31.5 9.648438 C 32.644531 6.503906 35.660156 4.390625 39.011719 4.390625 C 43.304688 4.390625 46.808594 7.75 46.988281 12.039062 C 47.011719 12.667969 47.511719 13.179688 48.144531 13.21875 C 52.335938 13.484375 55.617188 16.984375 55.617188 21.1875 C 55.617188 25.386719 52.339844 28.886719 48.152344 29.152344 Z M 48.152344 29.152344 "/>
</g>
<path style=" stroke:none;fill-rule:nonzero;fill:rgb(81.17981%,93.328857%,81.959534%);fill-opacity:1;" d="M 27.507812 34.976562 C 27.929688 34.976562 28.269531 34.632812 28.269531 34.214844 C 28.269531 33.796875 27.929688 33.457031 27.507812 33.457031 C 27.089844 33.457031 26.75 33.796875 26.75 34.214844 C 26.75 34.636719 27.089844 34.976562 27.507812 34.976562 Z M 27.507812 34.152344 C 27.542969 34.152344 27.574219 34.183594 27.574219 34.214844 C 27.574219 34.285156 27.445312 34.285156 27.445312 34.214844 C 27.445312 34.183594 27.476562 34.152344 27.507812 34.152344 Z M 27.507812 34.152344 "/>
<path style=" stroke:none;fill-rule:nonzero;fill:rgb(81.17981%,93.328857%,81.959534%);fill-opacity:1;" d="M 27.507812 38.417969 C 26.976562 38.417969 26.542969 38.851562 26.542969 39.382812 C 26.542969 39.914062 26.976562 40.347656 27.507812 40.347656 C 28.042969 40.347656 28.476562 39.914062 28.476562 39.382812 C 28.476562 38.851562 28.042969 38.417969 27.507812 38.417969 Z M 27.507812 39.652344 C 27.359375 39.652344 27.238281 39.53125 27.238281 39.382812 C 27.238281 39.234375 27.359375 39.113281 27.507812 39.113281 C 27.65625 39.113281 27.777344 39.234375 27.777344 39.382812 C 27.777344 39.53125 27.65625 39.652344 27.507812 39.652344 Z M 27.507812 39.652344 "/>
<path style=" stroke:none;fill-rule:nonzero;fill:rgb(81.17981%,93.328857%,81.959534%);fill-opacity:1;" d="M 30.167969 35.90625 C 29.632812 35.90625 29.199219 36.339844 29.199219 36.875 C 29.199219 37.40625 29.632812 37.835938 30.167969 37.835938 C 30.699219 37.835938 31.132812 37.40625 31.132812 36.875 C 31.132812 36.339844 30.699219 35.90625 30.167969 35.90625 Z M 30.167969 37.140625 C 30.019531 37.140625 29.898438 37.019531 29.898438 36.875 C 29.898438 36.722656 30.019531 36.601562 30.167969 36.601562 C 30.316406 36.601562 30.4375 36.722656 30.4375 36.875 C 30.433594 37.019531 30.316406 37.140625 30.167969 37.140625 Z M 30.167969 37.140625 "/>
<g clip-path="url(#clip2)" clip-rule="nonzero">
<path style=" stroke:none;fill-rule:nonzero;fill:rgb(81.17981%,93.328857%,81.959534%);fill-opacity:1;" d="M 30.167969 41.074219 C 29.632812 41.074219 29.199219 41.507812 29.199219 42.039062 C 29.199219 42.570312 29.632812 43.003906 30.167969 43.003906 C 30.699219 43.003906 31.132812 42.570312 31.132812 42.039062 C 31.132812 41.507812 30.699219 41.074219 30.167969 41.074219 Z M 30.167969 42.308594 C 30.019531 42.308594 29.898438 42.1875 29.898438 42.039062 C 29.898438 41.890625 30.019531 41.769531 30.167969 41.769531 C 30.316406 41.769531 30.4375 41.890625 30.4375 42.039062 C 30.433594 42.1875 30.316406 42.308594 30.167969 42.308594 Z M 30.167969 42.308594 "/>
</g>
<path style=" stroke:none;fill-rule:nonzero;fill:rgb(81.17981%,93.328857%,81.959534%);fill-opacity:1;" d="M 32.867188 34.976562 C 33.285156 34.976562 33.625 34.632812 33.625 34.214844 C 33.625 33.796875 33.285156 33.457031 32.867188 33.457031 C 32.449219 33.457031 32.109375 33.796875 32.109375 34.214844 C 32.109375 34.636719 32.449219 34.976562 32.867188 34.976562 Z M 32.867188 34.152344 C 32.902344 34.152344 32.929688 34.183594 32.929688 34.214844 C 32.929688 34.285156 32.804688 34.285156 32.804688 34.214844 C 32.804688 34.183594 32.832031 34.152344 32.867188 34.152344 Z M 32.867188 34.152344 "/>
<path style=" stroke:none;fill-rule:nonzero;fill:rgb(81.17981%,93.328857%,81.959534%);fill-opacity:1;" d="M 32.867188 38.417969 C 32.335938 38.417969 31.902344 38.851562 31.902344 39.382812 C 31.902344 39.914062 32.335938 40.347656 32.867188 40.347656 C 33.398438 40.347656 33.832031 39.914062 33.832031 39.382812 C 33.832031 38.851562 33.398438 38.417969 32.867188 38.417969 Z M 32.867188 39.652344 C 32.71875 39.652344 32.597656 39.53125 32.597656 39.382812 C 32.597656 39.234375 32.71875 39.113281 32.867188 39.113281 C 33.015625 39.113281 33.136719 39.234375 33.136719 39.382812 C 33.136719 39.53125 33.015625 39.652344 32.867188 39.652344 Z M 32.867188 39.652344 "/>
<path style=" stroke:none;fill-rule:nonzero;fill:rgb(81.17981%,93.328857%,81.959534%);fill-opacity:1;" d="M 35.523438 35.90625 C 34.992188 35.90625 34.558594 36.339844 34.558594 36.875 C 34.558594 37.40625 34.992188 37.835938 35.523438 37.835938 C 36.054688 37.835938 36.488281 37.40625 36.488281 36.875 C 36.488281 36.339844 36.054688 35.90625 35.523438 35.90625 Z M 35.523438 37.140625 C 35.375 37.140625 35.253906 37.019531 35.253906 36.875 C 35.253906 36.722656 35.375 36.601562 35.523438 36.601562 C 35.671875 36.601562 35.792969 36.722656 35.792969 36.875 C 35.792969 37.019531 35.671875 37.140625 35.523438 37.140625 Z M 35.523438 37.140625 "/>
<g clip-path="url(#clip3)" clip-rule="nonzero">
<path style=" stroke:none;fill-rule:nonzero;fill:rgb(81.17981%,93.328857%,81.959534%);fill-opacity:1;" d="M 35.523438 41.074219 C 34.992188 41.074219 34.558594 41.507812 34.558594 42.039062 C 34.558594 42.570312 34.992188 43.003906 35.523438 43.003906 C 36.054688 43.003906 36.488281 42.570312 36.488281 42.039062 C 36.488281 41.507812 36.054688 41.074219 35.523438 41.074219 Z M 35.523438 42.308594 C 35.375 42.308594 35.253906 42.1875 35.253906 42.039062 C 35.253906 41.890625 35.375 41.769531 35.523438 41.769531 C 35.671875 41.769531 35.792969 41.890625 35.792969 42.039062 C 35.792969 42.1875 35.671875 42.308594 35.523438 42.308594 Z M 35.523438 42.308594 "/>
</g>
<path style=" stroke:none;fill-rule:nonzero;fill:rgb(81.17981%,93.328857%,81.959534%);fill-opacity:1;" d="M 38.308594 34.976562 C 38.726562 34.976562 39.070312 34.632812 39.070312 34.214844 C 39.070312 33.796875 38.726562 33.457031 38.308594 33.457031 C 37.890625 33.457031 37.550781 33.796875 37.550781 34.214844 C 37.550781 34.636719 37.890625 34.976562 38.308594 34.976562 Z M 38.308594 34.152344 C 38.34375 34.152344 38.371094 34.183594 38.371094 34.214844 C 38.371094 34.285156 38.246094 34.285156 38.246094 34.214844 C 38.246094 34.183594 38.273438 34.152344 38.308594 34.152344 Z M 38.308594 34.152344 "/>
<path style=" stroke:none;fill-rule:nonzero;fill:rgb(81.17981%,93.328857%,81.959534%);fill-opacity:1;" d="M 38.308594 38.417969 C 37.777344 38.417969 37.34375 38.851562 37.34375 39.382812 C 37.34375 39.914062 37.777344 40.347656 38.308594 40.347656 C 38.839844 40.347656 39.273438 39.914062 39.273438 39.382812 C 39.277344 38.851562 38.839844 38.417969 38.308594 38.417969 Z M 38.308594 39.652344 C 38.160156 39.652344 38.039062 39.53125 38.039062 39.382812 C 38.039062 39.234375 38.160156 39.113281 38.308594 39.113281 C 38.457031 39.113281 38.578125 39.234375 38.578125 39.382812 C 38.578125 39.53125 38.457031 39.652344 38.308594 39.652344 Z M 38.308594 39.652344 "/>
<path style=" stroke:none;fill-rule:nonzero;fill:rgb(81.17981%,93.328857%,81.959534%);fill-opacity:1;" d="M 40.964844 35.90625 C 40.433594 35.90625 40 36.339844 40 36.875 C 40 37.40625 40.433594 37.835938 40.964844 37.835938 C 41.496094 37.835938 41.929688 37.40625 41.929688 36.875 C 41.929688 36.339844 41.496094 35.90625 40.964844 35.90625 Z M 40.964844 37.140625 C 40.816406 37.140625 40.695312 37.019531 40.695312 36.875 C 40.695312 36.722656 40.816406 36.601562 40.964844 36.601562 C 41.113281 36.601562 41.234375 36.722656 41.234375 36.875 C 41.234375 37.019531 41.113281 37.140625 40.964844 37.140625 Z M 40.964844 37.140625 "/>
<g clip-path="url(#clip4)" clip-rule="nonzero">
<path style=" stroke:none;fill-rule:nonzero;fill:rgb(81.17981%,93.328857%,81.959534%);fill-opacity:1;" d="M 40.964844 41.074219 C 40.433594 41.074219 40 41.507812 40 42.039062 C 40 42.570312 40.433594 43.003906 40.964844 43.003906 C 41.496094 43.003906 41.929688 42.570312 41.929688 42.039062 C 41.929688 41.507812 41.496094 41.074219 40.964844 41.074219 Z M 40.964844 42.308594 C 40.816406 42.308594 40.695312 42.1875 40.695312 42.039062 C 40.695312 41.890625 40.816406 41.769531 40.964844 41.769531 C 41.113281 41.769531 41.234375 41.890625 41.234375 42.039062 C 41.234375 42.1875 41.113281 42.308594 40.964844 42.308594 Z M 40.964844 42.308594 "/>
</g>
<path style=" stroke:none;fill-rule:nonzero;fill:rgb(81.17981%,93.328857%,81.959534%);fill-opacity:1;" d="M 43.664062 34.976562 C 44.085938 34.976562 44.425781 34.632812 44.425781 34.214844 C 44.425781 33.796875 44.085938 33.457031 43.664062 33.457031 C 43.246094 33.457031 42.90625 33.796875 42.90625 34.214844 C 42.90625 34.636719 43.246094 34.976562 43.664062 34.976562 Z M 43.664062 34.152344 C 43.699219 34.152344 43.730469 34.183594 43.730469 34.214844 C 43.730469 34.285156 43.601562 34.285156 43.601562 34.214844 C 43.601562 34.183594 43.632812 34.152344 43.664062 34.152344 Z M 43.664062 34.152344 "/>
<path style=" stroke:none;fill-rule:nonzero;fill:rgb(81.17981%,93.328857%,81.959534%);fill-opacity:1;" d="M 43.664062 38.417969 C 43.132812 38.417969 42.699219 38.851562 42.699219 39.382812 C 42.699219 39.914062 43.132812 40.347656 43.664062 40.347656 C 44.199219 40.347656 44.632812 39.914062 44.632812 39.382812 C 44.632812 38.851562 44.199219 38.417969 43.664062 38.417969 Z M 43.664062 39.652344 C 43.519531 39.652344 43.398438 39.53125 43.398438 39.382812 C 43.398438 39.234375 43.519531 39.113281 43.664062 39.113281 C 43.816406 39.113281 43.933594 39.234375 43.933594 39.382812 C 43.933594 39.53125 43.816406 39.652344 43.664062 39.652344 Z M 43.664062 39.652344 "/>
<path style=" stroke:none;fill-rule:nonzero;fill:rgb(81.17981%,93.328857%,81.959534%);fill-opacity:1;" d="M 46.324219 35.90625 C 45.789062 35.90625 45.359375 36.339844 45.359375 36.875 C 45.359375 37.40625 45.789062 37.835938 46.324219 37.835938 C 46.855469 37.835938 47.289062 37.40625 47.289062 36.875 C 47.289062 36.339844 46.855469 35.90625 46.324219 35.90625 Z M 46.324219 37.140625 C 46.175781 37.140625 46.054688 37.019531 46.054688 36.875 C 46.054688 36.722656 46.175781 36.601562 46.324219 36.601562 C 46.472656 36.601562 46.59375 36.722656 46.59375 36.875 C 46.59375 37.019531 46.472656 37.140625 46.324219 37.140625 Z M 46.324219 37.140625 "/>
<g clip-path="url(#clip5)" clip-rule="nonzero">
<path style=" stroke:none;fill-rule:nonzero;fill:rgb(81.17981%,93.328857%,81.959534%);fill-opacity:1;" d="M 46.324219 41.074219 C 45.789062 41.074219 45.359375 41.507812 45.359375 42.039062 C 45.359375 42.570312 45.789062 43.003906 46.324219 43.003906 C 46.855469 43.003906 47.289062 42.570312 47.289062 42.039062 C 47.289062 41.507812 46.855469 41.074219 46.324219 41.074219 Z M 46.324219 42.308594 C 46.175781 42.308594 46.054688 42.1875 46.054688 42.039062 C 46.054688 41.890625 46.175781 41.769531 46.324219 41.769531 C 46.472656 41.769531 46.59375 41.890625 46.59375 42.039062 C 46.59375 42.1875 46.472656 42.308594 46.324219 42.308594 Z M 46.324219 42.308594 "/>
</g>
</g>
</svg>
