<?xml version="1.0" encoding="UTF-8"?>
<svg xmlns="http://www.w3.org/2000/svg" xmlns:xlink="http://www.w3.org/1999/xlink" width="75pt" height="44.999999pt" viewBox="0 0 75 44.999999" version="1.2">
<defs>
<clipPath id="clip1">
  <path d="M 6 2.015625 L 28.5 2.015625 L 28.5 27.515625 L 6 27.515625 Z M 6 2.015625 "/>
</clipPath>
<clipPath id="clip2">
  <path d="M 28 14.582031 L 66.101562 14.582031 L 66.101562 37 L 28 37 Z M 28 14.582031 "/>
</clipPath>
<clipPath id="clip3">
  <path d="M 15.851562 26 L 43 26 L 43 42.332031 L 15.851562 42.332031 Z M 15.851562 26 "/>
</clipPath>
<clipPath id="clip4">
  <path d="M 46.257812 4.5 L 57.507812 4.5 L 57.507812 15 L 46.257812 15 Z M 46.257812 4.5 "/>
</clipPath>
<clipPath id="clip5">
  <path d="M 24 11 L 32 11 L 32 20 L 24 20 Z M 24 11 "/>
</clipPath>
<clipPath id="clip6">
  <path d="M 27.582031 10.082031 L 33.105469 15.15625 L 28.539062 20.125 L 23.015625 15.050781 Z M 27.582031 10.082031 "/>
</clipPath>
<clipPath id="clip7">
  <path d="M 27.582031 10.082031 L 33.105469 15.15625 L 28.539062 20.125 L 23.015625 15.050781 Z M 27.582031 10.082031 "/>
</clipPath>
</defs>
<g id="surface1">
<g clip-path="url(#clip1)" clip-rule="nonzero">
<path style=" stroke:none;fill-rule:nonzero;fill:rgb(59.21936%,77.249146%,90.589905%);fill-opacity:1;" d="M 8.492188 19.855469 C 10.386719 23.867188 14.433594 26.457031 18.804688 26.457031 C 20.523438 26.457031 22.1875 26.070312 23.75 25.304688 C 24.425781 24.972656 25.066406 24.578125 25.660156 24.125 C 23.359375 24.117188 21.109375 23.464844 19.144531 22.230469 C 17.117188 20.960938 15.5 19.125 14.464844 16.929688 C 12.371094 12.5 12.988281 7.296875 15.9375 3.527344 C 15.21875 3.71875 14.519531 3.980469 13.84375 4.308594 C 8.160156 7.09375 5.761719 14.066406 8.492188 19.855469 Z M 13.398438 3.367188 C 14.628906 2.765625 15.933594 2.375 17.273438 2.207031 L 18.78125 2.019531 L 17.695312 3.097656 C 14.1875 6.59375 13.257812 11.96875 15.386719 16.476562 C 17.28125 20.488281 21.328125 23.082031 25.699219 23.082031 C 26.160156 23.082031 26.625 23.050781 27.085938 22.992188 L 28.59375 22.804688 L 27.507812 23.886719 C 26.539062 24.847656 25.425781 25.644531 24.195312 26.246094 C 22.492188 27.078125 20.679688 27.5 18.804688 27.503906 C 16.492188 27.503906 14.226562 26.847656 12.253906 25.609375 C 10.226562 24.335938 8.605469 22.503906 7.570312 20.308594 C 4.59375 14 7.207031 6.402344 13.398438 3.367188 "/>
</g>
<g clip-path="url(#clip2)" clip-rule="nonzero">
<path style=" stroke:none;fill-rule:nonzero;fill:rgb(59.21936%,77.249146%,90.589905%);fill-opacity:1;" d="M 52.433594 33.53125 L 52.847656 33.816406 C 54.082031 34.65625 55.53125 35.101562 57.035156 35.101562 C 61.125 35.101562 64.457031 31.789062 64.457031 27.714844 C 64.457031 23.644531 61.125 20.328125 57.035156 20.328125 C 56.59375 20.328125 56.144531 20.371094 55.699219 20.449219 L 55.207031 20.539062 L 54.917969 20.132812 C 53.132812 17.640625 50.230469 16.148438 47.15625 16.148438 C 44.085938 16.148438 41.183594 17.640625 39.398438 20.132812 L 39.105469 20.539062 L 38.617188 20.449219 C 38.167969 20.371094 37.722656 20.328125 37.28125 20.328125 C 33.546875 20.328125 30.390625 23.160156 29.921875 26.777344 C 31.96875 27.003906 33.859375 28.023438 35.164062 29.625 C 35.386719 29.601562 35.605469 29.589844 35.824219 29.589844 C 38.472656 29.589844 40.820312 31.226562 41.773438 33.605469 L 41.882812 33.53125 L 42.316406 33.785156 C 43.777344 34.648438 45.453125 35.101562 47.15625 35.101562 C 48.863281 35.101562 50.539062 34.648438 52 33.785156 Z M 57.035156 36.671875 C 55.378906 36.671875 53.777344 36.222656 52.375 35.375 C 50.773438 36.222656 48.980469 36.671875 47.15625 36.671875 C 45.332031 36.671875 43.539062 36.222656 41.941406 35.375 C 41.867188 35.421875 41.789062 35.464844 41.710938 35.507812 L 40.769531 36.039062 L 40.550781 34.984375 C 40.09375 32.765625 38.105469 31.15625 35.824219 31.15625 C 35.539062 31.15625 35.246094 31.183594 34.957031 31.234375 L 34.464844 31.324219 L 34.175781 30.917969 C 33.003906 29.28125 31.097656 28.300781 29.078125 28.300781 L 28.269531 28.300781 L 28.289062 27.496094 C 28.347656 25.152344 29.308594 22.957031 30.996094 21.3125 C 32.683594 19.667969 34.917969 18.761719 37.28125 18.761719 C 37.652344 18.761719 38.03125 18.785156 38.40625 18.832031 C 40.503906 16.164062 43.738281 14.582031 47.15625 14.582031 C 50.574219 14.582031 53.8125 16.164062 55.90625 18.832031 C 56.285156 18.785156 56.660156 18.761719 57.035156 18.761719 C 61.996094 18.761719 66.03125 22.777344 66.03125 27.714844 C 66.03125 32.652344 61.996094 36.671875 57.035156 36.671875 "/>
</g>
<g clip-path="url(#clip3)" clip-rule="nonzero">
<path style=" stroke:none;fill-rule:nonzero;fill:rgb(59.21936%,77.249146%,90.589905%);fill-opacity:1;" d="M 32.6875 39.644531 L 33.101562 39.925781 C 33.90625 40.472656 34.847656 40.761719 35.824219 40.761719 C 38.484375 40.761719 40.652344 38.609375 40.652344 35.960938 C 40.652344 35.632812 40.617188 35.304688 40.550781 34.984375 C 40.09375 32.765625 38.105469 31.15625 35.824219 31.15625 C 35.539062 31.15625 35.246094 31.183594 34.957031 31.234375 L 34.464844 31.324219 L 34.175781 30.917969 C 33.003906 29.28125 31.097656 28.300781 29.078125 28.300781 L 29.0625 28.300781 C 27.050781 28.300781 25.144531 29.277344 23.96875 30.917969 L 23.679688 31.324219 L 23.1875 31.234375 C 22.898438 31.183594 22.605469 31.15625 22.320312 31.15625 C 19.660156 31.15625 17.496094 33.3125 17.496094 35.960938 C 17.496094 38.609375 19.660156 40.761719 22.320312 40.761719 C 23.296875 40.761719 24.238281 40.472656 25.042969 39.925781 L 25.457031 39.644531 L 25.890625 39.898438 C 26.851562 40.464844 27.949219 40.761719 29.074219 40.761719 C 30.195312 40.761719 31.296875 40.464844 32.257812 39.898438 Z M 35.824219 42.328125 C 34.695312 42.328125 33.601562 42.035156 32.632812 41.480469 C 31.535156 42.035156 30.3125 42.328125 29.074219 42.328125 C 27.832031 42.328125 26.613281 42.035156 25.515625 41.480469 C 24.546875 42.035156 23.449219 42.328125 22.320312 42.328125 C 18.792969 42.328125 15.921875 39.472656 15.921875 35.960938 C 15.921875 32.449219 18.792969 29.589844 22.320312 29.589844 C 22.539062 29.589844 22.761719 29.601562 22.980469 29.625 C 24.464844 27.804688 26.707031 26.730469 29.074219 26.730469 L 29.085938 26.730469 C 31.441406 26.734375 33.683594 27.808594 35.164062 29.625 C 35.386719 29.601562 35.605469 29.589844 35.824219 29.589844 C 38.847656 29.589844 41.484375 31.726562 42.09375 34.667969 C 42.179688 35.09375 42.226562 35.527344 42.226562 35.960938 C 42.226562 39.472656 39.355469 42.328125 35.824219 42.328125 "/>
</g>
<g clip-path="url(#clip4)" clip-rule="nonzero">
<path style=" stroke:none;fill-rule:nonzero;fill:rgb(59.21936%,77.249146%,90.589905%);fill-opacity:1;" d="M 55.164062 14.984375 C 55.121094 14.984375 55.074219 14.972656 55.03125 14.949219 L 51.882812 13.324219 L 48.730469 14.949219 C 48.632812 15 48.515625 14.992188 48.429688 14.929688 C 48.339844 14.867188 48.296875 14.757812 48.3125 14.652344 L 48.914062 11.210938 L 46.367188 8.773438 C 46.289062 8.699219 46.261719 8.585938 46.292969 8.484375 C 46.328125 8.382812 46.417969 8.308594 46.527344 8.292969 L 50.046875 7.789062 L 51.625 4.65625 C 51.671875 4.5625 51.773438 4.5 51.882812 4.5 C 51.992188 4.5 52.089844 4.5625 52.140625 4.65625 L 53.714844 7.789062 L 57.238281 8.292969 C 57.34375 8.308594 57.433594 8.382812 57.46875 8.484375 C 57.503906 8.585938 57.476562 8.699219 57.394531 8.773438 L 54.847656 11.210938 L 55.449219 14.652344 C 55.46875 14.757812 55.421875 14.867188 55.335938 14.929688 C 55.285156 14.964844 55.226562 14.984375 55.164062 14.984375 Z M 51.882812 12.722656 C 51.925781 12.722656 51.972656 12.734375 52.015625 12.757812 L 54.785156 14.183594 L 54.253906 11.160156 C 54.238281 11.070312 54.269531 10.976562 54.339844 10.910156 L 56.578125 8.769531 L 53.480469 8.328125 C 53.386719 8.3125 53.308594 8.253906 53.265625 8.171875 L 51.882812 5.417969 L 50.496094 8.171875 C 50.457031 8.253906 50.375 8.3125 50.28125 8.328125 L 47.183594 8.769531 L 49.425781 10.910156 C 49.492188 10.976562 49.523438 11.070312 49.507812 11.160156 L 48.980469 14.183594 L 51.746094 12.757812 C 51.789062 12.734375 51.835938 12.722656 51.882812 12.722656 Z M 51.882812 12.722656 "/>
</g>
<g clip-path="url(#clip5)" clip-rule="nonzero">
<g clip-path="url(#clip6)" clip-rule="nonzero">
<g clip-path="url(#clip7)" clip-rule="nonzero">
<path style=" stroke:none;fill-rule:nonzero;fill:rgb(59.21936%,77.249146%,90.589905%);fill-opacity:1;" d="M 27.398438 19.0625 C 27.375 19.039062 27.355469 19.015625 27.34375 18.984375 L 26.503906 16.792969 L 24.25 16.144531 C 24.183594 16.121094 24.128906 16.066406 24.113281 15.996094 C 24.097656 15.925781 24.121094 15.855469 24.175781 15.8125 L 25.96875 14.457031 L 25.777344 12.152344 C 25.773438 12.082031 25.808594 12.015625 25.867188 11.980469 C 25.929688 11.949219 26.003906 11.953125 26.066406 11.996094 L 28.011719 13.347656 L 30.148438 12.574219 C 30.214844 12.550781 30.289062 12.566406 30.34375 12.617188 C 30.398438 12.667969 30.421875 12.742188 30.402344 12.808594 L 29.8125 15 L 31.324219 16.828125 C 31.371094 16.882812 31.382812 16.960938 31.355469 17.023438 C 31.328125 17.085938 31.265625 17.125 31.191406 17.128906 L 28.882812 17.132812 L 27.679688 19.03125 C 27.640625 19.089844 27.574219 19.121094 27.503906 19.113281 C 27.464844 19.105469 27.425781 19.085938 27.398438 19.0625 Z M 26.765625 16.511719 C 26.789062 16.53125 26.808594 16.558594 26.820312 16.585938 L 27.554688 18.511719 L 28.613281 16.839844 C 28.644531 16.789062 28.699219 16.757812 28.761719 16.757812 L 30.792969 16.753906 L 29.464844 15.148438 C 29.425781 15.101562 29.410156 15.039062 29.425781 14.980469 L 29.945312 13.050781 L 28.066406 13.730469 C 28.011719 13.75 27.945312 13.742188 27.894531 13.707031 L 26.183594 12.519531 L 26.351562 14.542969 C 26.355469 14.605469 26.328125 14.664062 26.28125 14.699219 L 24.707031 15.890625 L 26.6875 16.464844 C 26.71875 16.472656 26.746094 16.488281 26.765625 16.511719 Z M 26.765625 16.511719 "/>
</g>
</g>
</g>
</g>
</svg>
