<?xml version="1.0" encoding="UTF-8"?>
<svg xmlns="http://www.w3.org/2000/svg" xmlns:xlink="http://www.w3.org/1999/xlink" width="75pt" height="44.999999pt" viewBox="0 0 75 44.999999" version="1.2">
<defs>
<clipPath id="clip1">
  <path d="M 14.367188 3.9375 L 64.617188 3.9375 L 64.617188 41.4375 L 14.367188 41.4375 Z M 14.367188 3.9375 "/>
</clipPath>
</defs>
<g id="surface1">
<g clip-path="url(#clip1)" clip-rule="nonzero">
<path style=" stroke:none;fill-rule:nonzero;fill:rgb(63.139343%,4.708862%,77.648926%);fill-opacity:1;" d="M 58.082031 21.160156 C 57.996094 20.613281 57.863281 20.082031 57.683594 19.558594 C 57.503906 19.039062 57.28125 18.539062 57.011719 18.058594 C 56.742188 17.578125 56.4375 17.125 56.089844 16.699219 C 55.742188 16.273438 55.359375 15.882812 54.941406 15.523438 C 54.527344 15.167969 54.082031 14.851562 53.609375 14.574219 C 53.136719 14.296875 52.644531 14.0625 52.132812 13.875 C 51.617188 13.683594 51.09375 13.542969 50.554688 13.449219 C 50.015625 13.355469 49.472656 13.308594 48.929688 13.3125 C 48.84375 13.3125 48.757812 13.320312 48.671875 13.324219 C 48.542969 12.664062 48.355469 12.019531 48.113281 11.394531 C 47.875 10.769531 47.582031 10.167969 47.238281 9.589844 C 46.894531 9.015625 46.503906 8.472656 46.066406 7.96875 C 45.628906 7.460938 45.152344 6.992188 44.636719 6.566406 C 44.121094 6.144531 43.574219 5.765625 42.996094 5.4375 C 42.414062 5.109375 41.808594 4.832031 41.183594 4.605469 C 40.554688 4.382812 39.914062 4.214844 39.257812 4.101562 C 38.601562 3.988281 37.941406 3.933594 37.273438 3.9375 C 36.609375 3.941406 35.949219 4 35.292969 4.117188 C 34.636719 4.234375 33.996094 4.410156 33.371094 4.636719 C 32.746094 4.867188 32.144531 5.148438 31.566406 5.484375 C 30.988281 5.816406 30.445312 6.199219 29.933594 6.628906 C 29.417969 7.054688 28.949219 7.527344 28.515625 8.039062 C 28.082031 8.546875 27.695312 9.09375 27.359375 9.671875 C 27.019531 10.25 26.730469 10.851562 26.496094 11.480469 C 26.257812 12.109375 26.078125 12.753906 25.949219 13.414062 C 25.566406 13.46875 25.1875 13.550781 24.8125 13.652344 C 24.4375 13.757812 24.074219 13.882812 23.714844 14.03125 C 23.355469 14.183594 23.007812 14.355469 22.671875 14.546875 C 22.335938 14.742188 22.011719 14.957031 21.699219 15.191406 C 21.390625 15.425781 21.097656 15.679688 20.816406 15.953125 C 20.539062 16.226562 20.277344 16.515625 20.035156 16.820312 C 19.792969 17.125 19.570312 17.445312 19.367188 17.777344 C 19.164062 18.113281 18.980469 18.457031 18.820312 18.8125 C 18.660156 19.171875 18.523438 19.535156 18.40625 19.910156 C 18.292969 20.285156 18.203125 20.664062 18.132812 21.050781 C 18.066406 21.4375 18.023438 21.824219 18.003906 22.214844 C 17.984375 22.605469 17.988281 23 18.019531 23.390625 C 18.046875 23.78125 18.101562 24.167969 18.179688 24.550781 C 18.257812 24.933594 18.359375 25.3125 18.480469 25.683594 C 18.605469 26.054688 18.753906 26.414062 18.921875 26.769531 C 19.089844 27.121094 19.28125 27.460938 19.492188 27.789062 C 19.109375 27.929688 18.742188 28.101562 18.390625 28.304688 C 18.039062 28.507812 17.703125 28.742188 17.394531 29.003906 C 17.082031 29.269531 16.792969 29.558594 16.53125 29.871094 C 16.269531 30.183594 16.035156 30.519531 15.832031 30.875 C 15.628906 31.230469 15.453125 31.601562 15.316406 31.984375 C 15.175781 32.371094 15.070312 32.765625 15 33.171875 C 14.925781 33.574219 14.890625 33.984375 14.890625 34.394531 C 14.890625 34.804688 14.925781 35.210938 14.996094 35.617188 C 15.066406 36.023438 15.167969 36.417969 15.308594 36.804688 C 15.445312 37.191406 15.617188 37.558594 15.820312 37.917969 C 16.023438 38.273438 16.253906 38.609375 16.515625 38.921875 C 16.777344 39.238281 17.066406 39.527344 17.375 39.789062 C 17.6875 40.054688 18.019531 40.289062 18.371094 40.496094 C 18.722656 40.699219 19.089844 40.871094 19.472656 41.011719 C 19.855469 41.152344 20.246094 41.257812 20.648438 41.332031 C 21.046875 41.402344 21.453125 41.4375 21.859375 41.4375 L 35.78125 41.4375 C 36.203125 41.4375 36.625 41.394531 37.042969 41.316406 C 37.460938 41.238281 37.867188 41.125 38.261719 40.972656 C 38.65625 40.816406 39.039062 40.628906 39.398438 40.40625 C 39.761719 40.183594 40.101562 39.929688 40.417969 39.644531 C 40.734375 39.355469 41.019531 39.046875 41.28125 38.707031 C 41.539062 38.367188 41.769531 38.007812 41.960938 37.625 C 42.15625 37.246094 42.316406 36.851562 42.4375 36.441406 C 42.5625 36.03125 42.648438 35.613281 42.695312 35.1875 L 57.4375 35.1875 C 57.878906 35.183594 58.316406 35.140625 58.75 35.050781 C 59.183594 34.964844 59.601562 34.839844 60.011719 34.671875 C 60.421875 34.503906 60.8125 34.296875 61.183594 34.054688 C 61.554688 33.8125 61.898438 33.535156 62.21875 33.226562 C 62.535156 32.917969 62.824219 32.582031 63.078125 32.21875 C 63.332031 31.851562 63.550781 31.46875 63.734375 31.0625 C 63.917969 30.65625 64.058594 30.234375 64.164062 29.800781 C 64.265625 29.367188 64.328125 28.929688 64.351562 28.480469 C 64.371094 28.035156 64.347656 27.59375 64.285156 27.152344 C 64.222656 26.710938 64.117188 26.277344 63.972656 25.855469 C 63.832031 25.433594 63.648438 25.03125 63.425781 24.644531 C 63.207031 24.257812 62.953125 23.894531 62.664062 23.558594 C 62.375 23.21875 62.054688 22.914062 61.710938 22.636719 C 61.363281 22.359375 60.992188 22.117188 60.601562 21.914062 C 60.207031 21.707031 59.800781 21.542969 59.378906 21.414062 C 58.953125 21.289062 58.523438 21.203125 58.082031 21.160156 Z M 26.675781 14.910156 C 26.855469 14.894531 27.011719 14.824219 27.144531 14.699219 C 27.277344 14.574219 27.355469 14.417969 27.382812 14.238281 C 27.464844 13.652344 27.59375 13.078125 27.773438 12.515625 C 27.953125 11.957031 28.179688 11.414062 28.453125 10.890625 C 28.730469 10.371094 29.046875 9.875 29.40625 9.410156 C 29.765625 8.945312 30.160156 8.511719 30.59375 8.117188 C 31.027344 7.722656 31.492188 7.367188 31.988281 7.050781 C 32.484375 6.738281 33.003906 6.46875 33.542969 6.246094 C 34.085938 6.023438 34.640625 5.851562 35.214844 5.726562 C 35.785156 5.601562 36.363281 5.53125 36.949219 5.507812 C 37.53125 5.484375 38.113281 5.515625 38.695312 5.597656 C 39.273438 5.675781 39.839844 5.808594 40.398438 5.988281 C 40.953125 6.167969 41.492188 6.398438 42.007812 6.671875 C 42.523438 6.949219 43.015625 7.269531 43.476562 7.628906 C 43.9375 7.992188 44.367188 8.390625 44.757812 8.828125 C 45.152344 9.265625 45.503906 9.734375 45.816406 10.234375 C 46.128906 10.734375 46.394531 11.257812 46.613281 11.804688 C 46.835938 12.351562 47.007812 12.914062 47.132812 13.492188 C 46.203125 13.671875 45.324219 13.988281 44.492188 14.441406 C 43.660156 14.894531 42.914062 15.464844 42.253906 16.152344 C 41.597656 16.835938 41.054688 17.605469 40.632812 18.460938 C 40.210938 19.316406 39.921875 20.214844 39.773438 21.15625 C 38.867188 21.242188 38.007812 21.496094 37.199219 21.925781 C 36.390625 22.351562 35.691406 22.917969 35.105469 23.625 C 34.839844 23.375 34.5625 23.144531 34.273438 22.929688 C 33.980469 22.714844 33.679688 22.515625 33.363281 22.335938 C 33.050781 22.15625 32.726562 21.996094 32.394531 21.855469 C 32.058594 21.714844 31.722656 21.59375 31.375 21.492188 C 31.027344 21.390625 30.675781 21.3125 30.320312 21.25 C 29.964844 21.191406 29.605469 21.152344 29.246094 21.136719 C 28.882812 21.121094 28.523438 21.125 28.164062 21.148438 C 27.804688 21.175781 27.445312 21.222656 27.09375 21.289062 C 26.738281 21.355469 26.386719 21.445312 26.042969 21.554688 C 25.699219 21.664062 25.363281 21.792969 25.03125 21.941406 C 24.703125 22.089844 24.382812 22.257812 24.074219 22.445312 C 23.761719 22.632812 23.464844 22.835938 23.179688 23.058594 C 22.894531 23.28125 22.621094 23.519531 22.363281 23.773438 C 22.101562 24.027344 21.859375 24.296875 21.632812 24.578125 C 21.40625 24.859375 21.195312 25.15625 21 25.464844 C 20.808594 25.773438 20.632812 26.089844 20.476562 26.417969 C 19.847656 25.257812 19.535156 24.011719 19.539062 22.6875 C 19.539062 22.199219 19.585938 21.71875 19.675781 21.238281 C 19.769531 20.761719 19.902344 20.296875 20.078125 19.84375 C 20.257812 19.390625 20.472656 18.957031 20.730469 18.546875 C 20.984375 18.132812 21.277344 17.75 21.605469 17.390625 C 21.933594 17.035156 22.292969 16.710938 22.679688 16.421875 C 23.066406 16.132812 23.476562 15.878906 23.910156 15.667969 C 24.34375 15.453125 24.792969 15.285156 25.257812 15.15625 C 25.722656 15.027344 26.195312 14.945312 26.675781 14.90625 Z M 35.78125 39.875 L 21.859375 39.875 C 21.527344 39.875 21.195312 39.84375 20.867188 39.78125 C 20.542969 39.722656 20.222656 39.628906 19.914062 39.511719 C 19.601562 39.390625 19.304688 39.242188 19.023438 39.066406 C 18.738281 38.890625 18.472656 38.691406 18.226562 38.464844 C 17.980469 38.238281 17.757812 37.992188 17.554688 37.726562 C 17.351562 37.460938 17.175781 37.175781 17.027344 36.878906 C 16.875 36.578125 16.753906 36.269531 16.660156 35.945312 C 16.566406 35.625 16.503906 35.296875 16.46875 34.960938 C 16.433594 34.628906 16.433594 34.292969 16.460938 33.957031 C 16.488281 33.625 16.542969 33.292969 16.632812 32.96875 C 16.71875 32.644531 16.832031 32.332031 16.976562 32.03125 C 17.121094 31.726562 17.292969 31.441406 17.488281 31.171875 C 17.6875 30.898438 17.90625 30.648438 18.148438 30.417969 C 18.390625 30.191406 18.652344 29.984375 18.929688 29.800781 C 19.210938 29.621094 19.503906 29.46875 19.8125 29.339844 C 20.121094 29.214844 20.4375 29.117188 20.761719 29.050781 C 21.074219 28.984375 21.273438 28.796875 21.355469 28.484375 C 21.574219 27.652344 21.917969 26.878906 22.390625 26.164062 C 22.863281 25.449219 23.4375 24.828125 24.109375 24.304688 C 24.785156 23.78125 25.527344 23.382812 26.332031 23.105469 C 27.136719 22.828125 27.96875 22.691406 28.816406 22.691406 C 29.667969 22.691406 30.496094 22.828125 31.304688 23.105469 C 32.109375 23.382812 32.851562 23.78125 33.523438 24.304688 C 34.199219 24.828125 34.773438 25.449219 35.246094 26.164062 C 35.71875 26.878906 36.0625 27.652344 36.28125 28.484375 C 36.363281 28.796875 36.5625 28.984375 36.875 29.050781 C 37.199219 29.117188 37.515625 29.214844 37.824219 29.339844 C 38.132812 29.46875 38.425781 29.621094 38.703125 29.800781 C 38.984375 29.984375 39.246094 30.1875 39.488281 30.417969 C 39.730469 30.648438 39.949219 30.898438 40.144531 31.171875 C 40.34375 31.441406 40.511719 31.726562 40.65625 32.03125 C 40.800781 32.332031 40.917969 32.644531 41.003906 32.96875 C 41.09375 33.292969 41.148438 33.621094 41.175781 33.957031 C 41.203125 34.292969 41.199219 34.625 41.167969 34.960938 C 41.132812 35.292969 41.070312 35.621094 40.976562 35.945312 C 40.882812 36.265625 40.761719 36.578125 40.609375 36.875 C 40.460938 37.175781 40.285156 37.460938 40.082031 37.726562 C 39.878906 37.992188 39.65625 38.238281 39.410156 38.464844 C 39.164062 38.6875 38.898438 38.890625 38.613281 39.066406 C 38.332031 39.242188 38.035156 39.386719 37.722656 39.507812 C 37.414062 39.628906 37.09375 39.71875 36.769531 39.78125 C 36.441406 39.84375 36.113281 39.875 35.78125 39.875 Z M 57.4375 33.625 L 42.691406 33.625 C 42.613281 32.929688 42.4375 32.257812 42.160156 31.617188 C 41.882812 30.972656 41.523438 30.386719 41.074219 29.851562 C 40.625 29.316406 40.105469 28.863281 39.523438 28.484375 C 38.941406 28.105469 38.3125 27.820312 37.648438 27.628906 C 37.316406 26.597656 36.824219 25.648438 36.167969 24.789062 C 36.671875 24.128906 37.292969 23.617188 38.035156 23.246094 C 38.773438 22.878906 39.554688 22.691406 40.382812 22.6875 C 40.59375 22.703125 40.78125 22.640625 40.945312 22.503906 C 41.113281 22.367188 41.207031 22.191406 41.234375 21.976562 C 41.277344 21.496094 41.363281 21.023438 41.492188 20.558594 C 41.621094 20.09375 41.792969 19.644531 42.007812 19.214844 C 42.21875 18.78125 42.46875 18.371094 42.757812 17.984375 C 43.042969 17.601562 43.363281 17.246094 43.71875 16.917969 C 44.070312 16.59375 44.449219 16.304688 44.855469 16.046875 C 45.261719 15.792969 45.6875 15.578125 46.136719 15.40625 C 46.582031 15.230469 47.039062 15.097656 47.507812 15.007812 C 47.976562 14.921875 48.453125 14.875 48.929688 14.875 C 49.410156 14.875 49.882812 14.921875 50.351562 15.007812 C 50.824219 15.097656 51.28125 15.230469 51.726562 15.40625 C 52.171875 15.578125 52.597656 15.792969 53.003906 16.046875 C 53.410156 16.304688 53.789062 16.59375 54.144531 16.917969 C 54.496094 17.246094 54.816406 17.601562 55.105469 17.984375 C 55.390625 18.371094 55.640625 18.78125 55.855469 19.214844 C 56.066406 19.644531 56.238281 20.09375 56.367188 20.558594 C 56.5 21.023438 56.585938 21.496094 56.628906 21.976562 C 56.65625 22.179688 56.746094 22.351562 56.898438 22.484375 C 57.054688 22.621094 57.234375 22.6875 57.4375 22.6875 C 57.792969 22.6875 58.144531 22.722656 58.492188 22.792969 C 58.839844 22.863281 59.179688 22.964844 59.507812 23.101562 C 59.835938 23.238281 60.148438 23.410156 60.445312 23.609375 C 60.738281 23.808594 61.011719 24.035156 61.265625 24.289062 C 61.515625 24.542969 61.738281 24.816406 61.9375 25.117188 C 62.136719 25.414062 62.300781 25.730469 62.4375 26.0625 C 62.574219 26.394531 62.675781 26.734375 62.746094 27.089844 C 62.816406 27.441406 62.851562 27.796875 62.851562 28.15625 C 62.851562 28.515625 62.816406 28.871094 62.746094 29.222656 C 62.675781 29.574219 62.574219 29.917969 62.4375 30.246094 C 62.300781 30.578125 62.136719 30.894531 61.9375 31.195312 C 61.738281 31.492188 61.515625 31.769531 61.265625 32.023438 C 61.011719 32.277344 60.738281 32.503906 60.445312 32.703125 C 60.148438 32.902344 59.835938 33.070312 59.507812 33.207031 C 59.179688 33.34375 58.839844 33.449219 58.492188 33.519531 C 58.144531 33.589844 57.792969 33.625 57.4375 33.625 Z M 57.4375 33.625 "/>
</g>
</g>
</svg>
