<?xml version="1.0" encoding="UTF-8"?>
<svg xmlns="http://www.w3.org/2000/svg" xmlns:xlink="http://www.w3.org/1999/xlink" width="75pt" height="44.999999pt" viewBox="0 0 75 44.999999" version="1.2">
<defs>
<clipPath id="clip1">
  <path d="M 37 39 L 40 39 L 40 42.636719 L 37 42.636719 Z M 37 39 "/>
</clipPath>
<clipPath id="clip2">
  <path d="M 18.148438 2.136719 L 58.648438 2.136719 L 58.648438 28 L 18.148438 28 Z M 18.148438 2.136719 "/>
</clipPath>
</defs>
<g id="surface1">
<path style=" stroke:none;fill-rule:nonzero;fill:rgb(100%,15.289307%,40.779114%);fill-opacity:1;" d="M 38.566406 29.304688 C 38.335938 29.304688 38.140625 29.386719 37.976562 29.546875 C 37.816406 29.710938 37.734375 29.90625 37.734375 30.136719 L 37.734375 31.804688 C 37.734375 32.035156 37.816406 32.230469 37.976562 32.394531 C 38.140625 32.554688 38.335938 32.636719 38.566406 32.636719 C 38.796875 32.636719 38.992188 32.554688 39.15625 32.394531 C 39.320312 32.230469 39.398438 32.035156 39.398438 31.804688 L 39.398438 30.136719 C 39.398438 29.90625 39.320312 29.710938 39.15625 29.546875 C 38.992188 29.386719 38.796875 29.304688 38.566406 29.304688 Z M 38.566406 29.304688 "/>
<path style=" stroke:none;fill-rule:nonzero;fill:rgb(100%,15.289307%,40.779114%);fill-opacity:1;" d="M 38.566406 34.304688 C 38.335938 34.304688 38.140625 34.386719 37.976562 34.546875 C 37.816406 34.710938 37.734375 34.90625 37.734375 35.136719 L 37.734375 36.804688 C 37.734375 37.035156 37.816406 37.230469 37.976562 37.394531 C 38.140625 37.554688 38.335938 37.636719 38.566406 37.636719 C 38.796875 37.636719 38.992188 37.554688 39.15625 37.394531 C 39.320312 37.230469 39.398438 37.035156 39.398438 36.804688 L 39.398438 35.136719 C 39.398438 34.90625 39.320312 34.710938 39.15625 34.546875 C 38.992188 34.386719 38.796875 34.304688 38.566406 34.304688 Z M 38.566406 34.304688 "/>
<g clip-path="url(#clip1)" clip-rule="nonzero">
<path style=" stroke:none;fill-rule:nonzero;fill:rgb(100%,15.289307%,40.779114%);fill-opacity:1;" d="M 38.566406 39.304688 C 38.335938 39.304688 38.140625 39.386719 37.976562 39.546875 C 37.816406 39.710938 37.734375 39.90625 37.734375 40.136719 L 37.734375 41.804688 C 37.734375 42.035156 37.816406 42.230469 37.976562 42.394531 C 38.140625 42.554688 38.335938 42.636719 38.566406 42.636719 C 38.796875 42.636719 38.992188 42.554688 39.15625 42.394531 C 39.320312 42.230469 39.398438 42.035156 39.398438 41.804688 L 39.398438 40.136719 C 39.398438 39.90625 39.320312 39.710938 39.15625 39.546875 C 38.992188 39.386719 38.796875 39.304688 38.566406 39.304688 Z M 38.566406 39.304688 "/>
</g>
<path style=" stroke:none;fill-rule:nonzero;fill:rgb(100%,15.289307%,40.779114%);fill-opacity:1;" d="M 31.898438 25.972656 C 31.667969 25.972656 31.472656 26.050781 31.3125 26.214844 C 31.148438 26.378906 31.066406 26.574219 31.066406 26.804688 L 31.066406 28.472656 C 31.066406 28.699219 31.148438 28.898438 31.3125 29.058594 C 31.472656 29.222656 31.667969 29.304688 31.898438 29.304688 C 32.128906 29.304688 32.328125 29.222656 32.488281 29.058594 C 32.652344 28.898438 32.734375 28.699219 32.734375 28.472656 L 32.734375 26.804688 C 32.734375 26.574219 32.652344 26.378906 32.488281 26.214844 C 32.328125 26.050781 32.128906 25.972656 31.898438 25.972656 Z M 31.898438 25.972656 "/>
<path style=" stroke:none;fill-rule:nonzero;fill:rgb(100%,15.289307%,40.779114%);fill-opacity:1;" d="M 31.898438 30.972656 C 31.667969 30.972656 31.472656 31.050781 31.3125 31.214844 C 31.148438 31.378906 31.066406 31.574219 31.066406 31.804688 L 31.066406 33.472656 C 31.066406 33.699219 31.148438 33.898438 31.3125 34.058594 C 31.472656 34.222656 31.667969 34.304688 31.898438 34.304688 C 32.128906 34.304688 32.328125 34.222656 32.488281 34.058594 C 32.652344 33.898438 32.734375 33.699219 32.734375 33.472656 L 32.734375 31.804688 C 32.734375 31.574219 32.652344 31.378906 32.488281 31.214844 C 32.328125 31.050781 32.128906 30.972656 31.898438 30.972656 Z M 31.898438 30.972656 "/>
<path style=" stroke:none;fill-rule:nonzero;fill:rgb(100%,15.289307%,40.779114%);fill-opacity:1;" d="M 31.898438 35.972656 C 31.667969 35.972656 31.472656 36.050781 31.3125 36.214844 C 31.148438 36.378906 31.066406 36.574219 31.066406 36.804688 L 31.066406 38.472656 C 31.066406 38.699219 31.148438 38.898438 31.3125 39.058594 C 31.472656 39.222656 31.667969 39.304688 31.898438 39.304688 C 32.128906 39.304688 32.328125 39.222656 32.488281 39.058594 C 32.652344 38.898438 32.734375 38.699219 32.734375 38.472656 L 32.734375 36.804688 C 32.734375 36.574219 32.652344 36.378906 32.488281 36.214844 C 32.328125 36.050781 32.128906 35.972656 31.898438 35.972656 Z M 31.898438 35.972656 "/>
<path style=" stroke:none;fill-rule:nonzero;fill:rgb(100%,15.289307%,40.779114%);fill-opacity:1;" d="M 44.398438 26.804688 L 44.398438 28.472656 C 44.398438 28.699219 44.480469 28.898438 44.644531 29.058594 C 44.808594 29.222656 45.003906 29.304688 45.234375 29.304688 C 45.464844 29.304688 45.660156 29.222656 45.824219 29.058594 C 45.984375 28.898438 46.066406 28.699219 46.066406 28.472656 L 46.066406 26.804688 C 46.066406 26.574219 45.984375 26.378906 45.824219 26.214844 C 45.660156 26.050781 45.464844 25.972656 45.234375 25.972656 C 45.003906 25.972656 44.808594 26.050781 44.644531 26.214844 C 44.480469 26.378906 44.398438 26.574219 44.398438 26.804688 Z M 44.398438 26.804688 "/>
<path style=" stroke:none;fill-rule:nonzero;fill:rgb(100%,15.289307%,40.779114%);fill-opacity:1;" d="M 45.234375 30.972656 C 45.003906 30.972656 44.808594 31.050781 44.644531 31.214844 C 44.480469 31.378906 44.398438 31.574219 44.398438 31.804688 L 44.398438 33.472656 C 44.398438 33.699219 44.480469 33.898438 44.644531 34.058594 C 44.808594 34.222656 45.003906 34.304688 45.234375 34.304688 C 45.464844 34.304688 45.660156 34.222656 45.824219 34.058594 C 45.984375 33.898438 46.066406 33.699219 46.066406 33.472656 L 46.066406 31.804688 C 46.066406 31.574219 45.984375 31.378906 45.824219 31.214844 C 45.660156 31.050781 45.464844 30.972656 45.234375 30.972656 Z M 45.234375 30.972656 "/>
<path style=" stroke:none;fill-rule:nonzero;fill:rgb(100%,15.289307%,40.779114%);fill-opacity:1;" d="M 45.234375 35.972656 C 45.003906 35.972656 44.808594 36.050781 44.644531 36.214844 C 44.480469 36.378906 44.398438 36.574219 44.398438 36.804688 L 44.398438 38.472656 C 44.398438 38.699219 44.480469 38.898438 44.644531 39.058594 C 44.808594 39.222656 45.003906 39.304688 45.234375 39.304688 C 45.464844 39.304688 45.660156 39.222656 45.824219 39.058594 C 45.984375 38.898438 46.066406 38.699219 46.066406 38.472656 L 46.066406 36.804688 C 46.066406 36.574219 45.984375 36.378906 45.824219 36.214844 C 45.660156 36.050781 45.464844 35.972656 45.234375 35.972656 Z M 45.234375 35.972656 "/>
<g clip-path="url(#clip2)" clip-rule="nonzero">
<path style=" stroke:none;fill-rule:nonzero;fill:rgb(100%,15.289307%,40.779114%);fill-opacity:1;" d="M 50.722656 9.316406 C 50.5 8.519531 50.175781 7.769531 49.746094 7.058594 C 49.320312 6.351562 48.804688 5.710938 48.203125 5.144531 C 47.601562 4.574219 46.9375 4.09375 46.207031 3.707031 C 45.476562 3.316406 44.707031 3.035156 43.898438 2.855469 C 43.089844 2.671875 42.273438 2.605469 41.445312 2.648438 C 40.617188 2.6875 39.8125 2.839844 39.027344 3.101562 C 38.242188 3.359375 37.503906 3.722656 36.816406 4.183594 C 36.128906 4.640625 35.515625 5.1875 34.972656 5.8125 C 34.632812 5.503906 34.257812 5.238281 33.851562 5.019531 C 33.449219 4.796875 33.023438 4.625 32.578125 4.507812 C 32.128906 4.386719 31.675781 4.320312 31.214844 4.308594 C 30.753906 4.296875 30.296875 4.339844 29.847656 4.4375 C 29.394531 4.535156 28.960938 4.683594 28.546875 4.882812 C 28.128906 5.082031 27.742188 5.328125 27.386719 5.617188 C 27.027344 5.910156 26.710938 6.238281 26.429688 6.609375 C 26.152344 6.976562 25.917969 7.371094 25.734375 7.792969 C 25.296875 7.6875 24.851562 7.636719 24.398438 7.636719 C 23.710938 7.636719 23.042969 7.753906 22.398438 7.992188 C 21.753906 8.226562 21.164062 8.566406 20.640625 9.011719 C 20.113281 9.453125 19.679688 9.972656 19.335938 10.570312 C 18.996094 11.167969 18.765625 11.804688 18.648438 12.484375 C 18.535156 13.164062 18.539062 13.839844 18.660156 14.515625 C 18.785156 15.195312 19.019531 15.828125 19.367188 16.421875 C 19.714844 17.015625 20.15625 17.53125 20.6875 17.96875 C 21.21875 18.40625 21.808594 18.742188 22.457031 18.972656 C 22.671875 19.046875 22.886719 19.035156 23.09375 18.9375 C 23.300781 18.835938 23.441406 18.679688 23.519531 18.460938 C 23.597656 18.246094 23.585938 18.03125 23.484375 17.824219 C 23.386719 17.617188 23.226562 17.476562 23.011719 17.398438 C 22.75 17.308594 22.496094 17.191406 22.257812 17.050781 C 22.019531 16.910156 21.796875 16.746094 21.589844 16.558594 C 21.386719 16.371094 21.199219 16.167969 21.035156 15.945312 C 20.867188 15.722656 20.726562 15.484375 20.609375 15.234375 C 20.492188 14.980469 20.398438 14.71875 20.332031 14.449219 C 20.269531 14.179688 20.230469 13.90625 20.21875 13.628906 C 20.207031 13.351562 20.222656 13.078125 20.269531 12.800781 C 20.3125 12.527344 20.382812 12.261719 20.480469 12 C 20.578125 11.742188 20.699219 11.492188 20.847656 11.257812 C 20.996094 11.023438 21.164062 10.804688 21.355469 10.601562 C 21.546875 10.398438 21.753906 10.21875 21.980469 10.058594 C 22.207031 9.898438 22.449219 9.761719 22.703125 9.652344 C 22.957031 9.539062 23.21875 9.453125 23.492188 9.394531 C 23.761719 9.335938 24.039062 9.304688 24.316406 9.296875 C 24.59375 9.292969 24.867188 9.316406 25.140625 9.367188 C 25.414062 9.417969 25.679688 9.496094 25.9375 9.597656 C 26.046875 9.644531 26.164062 9.664062 26.28125 9.65625 C 26.398438 9.652344 26.511719 9.625 26.617188 9.570312 C 26.726562 9.519531 26.816406 9.445312 26.890625 9.351562 C 26.964844 9.261719 27.019531 9.15625 27.050781 9.042969 C 27.097656 8.867188 27.15625 8.695312 27.226562 8.53125 C 27.292969 8.363281 27.375 8.199219 27.464844 8.042969 C 27.554688 7.886719 27.65625 7.738281 27.765625 7.59375 C 27.878906 7.449219 27.996094 7.3125 28.125 7.183594 C 28.253906 7.058594 28.386719 6.9375 28.53125 6.828125 C 28.675781 6.71875 28.824219 6.617188 28.984375 6.527344 C 29.140625 6.433594 29.300781 6.355469 29.46875 6.285156 C 29.636719 6.214844 29.808594 6.15625 29.984375 6.109375 C 30.15625 6.0625 30.335938 6.027344 30.515625 6.003906 C 30.695312 5.980469 30.875 5.96875 31.054688 5.96875 C 31.238281 5.96875 31.417969 5.980469 31.597656 6.003906 C 31.777344 6.027344 31.953125 6.0625 32.128906 6.109375 C 32.304688 6.15625 32.476562 6.214844 32.644531 6.28125 C 32.808594 6.351562 32.972656 6.429688 33.128906 6.523438 C 33.285156 6.613281 33.4375 6.710938 33.582031 6.824219 C 33.726562 6.933594 33.859375 7.050781 33.988281 7.179688 C 33.589844 7.851562 33.285156 8.566406 33.074219 9.316406 C 32.535156 9.347656 32.003906 9.425781 31.484375 9.558594 C 30.960938 9.691406 30.457031 9.871094 29.96875 10.101562 C 29.484375 10.332031 29.023438 10.605469 28.589844 10.925781 C 28.15625 11.246094 27.757812 11.601562 27.390625 12 C 27.027344 12.394531 26.703125 12.824219 26.421875 13.28125 C 26.140625 13.742188 25.90625 14.222656 25.71875 14.726562 C 25.53125 15.230469 25.394531 15.75 25.304688 16.28125 C 25.21875 16.8125 25.179688 17.347656 25.199219 17.882812 C 25.214844 18.421875 25.28125 18.953125 25.398438 19.480469 C 25.519531 20.003906 25.6875 20.511719 25.90625 21.007812 C 26.121094 21.5 26.386719 21.964844 26.695312 22.40625 C 27 22.847656 27.347656 23.257812 27.738281 23.628906 C 28.125 24.003906 28.542969 24.339844 28.996094 24.632812 C 29.449219 24.925781 29.921875 25.171875 30.421875 25.371094 C 30.921875 25.570312 31.4375 25.722656 31.964844 25.824219 C 32.496094 25.925781 33.027344 25.972656 33.566406 25.972656 L 37.734375 25.972656 L 37.734375 26.804688 C 37.734375 27.035156 37.816406 27.230469 37.976562 27.394531 C 38.140625 27.554688 38.335938 27.636719 38.566406 27.636719 C 38.796875 27.636719 38.992188 27.554688 39.15625 27.394531 C 39.320312 27.230469 39.398438 27.035156 39.398438 26.804688 L 39.398438 25.972656 L 50.234375 25.972656 C 50.769531 25.972656 51.300781 25.921875 51.828125 25.816406 C 52.355469 25.714844 52.871094 25.5625 53.367188 25.359375 C 53.863281 25.160156 54.339844 24.914062 54.789062 24.617188 C 55.238281 24.324219 55.65625 23.992188 56.042969 23.617188 C 56.425781 23.242188 56.773438 22.835938 57.078125 22.394531 C 57.386719 21.953125 57.648438 21.488281 57.863281 20.996094 C 58.082031 20.503906 58.25 19.996094 58.367188 19.472656 C 58.484375 18.949219 58.550781 18.417969 58.566406 17.882812 C 58.585938 17.347656 58.546875 16.8125 58.460938 16.28125 C 58.375 15.753906 58.238281 15.238281 58.050781 14.734375 C 57.863281 14.230469 57.628906 13.75 57.347656 13.289062 C 57.066406 12.832031 56.746094 12.40625 56.382812 12.007812 C 56.019531 11.613281 55.625 11.253906 55.191406 10.9375 C 54.761719 10.617188 54.300781 10.34375 53.816406 10.113281 C 53.332031 9.878906 52.828125 9.699219 52.308594 9.566406 C 51.789062 9.433594 51.261719 9.351562 50.722656 9.316406 Z M 50.234375 24.304688 L 33.566406 24.304688 C 33.128906 24.304688 32.695312 24.261719 32.265625 24.175781 C 31.835938 24.089844 31.417969 23.960938 31.015625 23.792969 C 30.609375 23.625 30.226562 23.417969 29.863281 23.175781 C 29.5 22.929688 29.164062 22.652344 28.855469 22.34375 C 28.546875 22.03125 28.269531 21.695312 28.027344 21.332031 C 27.785156 20.964844 27.578125 20.582031 27.414062 20.175781 C 27.246094 19.773438 27.121094 19.355469 27.035156 18.925781 C 26.949219 18.496094 26.910156 18.0625 26.910156 17.625 C 26.910156 17.1875 26.953125 16.753906 27.039062 16.324219 C 27.128906 15.894531 27.253906 15.476562 27.421875 15.074219 C 27.589844 14.667969 27.796875 14.285156 28.042969 13.921875 C 28.285156 13.558594 28.5625 13.222656 28.875 12.914062 C 29.183594 12.605469 29.519531 12.328125 29.886719 12.085938 C 30.25 11.84375 30.636719 11.640625 31.039062 11.472656 C 31.445312 11.304688 31.863281 11.179688 32.292969 11.097656 C 32.722656 11.011719 33.15625 10.96875 33.59375 10.972656 C 33.605469 10.972656 33.695312 10.976562 33.710938 10.976562 C 33.910156 10.976562 34.085938 10.914062 34.242188 10.789062 C 34.398438 10.664062 34.496094 10.503906 34.542969 10.3125 C 34.628906 9.890625 34.75 9.480469 34.90625 9.078125 C 35.0625 8.679688 35.25 8.292969 35.472656 7.925781 C 35.691406 7.558594 35.945312 7.210938 36.226562 6.886719 C 36.507812 6.5625 36.8125 6.265625 37.144531 5.992188 C 37.480469 5.722656 37.832031 5.480469 38.207031 5.269531 C 38.578125 5.058594 38.96875 4.878906 39.375 4.734375 C 39.777344 4.589844 40.191406 4.480469 40.613281 4.410156 C 41.039062 4.335938 41.464844 4.300781 41.894531 4.300781 C 42.324219 4.300781 42.75 4.335938 43.171875 4.410156 C 43.597656 4.480469 44.011719 4.589844 44.414062 4.734375 C 44.820312 4.878906 45.207031 5.058594 45.582031 5.269531 C 45.957031 5.480469 46.308594 5.722656 46.640625 5.992188 C 46.976562 6.265625 47.28125 6.5625 47.5625 6.886719 C 47.84375 7.210938 48.09375 7.558594 48.316406 7.925781 C 48.539062 8.292969 48.726562 8.679688 48.882812 9.078125 C 49.039062 9.480469 49.160156 9.890625 49.246094 10.3125 C 49.289062 10.503906 49.390625 10.664062 49.546875 10.789062 C 49.703125 10.914062 49.878906 10.976562 50.078125 10.976562 L 50.234375 10.972656 C 50.671875 10.972656 51.105469 11.011719 51.535156 11.097656 C 51.964844 11.183594 52.378906 11.3125 52.785156 11.476562 C 53.1875 11.644531 53.574219 11.851562 53.9375 12.09375 C 54.300781 12.335938 54.636719 12.613281 54.949219 12.921875 C 55.257812 13.234375 55.535156 13.570312 55.777344 13.933594 C 56.019531 14.296875 56.226562 14.683594 56.390625 15.085938 C 56.558594 15.492188 56.6875 15.90625 56.773438 16.335938 C 56.855469 16.765625 56.898438 17.199219 56.898438 17.636719 C 56.898438 18.074219 56.855469 18.507812 56.773438 18.9375 C 56.6875 19.367188 56.558594 19.785156 56.390625 20.1875 C 56.226562 20.59375 56.019531 20.976562 55.777344 21.339844 C 55.535156 21.707031 55.257812 22.042969 54.949219 22.351562 C 54.636719 22.660156 54.300781 22.9375 53.9375 23.179688 C 53.574219 23.421875 53.1875 23.628906 52.785156 23.796875 C 52.378906 23.964844 51.964844 24.089844 51.535156 24.175781 C 51.105469 24.261719 50.671875 24.304688 50.234375 24.304688 Z M 50.234375 24.304688 "/>
</g>
</g>
</svg>
