<?xml version="1.0" encoding="UTF-8"?>
<svg xmlns="http://www.w3.org/2000/svg" xmlns:xlink="http://www.w3.org/1999/xlink" width="75pt" height="44.999999pt" viewBox="0 0 75 44.999999" version="1.2">
<defs>
<clipPath id="clip1">
  <path d="M 56 13 L 60.75 13 L 60.75 15 L 56 15 Z M 56 13 "/>
</clipPath>
<clipPath id="clip2">
  <path d="M 47 1.03125 L 49 1.03125 L 49 6 L 47 6 Z M 47 1.03125 "/>
</clipPath>
<clipPath id="clip3">
  <path d="M 31 37 L 36 37 L 36 43.78125 L 31 43.78125 Z M 31 37 "/>
</clipPath>
<clipPath id="clip4">
  <path d="M 38 37 L 44 37 L 44 43.78125 L 38 43.78125 Z M 38 37 "/>
</clipPath>
</defs>
<g id="surface1">
<path style=" stroke:none;fill-rule:nonzero;fill:rgb(1.959229%,87.838745%,91.369629%);fill-opacity:1;" d="M 55.746094 13.804688 C 55.746094 9.53125 52.289062 6.054688 48.035156 6.054688 C 44.289062 6.054688 41.125 8.714844 40.449219 12.402344 C 39.082031 11.070312 37.226562 10.277344 35.257812 10.277344 C 31.359375 10.277344 28.148438 13.28125 27.800781 17.101562 C 23.988281 17.457031 21 20.675781 21 24.59375 C 21 28.742188 24.355469 32.117188 28.492188 32.117188 L 45.925781 32.117188 C 50.023438 32.082031 53.363281 28.710938 53.363281 24.59375 C 53.363281 23.058594 52.890625 21.609375 52.074219 20.398438 C 54.375 18.972656 55.746094 16.507812 55.746094 13.804688 Z M 41.632812 13.804688 C 41.632812 13.710938 41.632812 13.617188 41.640625 13.507812 C 41.792969 10.070312 44.601562 7.378906 48.035156 7.378906 C 51.5625 7.378906 54.433594 10.261719 54.433594 13.804688 C 54.433594 16.058594 53.230469 18.175781 51.292969 19.332031 C 51.277344 19.34375 51.265625 19.355469 51.25 19.367188 C 50.445312 18.53125 49.453125 17.875 48.324219 17.484375 C 47.953125 15.214844 45.992188 13.507812 43.65625 13.507812 C 42.96875 13.507812 42.304688 13.660156 41.683594 13.945312 C 41.667969 13.914062 41.644531 13.886719 41.625 13.855469 C 41.628906 13.835938 41.632812 13.820312 41.632812 13.804688 Z M 45.921875 30.660156 L 28.492188 30.660156 C 28.484375 30.660156 28.484375 30.660156 28.480469 30.660156 C 25.152344 30.65625 22.449219 27.933594 22.449219 24.59375 C 22.449219 21.246094 25.160156 18.523438 28.492188 18.523438 C 29.292969 18.523438 30.070312 18.675781 30.804688 18.984375 C 31.175781 19.136719 31.601562 18.964844 31.75 18.589844 C 31.90625 18.222656 31.730469 17.796875 31.359375 17.640625 C 30.6875 17.359375 29.976562 17.183594 29.253906 17.105469 C 29.597656 14.085938 32.15625 11.734375 35.257812 11.734375 C 37.410156 11.734375 39.402344 12.898438 40.472656 14.746094 C 40.003906 15.171875 39.621094 15.695312 39.351562 16.277344 C 39.1875 16.644531 39.347656 17.078125 39.710938 17.242188 C 40.070312 17.410156 40.5 17.25 40.671875 16.886719 C 40.757812 16.6875 40.867188 16.503906 41 16.332031 C 41.175781 16.074219 41.398438 15.84375 41.652344 15.652344 C 41.703125 15.613281 41.753906 15.574219 41.804688 15.539062 C 42.355469 15.160156 42.992188 14.964844 43.65625 14.964844 C 45.398438 14.964844 46.835938 16.332031 46.933594 18.078125 C 46.953125 18.390625 47.164062 18.660156 47.464844 18.742188 C 48.4375 19.007812 49.300781 19.507812 50.003906 20.171875 C 50.226562 20.378906 50.429688 20.601562 50.617188 20.84375 C 51.433594 21.886719 51.914062 23.195312 51.914062 24.59375 C 51.914062 27.910156 49.222656 30.636719 45.921875 30.660156 Z M 45.921875 30.660156 "/>
<g clip-path="url(#clip1)" clip-rule="nonzero">
<path style=" stroke:none;fill-rule:nonzero;fill:rgb(1.959229%,87.838745%,91.369629%);fill-opacity:1;" d="M 60.097656 13.144531 L 57.253906 13.144531 C 56.890625 13.144531 56.59375 13.441406 56.59375 13.804688 C 56.59375 14.167969 56.890625 14.464844 57.253906 14.464844 L 60.097656 14.464844 C 60.460938 14.464844 60.753906 14.167969 60.753906 13.804688 C 60.753906 13.441406 60.460938 13.144531 60.097656 13.144531 Z M 60.097656 13.144531 "/>
</g>
<g clip-path="url(#clip2)" clip-rule="nonzero">
<path style=" stroke:none;fill-rule:nonzero;fill:rgb(1.959229%,87.838745%,91.369629%);fill-opacity:1;" d="M 48.035156 5.207031 C 48.398438 5.207031 48.691406 4.910156 48.691406 4.546875 L 48.691406 1.691406 C 48.691406 1.328125 48.398438 1.03125 48.035156 1.03125 C 47.671875 1.03125 47.375 1.328125 47.375 1.691406 L 47.375 4.546875 C 47.375 4.910156 47.671875 5.207031 48.035156 5.207031 Z M 48.035156 5.207031 "/>
</g>
<path style=" stroke:none;fill-rule:nonzero;fill:rgb(1.959229%,87.838745%,91.369629%);fill-opacity:1;" d="M 54.550781 7.917969 C 54.726562 7.917969 54.894531 7.851562 55.015625 7.726562 L 57.027344 5.703125 C 57.152344 5.578125 57.222656 5.414062 57.222656 5.238281 C 57.222656 5.0625 57.152344 4.894531 57.027344 4.769531 C 56.78125 4.523438 56.347656 4.523438 56.101562 4.769531 L 54.089844 6.792969 C 53.832031 7.046875 53.832031 7.46875 54.089844 7.726562 C 54.210938 7.851562 54.378906 7.917969 54.550781 7.917969 Z M 54.550781 7.917969 "/>
<path style=" stroke:none;fill-rule:nonzero;fill:rgb(1.959229%,87.838745%,91.369629%);fill-opacity:1;" d="M 55.015625 19.882812 C 54.769531 19.632812 54.335938 19.632812 54.089844 19.882812 C 53.964844 20.007812 53.894531 20.171875 53.894531 20.347656 C 53.894531 20.527344 53.964844 20.691406 54.089844 20.816406 L 56.097656 22.835938 C 56.222656 22.960938 56.386719 23.03125 56.5625 23.03125 C 56.742188 23.03125 56.90625 22.960938 57.027344 22.835938 C 57.152344 22.710938 57.222656 22.546875 57.222656 22.371094 C 57.222656 22.191406 57.152344 22.027344 57.027344 21.902344 Z M 55.015625 19.882812 "/>
<path style=" stroke:none;fill-rule:nonzero;fill:rgb(1.959229%,87.838745%,91.369629%);fill-opacity:1;" d="M 41.050781 7.726562 C 41.175781 7.851562 41.339844 7.917969 41.515625 7.917969 C 41.691406 7.917969 41.855469 7.851562 41.980469 7.726562 C 42.105469 7.601562 42.171875 7.433594 42.171875 7.257812 C 42.171875 7.082031 42.105469 6.917969 41.980469 6.792969 L 39.96875 4.769531 C 39.71875 4.523438 39.289062 4.523438 39.039062 4.769531 C 38.914062 4.894531 38.847656 5.0625 38.847656 5.238281 C 38.847656 5.414062 38.914062 5.578125 39.039062 5.703125 Z M 41.050781 7.726562 "/>
<path style=" stroke:none;fill-rule:nonzero;fill:rgb(1.959229%,87.838745%,91.369629%);fill-opacity:1;" d="M 29.394531 38.832031 C 28.148438 38.832031 27.132812 37.8125 27.132812 36.558594 C 27.132812 35.453125 28.707031 33.476562 29.023438 33.09375 C 29.207031 32.867188 29.585938 32.867188 29.769531 33.09375 C 30.085938 33.476562 31.660156 35.453125 31.660156 36.558594 C 31.660156 37.8125 30.644531 38.832031 29.394531 38.832031 Z M 29.398438 34.183594 C 28.769531 35.019531 28.097656 36.09375 28.097656 36.558594 C 28.097656 37.277344 28.679688 37.863281 29.394531 37.863281 C 30.113281 37.863281 30.695312 37.277344 30.695312 36.558594 C 30.695312 36.09375 30.023438 35.019531 29.398438 34.183594 Z M 29.398438 34.183594 "/>
<path style=" stroke:none;fill-rule:nonzero;fill:rgb(1.959229%,87.838745%,91.369629%);fill-opacity:1;" d="M 37.179688 38.832031 C 35.929688 38.832031 34.914062 37.8125 34.914062 36.558594 C 34.914062 35.453125 36.492188 33.476562 36.804688 33.09375 C 36.988281 32.867188 37.367188 32.867188 37.550781 33.09375 C 37.867188 33.476562 39.445312 35.453125 39.445312 36.558594 C 39.445312 37.8125 38.425781 38.832031 37.179688 38.832031 Z M 37.179688 34.183594 C 36.554688 35.019531 35.878906 36.09375 35.878906 36.558594 C 35.878906 37.277344 36.460938 37.863281 37.179688 37.863281 C 37.894531 37.863281 38.476562 37.277344 38.476562 36.558594 C 38.476562 36.09375 37.804688 35.019531 37.179688 34.183594 Z M 37.179688 34.183594 "/>
<path style=" stroke:none;fill-rule:nonzero;fill:rgb(1.959229%,87.838745%,91.369629%);fill-opacity:1;" d="M 44.960938 38.832031 C 43.710938 38.832031 42.695312 37.8125 42.695312 36.558594 C 42.695312 35.453125 44.273438 33.476562 44.589844 33.09375 C 44.773438 32.867188 45.152344 32.867188 45.332031 33.09375 C 45.648438 33.476562 47.226562 35.453125 47.226562 36.558594 C 47.226562 37.8125 46.210938 38.832031 44.960938 38.832031 Z M 44.960938 34.183594 C 44.335938 35.019531 43.664062 36.09375 43.664062 36.558594 C 43.664062 37.277344 44.246094 37.863281 44.960938 37.863281 C 45.675781 37.863281 46.261719 37.277344 46.261719 36.558594 C 46.261719 36.09375 45.585938 35.019531 44.960938 34.183594 Z M 44.960938 34.183594 "/>
<g clip-path="url(#clip3)" clip-rule="nonzero">
<path style=" stroke:none;fill-rule:nonzero;fill:rgb(1.959229%,87.838745%,91.369629%);fill-opacity:1;" d="M 33.289062 43.78125 C 32.039062 43.78125 31.023438 42.757812 31.023438 41.503906 C 31.023438 40.398438 32.597656 38.425781 32.914062 38.039062 C 33.097656 37.816406 33.476562 37.816406 33.660156 38.039062 C 33.976562 38.425781 35.554688 40.398438 35.554688 41.503906 C 35.550781 42.757812 34.535156 43.78125 33.289062 43.78125 Z M 33.289062 39.132812 C 32.660156 39.96875 31.988281 41.039062 31.988281 41.503906 C 31.988281 42.226562 32.570312 42.808594 33.289062 42.808594 C 34.003906 42.808594 34.585938 42.226562 34.585938 41.503906 C 34.585938 41.039062 33.914062 39.96875 33.289062 39.132812 Z M 33.289062 39.132812 "/>
</g>
<g clip-path="url(#clip4)" clip-rule="nonzero">
<path style=" stroke:none;fill-rule:nonzero;fill:rgb(1.959229%,87.838745%,91.369629%);fill-opacity:1;" d="M 41.070312 43.78125 C 39.820312 43.78125 38.804688 42.757812 38.804688 41.503906 C 38.804688 40.398438 40.382812 38.425781 40.699219 38.039062 C 40.882812 37.816406 41.257812 37.816406 41.441406 38.039062 C 41.757812 38.425781 43.335938 40.398438 43.335938 41.503906 C 43.335938 42.757812 42.320312 43.78125 41.070312 43.78125 Z M 41.070312 39.132812 C 40.445312 39.96875 39.769531 41.039062 39.769531 41.503906 C 39.769531 42.226562 40.355469 42.808594 41.070312 42.808594 C 41.785156 42.808594 42.371094 42.226562 42.371094 41.503906 C 42.371094 41.039062 41.695312 39.96875 41.070312 39.132812 Z M 41.070312 39.132812 "/>
</g>
</g>
</svg>
