<?xml version="1.0" encoding="UTF-8"?>
<svg xmlns="http://www.w3.org/2000/svg" xmlns:xlink="http://www.w3.org/1999/xlink" width="75pt" height="44.999999pt" viewBox="0 0 75 44.999999" version="1.2">
<defs>
<clipPath id="clip1">
  <path d="M 43 2 L 64 2 L 64 21 L 43 21 Z M 43 2 "/>
</clipPath>
<clipPath id="clip2">
  <path d="M 53.445312 -2.199219 L 68.773438 9.859375 L 56.25 25.773438 L 40.925781 13.714844 Z M 53.445312 -2.199219 "/>
</clipPath>
<clipPath id="clip3">
  <path d="M 53.445312 -2.199219 L 68.773438 9.859375 L 56.25 25.773438 L 40.925781 13.714844 Z M 53.445312 -2.199219 "/>
</clipPath>
<clipPath id="clip4">
  <path d="M 13 3.628906 L 56.476562 3.628906 L 56.476562 36 L 13 36 Z M 13 3.628906 "/>
</clipPath>
<clipPath id="clip5">
  <path d="M 36 34 L 42 34 L 42 41.128906 L 36 41.128906 Z M 36 34 "/>
</clipPath>
</defs>
<g id="surface1">
<g clip-path="url(#clip1)" clip-rule="nonzero">
<g clip-path="url(#clip2)" clip-rule="nonzero">
<g clip-path="url(#clip3)" clip-rule="nonzero">
<path style=" stroke:none;fill-rule:nonzero;fill:rgb(59.21936%,77.249146%,90.589905%);fill-opacity:1;" d="M 57.523438 19.03125 C 54.34375 20.585938 50.488281 20.167969 47.695312 17.972656 C 46.597656 17.109375 45.726562 16.03125 45.105469 14.769531 C 44.835938 14.222656 44.621094 13.65625 44.464844 13.074219 C 45.9375 14.222656 47.695312 14.945312 49.554688 15.164062 C 51.472656 15.390625 53.40625 15.058594 55.148438 14.207031 C 58.65625 12.492188 60.816406 8.9375 60.785156 5.105469 C 61.152344 5.582031 61.46875 6.097656 61.738281 6.644531 C 64 11.234375 62.109375 16.792969 57.523438 19.03125 Z M 62.484375 6.28125 C 61.996094 5.285156 61.355469 4.386719 60.582031 3.605469 L 59.710938 2.730469 L 59.875 3.953125 C 60.398438 7.894531 58.351562 11.71875 54.777344 13.460938 C 51.601562 15.015625 47.742188 14.597656 44.953125 12.402344 C 44.65625 12.171875 44.375 11.917969 44.109375 11.652344 L 43.238281 10.777344 L 43.402344 11.996094 C 43.546875 13.082031 43.871094 14.140625 44.359375 15.132812 C 45.035156 16.507812 45.988281 17.683594 47.183594 18.625 C 48.660156 19.785156 50.429688 20.515625 52.296875 20.734375 C 54.214844 20.960938 56.148438 20.628906 57.890625 19.777344 C 62.886719 17.339844 64.949219 11.28125 62.484375 6.28125 "/>
</g>
</g>
</g>
<path style=" stroke:none;fill-rule:nonzero;fill:rgb(100%,100%,100%);fill-opacity:1;" d="M 42.15625 14.011719 C 41.472656 14.011719 40.792969 14.078125 40.121094 14.210938 C 39.449219 14.34375 38.796875 14.542969 38.164062 14.804688 C 37.53125 15.066406 36.929688 15.386719 36.363281 15.769531 C 35.792969 16.148438 35.265625 16.582031 34.78125 17.066406 C 34.296875 17.550781 33.863281 18.078125 33.484375 18.644531 C 33.101562 19.214844 32.78125 19.816406 32.519531 20.449219 C 32.257812 21.082031 32.058594 21.734375 31.925781 22.40625 C 31.792969 23.078125 31.726562 23.757812 31.726562 24.441406 C 31.726562 25.128906 31.792969 25.804688 31.925781 26.476562 C 32.058594 27.148438 32.257812 27.800781 32.519531 28.433594 C 32.78125 29.066406 33.101562 29.667969 33.484375 30.238281 C 33.863281 30.808594 34.296875 31.335938 34.78125 31.820312 C 35.265625 32.304688 35.792969 32.734375 36.363281 33.117188 C 36.929688 33.496094 37.53125 33.820312 38.164062 34.082031 C 38.796875 34.34375 39.449219 34.539062 40.121094 34.675781 C 40.792969 34.808594 41.472656 34.875 42.15625 34.875 C 42.84375 34.875 43.519531 34.808594 44.191406 34.675781 C 44.863281 34.539062 45.515625 34.34375 46.148438 34.082031 C 46.78125 33.820312 47.382812 33.496094 47.953125 33.117188 C 48.523438 32.734375 49.050781 32.304688 49.535156 31.820312 C 50.019531 31.335938 50.453125 30.808594 50.832031 30.238281 C 51.210938 29.667969 51.535156 29.066406 51.796875 28.433594 C 52.058594 27.800781 52.257812 27.148438 52.390625 26.476562 C 52.523438 25.804688 52.589844 25.128906 52.589844 24.441406 C 52.589844 23.757812 52.523438 23.078125 52.390625 22.40625 C 52.257812 21.734375 52.058594 21.082031 51.796875 20.449219 C 51.535156 19.816406 51.210938 19.214844 50.832031 18.644531 C 50.453125 18.078125 50.019531 17.550781 49.535156 17.066406 C 49.050781 16.582031 48.523438 16.148438 47.953125 15.769531 C 47.382812 15.386719 46.78125 15.066406 46.148438 14.804688 C 45.515625 14.542969 44.863281 14.34375 44.191406 14.210938 C 43.519531 14.078125 42.84375 14.011719 42.15625 14.011719 Z M 42.15625 14.011719 "/>
<g clip-path="url(#clip4)" clip-rule="nonzero">
<path style=" stroke:none;fill-rule:nonzero;fill:rgb(59.21936%,77.249146%,90.589905%);fill-opacity:1;" d="M 51.546875 31.40625 L 51.546875 28.792969 L 47.832031 31 C 47.644531 31.113281 47.472656 31.25 47.324219 31.40625 L 36.128906 31.40625 L 36.128906 28.792969 L 32.414062 31 C 32.222656 31.113281 32.054688 31.25 31.902344 31.40625 L 31.222656 31.40625 C 29.289062 31.40625 27.71875 29.851562 27.71875 27.9375 C 27.71875 26.238281 28.996094 24.765625 30.691406 24.511719 L 31.386719 24.402344 L 31.277344 23.714844 C 31.242188 23.472656 31.222656 23.269531 31.222656 23.074219 C 31.222656 20.777344 33.109375 18.90625 35.425781 18.90625 C 37.746094 18.90625 39.632812 20.777344 39.632812 23.074219 L 41.035156 23.074219 C 41.035156 21.472656 40.34375 20.027344 39.242188 19.015625 C 40.398438 17.230469 42.375 16.128906 44.539062 16.128906 C 48.015625 16.128906 50.847656 18.933594 50.847656 22.378906 C 50.847656 22.636719 50.828125 22.886719 50.796875 23.136719 C 48.449219 23.496094 46.640625 25.507812 46.640625 27.9375 L 48.042969 27.9375 C 48.042969 26.019531 49.613281 24.464844 51.546875 24.464844 C 53.480469 24.464844 55.050781 26.019531 55.050781 27.9375 C 55.050781 29.851562 53.480469 31.40625 51.546875 31.40625 Z M 50.144531 33.144531 C 50.144531 33.71875 49.675781 34.1875 49.09375 34.1875 C 48.515625 34.1875 48.042969 33.71875 48.042969 33.085938 C 48.042969 32.722656 48.242188 32.378906 48.550781 32.191406 L 50.144531 31.246094 Z M 34.726562 33.144531 C 34.726562 33.71875 34.257812 34.1875 33.675781 34.1875 C 33.09375 34.1875 32.625 33.71875 32.625 33.085938 C 32.625 32.722656 32.820312 32.378906 33.132812 32.191406 L 34.726562 31.246094 Z M 17.90625 20.296875 C 15.972656 20.296875 14.402344 18.738281 14.402344 16.824219 C 14.402344 14.910156 15.972656 13.351562 17.90625 13.351562 C 19.839844 13.351562 21.410156 14.910156 21.410156 16.824219 L 22.8125 16.824219 C 22.8125 14.398438 21.003906 12.386719 18.65625 12.027344 C 18.625 11.777344 18.605469 11.523438 18.605469 11.269531 C 18.605469 7.820312 21.4375 5.019531 24.914062 5.019531 C 27.082031 5.019531 29.058594 6.117188 30.210938 7.902344 C 29.113281 8.917969 28.417969 10.359375 28.417969 11.964844 L 29.820312 11.964844 C 29.820312 9.667969 31.707031 7.796875 34.027344 7.796875 C 36.34375 7.796875 38.230469 9.667969 38.230469 11.964844 C 38.230469 12.160156 38.210938 12.363281 38.175781 12.605469 L 38.066406 13.292969 L 38.761719 13.398438 C 39.949219 13.578125 40.9375 14.335938 41.421875 15.394531 C 40.078125 15.980469 38.929688 16.949219 38.105469 18.195312 C 37.308594 17.761719 36.398438 17.519531 35.425781 17.519531 C 33.359375 17.519531 31.550781 18.640625 30.578125 20.296875 Z M 52.207031 23.125 C 52.230469 22.875 52.25 22.628906 52.25 22.378906 C 52.25 18.167969 48.789062 14.742188 44.539062 14.742188 C 43.929688 14.742188 43.335938 14.824219 42.757812 14.960938 C 42.195312 13.609375 41.046875 12.585938 39.628906 12.167969 C 39.628906 12.097656 39.632812 12.03125 39.632812 11.964844 C 39.632812 8.902344 37.117188 6.40625 34.027344 6.40625 C 33.058594 6.40625 32.144531 6.652344 31.347656 7.082031 C 29.929688 4.941406 27.535156 3.628906 24.914062 3.628906 C 20.664062 3.628906 17.207031 7.054688 17.207031 11.269531 C 17.207031 11.519531 17.222656 11.765625 17.246094 12.011719 C 14.855469 12.332031 13 14.367188 13 16.824219 C 13 19.503906 15.203125 21.6875 17.90625 21.6875 L 30.003906 21.6875 C 29.890625 22.128906 29.820312 22.59375 29.820312 23.074219 C 29.820312 23.144531 29.824219 23.210938 29.828125 23.28125 C 27.785156 23.886719 26.316406 25.78125 26.316406 27.9375 C 26.316406 30.617188 28.519531 32.796875 31.222656 32.796875 L 31.246094 32.796875 C 31.230469 32.910156 31.222656 33.027344 31.222656 33.144531 C 31.222656 34.484375 32.324219 35.574219 33.675781 35.574219 C 35.027344 35.574219 36.128906 34.484375 36.128906 33.144531 L 36.128906 32.796875 L 46.664062 32.796875 C 46.648438 32.910156 46.640625 33.027344 46.640625 33.144531 C 46.640625 34.484375 47.742188 35.574219 49.09375 35.574219 C 50.445312 35.574219 51.546875 34.484375 51.546875 33.144531 L 51.546875 32.796875 C 54.253906 32.796875 56.453125 30.617188 56.453125 27.9375 C 56.453125 25.476562 54.601562 23.445312 52.207031 23.125 "/>
</g>
<g clip-path="url(#clip5)" clip-rule="nonzero">
<path style=" stroke:none;fill-rule:nonzero;fill:rgb(59.21936%,77.249146%,90.589905%);fill-opacity:1;" d="M 38.742188 37.746094 L 40.332031 36.800781 L 40.332031 38.699219 C 40.332031 39.273438 39.863281 39.742188 39.28125 39.742188 C 38.703125 39.742188 38.230469 39.273438 38.230469 38.640625 C 38.230469 38.277344 38.429688 37.933594 38.742188 37.746094 Z M 36.828125 38.699219 C 36.828125 40.039062 37.929688 41.128906 39.28125 41.128906 C 40.636719 41.128906 41.734375 40.039062 41.734375 38.699219 L 41.734375 34.347656 L 38.019531 36.558594 C 37.285156 36.992188 36.828125 37.792969 36.828125 38.699219 "/>
</g>
<path style=" stroke:none;fill-rule:nonzero;fill:rgb(59.21936%,77.249146%,90.589905%);fill-opacity:1;" d="M 14.914062 25.941406 L 16.503906 24.996094 L 16.503906 26.894531 C 16.503906 27.46875 16.035156 27.9375 15.453125 27.9375 C 14.871094 27.9375 14.402344 27.46875 14.402344 26.835938 C 14.402344 26.472656 14.597656 26.128906 14.914062 25.941406 Z M 13 26.894531 C 13 28.234375 14.101562 29.324219 15.453125 29.324219 C 16.804688 29.324219 17.90625 28.234375 17.90625 26.894531 L 17.90625 22.542969 L 14.191406 24.75 C 13.457031 25.1875 13 25.988281 13 26.894531 "/>
<path style=" stroke:none;fill-rule:nonzero;fill:rgb(59.21936%,77.249146%,90.589905%);fill-opacity:1;" d="M 20.519531 34.277344 L 22.109375 33.328125 L 22.109375 35.226562 C 22.109375 35.800781 21.640625 36.269531 21.058594 36.269531 C 20.480469 36.269531 20.007812 35.800781 20.007812 35.167969 C 20.007812 34.804688 20.207031 34.460938 20.519531 34.277344 Z M 18.605469 35.226562 C 18.605469 36.566406 19.707031 37.65625 21.058594 37.65625 C 22.414062 37.65625 23.511719 36.566406 23.511719 35.226562 L 23.511719 30.875 L 19.796875 33.085938 C 19.0625 33.519531 18.605469 34.320312 18.605469 35.226562 "/>
</g>
</svg>
