<?xml version="1.0" encoding="UTF-8"?>
<svg xmlns="http://www.w3.org/2000/svg" xmlns:xlink="http://www.w3.org/1999/xlink" width="75pt" height="44.999999pt" viewBox="0 0 75 44.999999" version="1.2">
<defs>
<clipPath id="clip1">
  <path d="M 17.585938 2.585938 L 57.335938 2.585938 L 57.335938 42.335938 L 17.585938 42.335938 Z M 17.585938 2.585938 "/>
</clipPath>
</defs>
<g id="surface1">
<g clip-path="url(#clip1)" clip-rule="nonzero">
<path style=" stroke:none;fill-rule:nonzero;fill:rgb(81.17981%,93.328857%,81.959534%);fill-opacity:1;" d="M 56.363281 21.496094 L 53.691406 21.496094 L 55.191406 19.746094 C 55.53125 19.351562 55.484375 18.753906 55.089844 18.414062 C 54.691406 18.074219 54.09375 18.121094 53.753906 18.515625 L 51.199219 21.496094 L 48.960938 21.496094 L 50.460938 19.746094 C 50.800781 19.351562 50.753906 18.753906 50.359375 18.414062 C 49.960938 18.074219 49.363281 18.121094 49.023438 18.515625 L 46.46875 21.496094 L 39.726562 21.496094 L 44.496094 16.730469 L 48.40625 17.03125 C 48.433594 17.035156 48.457031 17.035156 48.480469 17.035156 C 48.972656 17.035156 49.386719 16.65625 49.425781 16.160156 C 49.464844 15.640625 49.074219 15.183594 48.554688 15.144531 L 46.253906 14.96875 L 47.835938 13.382812 L 51.753906 13.6875 C 51.777344 13.6875 51.800781 13.6875 51.828125 13.6875 C 52.316406 13.6875 52.730469 13.3125 52.769531 12.816406 C 52.808594 12.292969 52.417969 11.839844 51.898438 11.800781 L 49.601562 11.621094 L 51.492188 9.730469 C 51.859375 9.363281 51.859375 8.761719 51.492188 8.394531 C 51.121094 8.023438 50.523438 8.023438 50.152344 8.394531 L 48.261719 10.285156 L 48.085938 7.988281 C 48.042969 7.46875 47.597656 7.074219 47.070312 7.117188 C 46.550781 7.15625 46.160156 7.613281 46.199219 8.132812 L 46.5 12.046875 L 44.917969 13.628906 L 44.742188 11.332031 C 44.703125 10.808594 44.234375 10.421875 43.726562 10.460938 C 43.203125 10.5 42.816406 10.957031 42.855469 11.476562 L 43.15625 15.390625 L 38.386719 20.160156 L 38.386719 13.417969 L 41.371094 10.863281 C 41.765625 10.519531 41.8125 9.925781 41.472656 9.527344 C 41.132812 9.132812 40.535156 9.085938 40.140625 9.425781 L 38.386719 10.925781 L 38.386719 8.6875 L 41.371094 6.132812 C 41.765625 5.792969 41.8125 5.195312 41.472656 4.796875 C 41.132812 4.398438 40.535156 4.355469 40.140625 4.695312 L 38.386719 6.195312 L 38.386719 3.519531 C 38.386719 3 37.964844 2.574219 37.441406 2.574219 C 36.921875 2.574219 36.496094 3 36.496094 3.519531 L 36.496094 6.195312 L 34.746094 4.695312 C 34.351562 4.355469 33.753906 4.402344 33.414062 4.796875 C 33.074219 5.195312 33.117188 5.792969 33.515625 6.132812 L 36.496094 8.6875 L 36.496094 10.925781 L 34.746094 9.425781 C 34.351562 9.085938 33.753906 9.132812 33.414062 9.527344 C 33.074219 9.925781 33.117188 10.519531 33.515625 10.863281 L 36.496094 13.417969 L 36.496094 20.160156 L 31.730469 15.390625 L 32.03125 11.476562 C 32.070312 10.957031 31.679688 10.5 31.160156 10.460938 C 30.640625 10.417969 30.183594 10.808594 30.144531 11.332031 L 29.96875 13.628906 L 28.382812 12.046875 L 28.6875 8.132812 C 28.726562 7.613281 28.335938 7.15625 27.816406 7.117188 C 27.296875 7.070312 26.839844 7.46875 26.800781 7.988281 L 26.621094 10.285156 L 24.730469 8.394531 C 24.363281 8.023438 23.761719 8.023438 23.394531 8.394531 C 23.023438 8.761719 23.023438 9.363281 23.394531 9.730469 L 25.285156 11.621094 L 22.988281 11.800781 C 22.46875 11.839844 22.074219 12.292969 22.117188 12.816406 C 22.15625 13.3125 22.570312 13.6875 23.058594 13.6875 C 23.082031 13.6875 23.109375 13.6875 23.132812 13.6875 L 27.046875 13.382812 L 28.628906 14.96875 L 26.332031 15.144531 C 25.808594 15.183594 25.421875 15.640625 25.460938 16.160156 C 25.5 16.65625 25.914062 17.035156 26.402344 17.035156 C 26.429688 17.035156 26.453125 17.035156 26.476562 17.03125 L 30.390625 16.730469 L 35.160156 21.496094 L 28.417969 21.496094 L 25.863281 18.515625 C 25.519531 18.117188 24.921875 18.074219 24.527344 18.414062 C 24.132812 18.753906 24.085938 19.351562 24.425781 19.746094 L 25.925781 21.496094 L 23.6875 21.496094 L 21.132812 18.515625 C 20.789062 18.117188 20.195312 18.074219 19.796875 18.414062 C 19.398438 18.753906 19.355469 19.351562 19.695312 19.746094 L 21.195312 21.496094 L 18.519531 21.496094 C 18 21.496094 17.574219 21.921875 17.574219 22.441406 C 17.574219 22.964844 18 23.386719 18.519531 23.386719 L 21.195312 23.386719 L 19.695312 25.140625 C 19.355469 25.535156 19.398438 26.132812 19.796875 26.472656 C 19.976562 26.625 20.195312 26.699219 20.414062 26.699219 C 20.679688 26.699219 20.945312 26.589844 21.132812 26.371094 L 23.6875 23.386719 L 25.925781 23.386719 L 24.425781 25.140625 C 24.085938 25.535156 24.132812 26.132812 24.527344 26.472656 C 24.707031 26.625 24.925781 26.699219 25.144531 26.699219 C 25.410156 26.699219 25.675781 26.589844 25.863281 26.371094 L 28.417969 23.386719 L 35.160156 23.386719 L 30.390625 28.15625 L 26.476562 27.855469 C 25.957031 27.8125 25.5 28.203125 25.460938 28.726562 C 25.421875 29.246094 25.808594 29.703125 26.332031 29.742188 L 28.628906 29.917969 L 27.046875 31.5 L 23.132812 31.199219 C 22.617188 31.15625 22.15625 31.550781 22.117188 32.070312 C 22.074219 32.59375 22.46875 33.046875 22.988281 33.085938 L 25.285156 33.261719 L 23.394531 35.152344 C 23.023438 35.523438 23.023438 36.121094 23.394531 36.492188 C 23.578125 36.675781 23.820312 36.769531 24.0625 36.769531 C 24.304688 36.769531 24.546875 36.675781 24.730469 36.492188 L 26.621094 34.601562 L 26.800781 36.898438 C 26.835938 37.394531 27.25 37.773438 27.742188 37.773438 C 27.765625 37.773438 27.792969 37.769531 27.816406 37.769531 C 28.335938 37.730469 28.726562 37.273438 28.6875 36.753906 L 28.382812 32.835938 L 29.96875 31.253906 L 30.144531 33.554688 C 30.183594 34.050781 30.597656 34.425781 31.085938 34.425781 C 31.109375 34.425781 31.136719 34.425781 31.160156 34.425781 C 31.679688 34.382812 32.070312 33.929688 32.03125 33.40625 L 31.730469 29.496094 L 36.496094 24.726562 L 36.496094 31.46875 L 33.515625 34.023438 C 33.117188 34.363281 33.074219 34.960938 33.414062 35.359375 C 33.753906 35.753906 34.351562 35.800781 34.746094 35.460938 L 36.496094 33.960938 L 36.496094 36.199219 L 33.515625 38.753906 C 33.117188 39.09375 33.074219 39.691406 33.414062 40.089844 C 33.753906 40.484375 34.351562 40.53125 34.746094 40.191406 L 36.496094 38.691406 L 36.496094 41.363281 C 36.496094 41.886719 36.921875 42.308594 37.441406 42.308594 C 37.964844 42.308594 38.386719 41.886719 38.386719 41.363281 L 38.386719 38.691406 L 40.140625 40.191406 C 40.316406 40.34375 40.535156 40.417969 40.753906 40.417969 C 41.019531 40.417969 41.285156 40.304688 41.472656 40.089844 C 41.8125 39.691406 41.765625 39.09375 41.371094 38.753906 L 38.386719 36.199219 L 38.386719 33.960938 L 40.140625 35.460938 C 40.316406 35.613281 40.535156 35.6875 40.753906 35.6875 C 41.019531 35.6875 41.285156 35.574219 41.472656 35.359375 C 41.8125 34.960938 41.765625 34.363281 41.371094 34.023438 L 38.386719 31.46875 L 38.386719 24.726562 L 43.15625 29.496094 L 42.855469 33.40625 C 42.816406 33.929688 43.203125 34.382812 43.726562 34.425781 C 43.75 34.425781 43.773438 34.425781 43.800781 34.425781 C 44.289062 34.425781 44.703125 34.050781 44.742188 33.554688 L 44.917969 31.253906 L 46.5 32.835938 L 46.199219 36.753906 C 46.160156 37.273438 46.550781 37.730469 47.070312 37.769531 C 47.09375 37.769531 47.117188 37.773438 47.144531 37.773438 C 47.632812 37.773438 48.046875 37.394531 48.085938 36.898438 L 48.261719 34.601562 L 50.152344 36.492188 C 50.335938 36.675781 50.578125 36.769531 50.824219 36.769531 C 51.066406 36.769531 51.304688 36.675781 51.492188 36.492188 C 51.859375 36.121094 51.859375 35.523438 51.492188 35.152344 L 49.601562 33.261719 L 51.898438 33.085938 C 52.417969 33.046875 52.808594 32.59375 52.769531 32.070312 C 52.730469 31.550781 52.28125 31.160156 51.753906 31.199219 L 47.835938 31.5 L 46.253906 29.917969 L 48.554688 29.742188 C 49.074219 29.703125 49.464844 29.246094 49.425781 28.726562 C 49.382812 28.203125 48.921875 27.816406 48.40625 27.855469 L 44.496094 28.15625 L 39.726562 23.386719 L 46.46875 23.386719 L 49.023438 26.371094 C 49.210938 26.589844 49.476562 26.699219 49.742188 26.699219 C 49.960938 26.699219 50.179688 26.625 50.359375 26.472656 C 50.753906 26.132812 50.800781 25.535156 50.460938 25.140625 L 48.960938 23.386719 L 51.199219 23.386719 L 53.753906 26.371094 C 53.941406 26.589844 54.207031 26.699219 54.472656 26.699219 C 54.691406 26.699219 54.910156 26.625 55.089844 26.472656 C 55.484375 26.132812 55.53125 25.535156 55.191406 25.140625 L 53.691406 23.386719 L 56.363281 23.386719 C 56.886719 23.386719 57.308594 22.964844 57.308594 22.441406 C 57.308594 21.921875 56.886719 21.496094 56.363281 21.496094 "/>
</g>
</g>
</svg>
