<?xml version="1.0" encoding="UTF-8"?>
<svg xmlns="http://www.w3.org/2000/svg" xmlns:xlink="http://www.w3.org/1999/xlink" width="75pt" height="44.999999pt" viewBox="0 0 75 44.999999" version="1.2">
<defs>
<clipPath id="clip1">
  <path d="M 13.84375 1.527344 L 61.09375 1.527344 L 61.09375 32 L 13.84375 32 Z M 13.84375 1.527344 "/>
</clipPath>
<clipPath id="clip2">
  <path d="M 26 36 L 38 36 L 38 38.277344 L 26 38.277344 Z M 26 36 "/>
</clipPath>
<clipPath id="clip3">
  <path d="M 45 36 L 51 36 L 51 38.277344 L 45 38.277344 Z M 45 36 "/>
</clipPath>
<clipPath id="clip4">
  <path d="M 39 36 L 44 36 L 44 38.277344 L 39 38.277344 Z M 39 36 "/>
</clipPath>
</defs>
<g id="surface1">
<g clip-path="url(#clip1)" clip-rule="nonzero">
<path style=" stroke:none;fill-rule:nonzero;fill:rgb(1.959229%,87.838745%,91.369629%);fill-opacity:1;" d="M 22.519531 31.238281 C 22.953125 31.238281 23.308594 30.886719 23.308594 30.457031 C 23.308594 30.027344 22.953125 29.675781 22.519531 29.675781 C 18.617188 29.675781 15.441406 26.519531 15.441406 22.636719 C 15.441406 18.8125 18.457031 15.726562 22.308594 15.613281 C 22.5625 15.605469 22.792969 15.480469 22.9375 15.273438 C 23.082031 15.066406 23.113281 14.804688 23.027344 14.570312 C 22.691406 13.628906 22.519531 12.660156 22.519531 11.691406 C 22.519531 6.949219 26.402344 3.089844 31.175781 3.089844 C 34.769531 3.089844 38.027344 5.347656 39.277344 8.703125 C 39.355469 8.910156 39.515625 9.070312 39.71875 9.152344 C 39.917969 9.234375 40.148438 9.234375 40.347656 9.140625 C 41.183594 8.757812 42.066406 8.5625 42.976562 8.5625 C 45.960938 8.5625 48.554688 10.675781 49.144531 13.578125 C 49.183594 13.785156 49.304688 13.960938 49.480469 14.078125 C 49.652344 14.191406 49.863281 14.234375 50.070312 14.191406 C 50.582031 14.089844 51.109375 14.039062 51.628906 14.039062 C 55.96875 14.039062 59.496094 17.542969 59.496094 21.855469 C 59.496094 26.167969 55.96875 29.675781 51.628906 29.675781 L 50.839844 29.675781 C 50.410156 29.675781 50.054688 30.027344 50.054688 30.457031 C 50.054688 30.886719 50.410156 31.238281 50.839844 31.238281 L 51.628906 31.238281 C 56.832031 31.238281 61.066406 27.03125 61.066406 21.855469 C 61.066406 16.683594 56.832031 12.472656 51.628906 12.472656 C 51.253906 12.472656 50.875 12.5 50.5 12.539062 C 49.503906 9.289062 46.453125 7 42.976562 7 C 42.109375 7 41.261719 7.140625 40.441406 7.417969 C 38.785156 3.863281 35.152344 1.527344 31.175781 1.527344 C 25.535156 1.527344 20.949219 6.085938 20.949219 11.691406 C 20.949219 12.511719 21.050781 13.328125 21.253906 14.136719 C 17.039062 14.738281 13.867188 18.300781 13.867188 22.636719 C 13.867188 27.382812 17.75 31.238281 22.519531 31.238281 "/>
</g>
<path style=" stroke:none;fill-rule:nonzero;fill:rgb(1.959229%,87.838745%,91.369629%);fill-opacity:1;" d="M 46.90625 32.804688 C 46.90625 32.371094 46.554688 32.023438 46.121094 32.023438 L 38.253906 32.023438 C 37.820312 32.023438 37.46875 32.371094 37.46875 32.804688 C 37.46875 33.234375 37.820312 33.585938 38.253906 33.585938 L 46.121094 33.585938 C 46.554688 33.585938 46.90625 33.234375 46.90625 32.804688 "/>
<path style=" stroke:none;fill-rule:nonzero;fill:rgb(1.959229%,87.838745%,91.369629%);fill-opacity:1;" d="M 24.09375 33.585938 L 30.386719 33.585938 C 30.820312 33.585938 31.175781 33.234375 31.175781 32.804688 C 31.175781 32.371094 30.820312 32.023438 30.386719 32.023438 L 24.09375 32.023438 C 23.660156 32.023438 23.308594 32.371094 23.308594 32.804688 C 23.308594 33.234375 23.660156 33.585938 24.09375 33.585938 "/>
<path style=" stroke:none;fill-rule:nonzero;fill:rgb(1.959229%,87.838745%,91.369629%);fill-opacity:1;" d="M 35.109375 33.585938 C 35.542969 33.585938 35.894531 33.234375 35.894531 32.804688 C 35.894531 32.371094 35.542969 32.023438 35.109375 32.023438 L 33.535156 32.023438 C 33.101562 32.023438 32.746094 32.371094 32.746094 32.804688 C 32.746094 33.234375 33.101562 33.585938 33.535156 33.585938 L 35.109375 33.585938 "/>
<g clip-path="url(#clip2)" clip-rule="nonzero">
<path style=" stroke:none;fill-rule:nonzero;fill:rgb(1.959229%,87.838745%,91.369629%);fill-opacity:1;" d="M 27.242188 38.277344 L 36.679688 38.277344 C 37.113281 38.277344 37.46875 37.925781 37.46875 37.496094 C 37.46875 37.0625 37.113281 36.714844 36.679688 36.714844 L 27.242188 36.714844 C 26.808594 36.714844 26.453125 37.0625 26.453125 37.496094 C 26.453125 37.925781 26.808594 38.277344 27.242188 38.277344 "/>
</g>
<g clip-path="url(#clip3)" clip-rule="nonzero">
<path style=" stroke:none;fill-rule:nonzero;fill:rgb(1.959229%,87.838745%,91.369629%);fill-opacity:1;" d="M 46.121094 38.277344 L 49.269531 38.277344 C 49.703125 38.277344 50.054688 37.925781 50.054688 37.496094 C 50.054688 37.0625 49.703125 36.714844 49.269531 36.714844 L 46.121094 36.714844 C 45.6875 36.714844 45.335938 37.0625 45.335938 37.496094 C 45.335938 37.925781 45.6875 38.277344 46.121094 38.277344 "/>
</g>
<g clip-path="url(#clip4)" clip-rule="nonzero">
<path style=" stroke:none;fill-rule:nonzero;fill:rgb(1.959229%,87.838745%,91.369629%);fill-opacity:1;" d="M 43.761719 37.496094 C 43.761719 37.0625 43.40625 36.714844 42.976562 36.714844 L 39.828125 36.714844 C 39.394531 36.714844 39.042969 37.0625 39.042969 37.496094 C 39.042969 37.925781 39.394531 38.277344 39.828125 38.277344 L 42.976562 38.277344 C 43.40625 38.277344 43.761719 37.925781 43.761719 37.496094 "/>
</g>
<path style=" stroke:none;fill-rule:nonzero;fill:rgb(1.959229%,87.838745%,91.369629%);fill-opacity:1;" d="M 46.90625 23.421875 C 46.90625 22.988281 46.554688 22.636719 46.121094 22.636719 L 38.253906 22.636719 C 37.820312 22.636719 37.46875 22.988281 37.46875 23.421875 C 37.46875 23.851562 37.820312 24.203125 38.253906 24.203125 L 46.121094 24.203125 C 46.554688 24.203125 46.90625 23.851562 46.90625 23.421875 "/>
<path style=" stroke:none;fill-rule:nonzero;fill:rgb(1.959229%,87.838745%,91.369629%);fill-opacity:1;" d="M 24.09375 24.203125 L 30.386719 24.203125 C 30.820312 24.203125 31.175781 23.851562 31.175781 23.421875 C 31.175781 22.988281 30.820312 22.636719 30.386719 22.636719 L 24.09375 22.636719 C 23.660156 22.636719 23.308594 22.988281 23.308594 23.421875 C 23.308594 23.851562 23.660156 24.203125 24.09375 24.203125 "/>
<path style=" stroke:none;fill-rule:nonzero;fill:rgb(1.959229%,87.838745%,91.369629%);fill-opacity:1;" d="M 35.109375 24.203125 C 35.542969 24.203125 35.894531 23.851562 35.894531 23.421875 C 35.894531 22.988281 35.542969 22.636719 35.109375 22.636719 L 33.535156 22.636719 C 33.101562 22.636719 32.746094 22.988281 32.746094 23.421875 C 32.746094 23.851562 33.101562 24.203125 33.535156 24.203125 L 35.109375 24.203125 "/>
<path style=" stroke:none;fill-rule:nonzero;fill:rgb(1.959229%,87.838745%,91.369629%);fill-opacity:1;" d="M 36.679688 27.332031 L 27.242188 27.332031 C 26.808594 27.332031 26.453125 27.679688 26.453125 28.113281 C 26.453125 28.542969 26.808594 28.894531 27.242188 28.894531 L 36.679688 28.894531 C 37.113281 28.894531 37.46875 28.542969 37.46875 28.113281 C 37.46875 27.679688 37.113281 27.332031 36.679688 27.332031 "/>
<path style=" stroke:none;fill-rule:nonzero;fill:rgb(1.959229%,87.838745%,91.369629%);fill-opacity:1;" d="M 49.269531 27.332031 L 46.121094 27.332031 C 45.6875 27.332031 45.335938 27.679688 45.335938 28.113281 C 45.335938 28.542969 45.6875 28.894531 46.121094 28.894531 L 49.269531 28.894531 C 49.703125 28.894531 50.054688 28.542969 50.054688 28.113281 C 50.054688 27.679688 49.703125 27.332031 49.269531 27.332031 "/>
<path style=" stroke:none;fill-rule:nonzero;fill:rgb(1.959229%,87.838745%,91.369629%);fill-opacity:1;" d="M 39.828125 27.332031 C 39.394531 27.332031 39.042969 27.679688 39.042969 28.113281 C 39.042969 28.542969 39.394531 28.894531 39.828125 28.894531 L 42.976562 28.894531 C 43.40625 28.894531 43.761719 28.542969 43.761719 28.113281 C 43.761719 27.679688 43.40625 27.332031 42.976562 27.332031 L 39.828125 27.332031 "/>
</g>
</svg>
