<?xml version="1.0" encoding="UTF-8"?>
<svg xmlns="http://www.w3.org/2000/svg" xmlns:xlink="http://www.w3.org/1999/xlink" width="75pt" height="44.999999pt" viewBox="0 0 75 44.999999" version="1.2">
<defs>
<clipPath id="clip1">
  <path d="M 6.035156 2 L 63.785156 2 L 63.785156 43.234375 L 6.035156 43.234375 Z M 6.035156 2 "/>
</clipPath>
</defs>
<g id="surface1">
<g clip-path="url(#clip1)" clip-rule="nonzero">
<path style=" stroke:none;fill-rule:nonzero;fill:rgb(59.21936%,77.249146%,90.589905%);fill-opacity:1;" d="M 51.464844 14.519531 C 50.503906 7.402344 44.429688 2.007812 37.082031 2.007812 C 31.429688 2.007812 26.292969 5.316406 23.925781 10.355469 C 23.613281 10.328125 23.300781 10.316406 22.992188 10.316406 C 16.617188 10.316406 11.40625 15.367188 11.167969 21.667969 C 7.992188 23.902344 6.121094 27.46875 6.121094 31.382812 C 6.121094 37.957031 11.484375 43.304688 18.074219 43.304688 L 50.019531 43.304688 C 50.160156 43.304688 50.300781 43.28125 50.433594 43.246094 C 57.894531 42.605469 63.695312 36.328125 63.695312 28.820312 C 63.695312 21.65625 58.425781 15.621094 51.464844 14.519531 Z M 49.917969 40.121094 C 49.847656 40.125 49.777344 40.132812 49.710938 40.148438 L 18.074219 40.148438 C 13.230469 40.148438 9.289062 36.214844 9.289062 31.382812 C 9.289062 28.28125 10.890625 25.46875 13.574219 23.867188 C 14.074219 23.570312 14.367188 23.023438 14.34375 22.445312 L 14.332031 22.257812 C 14.328125 22.210938 14.324219 22.164062 14.324219 22.117188 C 14.324219 17.351562 18.214844 13.472656 22.992188 13.472656 C 23.519531 13.472656 24.070312 13.527344 24.621094 13.632812 C 25.386719 13.777344 26.140625 13.347656 26.40625 12.621094 C 28.03125 8.160156 32.320312 5.164062 37.082031 5.164062 C 43.1875 5.164062 48.167969 9.929688 48.421875 16.011719 C 48.457031 16.820312 49.09375 17.46875 49.902344 17.519531 C 55.863281 17.894531 60.53125 22.859375 60.53125 28.820312 C 60.53125 34.777344 55.871094 39.738281 49.917969 40.121094 Z M 49.917969 40.121094 "/>
</g>
</g>
</svg>
