<?xml version="1.0" encoding="UTF-8"?>
<svg xmlns="http://www.w3.org/2000/svg" xmlns:xlink="http://www.w3.org/1999/xlink" width="75pt" height="44.999999pt" viewBox="0 0 75 44.999999" version="1.2">
<defs>
<clipPath id="clip1">
  <path d="M 32 2.0625 L 41 2.0625 L 41 7 L 32 7 Z M 32 2.0625 "/>
</clipPath>
<clipPath id="clip2">
  <path d="M 32 38 L 41 38 L 41 43.3125 L 32 43.3125 Z M 32 38 "/>
</clipPath>
<clipPath id="clip3">
  <path d="M 52 18 L 57.375 18 L 57.375 27 L 52 27 Z M 52 18 "/>
</clipPath>
<clipPath id="clip4">
  <path d="M 16.125 18 L 21 18 L 21 27 L 16.125 27 Z M 16.125 18 "/>
</clipPath>
</defs>
<g id="surface1">
<path style=" stroke:none;fill-rule:nonzero;fill:rgb(81.17981%,93.328857%,81.959534%);fill-opacity:1;" d="M 37.253906 39.410156 L 36.234375 39.410156 L 36.234375 5.980469 L 37.253906 5.980469 L 37.253906 39.410156 "/>
<path style=" stroke:none;fill-rule:nonzero;fill:rgb(81.17981%,93.328857%,81.959534%);fill-opacity:1;" d="M 36.78125 15.046875 L 32.671875 10.960938 L 33.390625 10.234375 L 36.773438 13.601562 L 40.09375 10.238281 L 40.820312 10.957031 L 36.78125 15.046875 "/>
<path style=" stroke:none;fill-rule:nonzero;fill:rgb(81.17981%,93.328857%,81.959534%);fill-opacity:1;" d="M 36.78125 10.960938 L 32.671875 6.871094 L 33.390625 6.148438 L 36.773438 9.511719 L 40.09375 6.148438 L 40.820312 6.867188 L 36.78125 10.960938 "/>
<g clip-path="url(#clip1)" clip-rule="nonzero">
<path style=" stroke:none;fill-rule:nonzero;fill:rgb(81.17981%,93.328857%,81.959534%);fill-opacity:1;" d="M 36.78125 6.871094 L 32.671875 2.785156 L 33.390625 2.058594 L 36.773438 5.421875 L 40.09375 2.0625 L 40.820312 2.78125 L 36.78125 6.871094 "/>
</g>
<path style=" stroke:none;fill-rule:nonzero;fill:rgb(81.17981%,93.328857%,81.959534%);fill-opacity:1;" d="M 40.097656 35.128906 L 36.714844 31.761719 L 33.394531 35.125 L 32.667969 34.40625 L 36.707031 30.316406 L 40.816406 34.402344 L 40.097656 35.128906 "/>
<path style=" stroke:none;fill-rule:nonzero;fill:rgb(81.17981%,93.328857%,81.959534%);fill-opacity:1;" d="M 40.097656 39.214844 L 36.714844 35.851562 L 33.394531 39.210938 L 32.667969 38.492188 L 36.707031 34.402344 L 40.816406 38.492188 L 40.097656 39.214844 "/>
<g clip-path="url(#clip2)" clip-rule="nonzero">
<path style=" stroke:none;fill-rule:nonzero;fill:rgb(81.17981%,93.328857%,81.959534%);fill-opacity:1;" d="M 40.097656 43.304688 L 36.714844 39.9375 L 33.394531 43.300781 L 32.667969 42.582031 L 36.707031 38.492188 L 40.816406 42.578125 L 40.097656 43.304688 "/>
</g>
<path style=" stroke:none;fill-rule:nonzero;fill:rgb(81.17981%,93.328857%,81.959534%);fill-opacity:1;" d="M 53.445312 23.191406 L 20.015625 23.191406 L 20.015625 22.171875 L 53.445312 22.171875 L 53.445312 23.191406 "/>
<path style=" stroke:none;fill-rule:nonzero;fill:rgb(81.17981%,93.328857%,81.959534%);fill-opacity:1;" d="M 48.46875 26.757812 L 44.378906 22.71875 L 48.464844 18.609375 L 49.191406 19.328125 L 45.824219 22.710938 L 49.1875 26.03125 L 48.46875 26.757812 "/>
<path style=" stroke:none;fill-rule:nonzero;fill:rgb(81.17981%,93.328857%,81.959534%);fill-opacity:1;" d="M 52.554688 26.757812 L 48.464844 22.71875 L 52.554688 18.609375 L 53.277344 19.328125 L 49.914062 22.710938 L 53.273438 26.03125 L 52.554688 26.757812 "/>
<g clip-path="url(#clip3)" clip-rule="nonzero">
<path style=" stroke:none;fill-rule:nonzero;fill:rgb(81.17981%,93.328857%,81.959534%);fill-opacity:1;" d="M 56.644531 26.757812 L 52.554688 22.71875 L 56.640625 18.609375 L 57.367188 19.328125 L 54 22.710938 L 57.363281 26.03125 L 56.644531 26.757812 "/>
</g>
<path style=" stroke:none;fill-rule:nonzero;fill:rgb(81.17981%,93.328857%,81.959534%);fill-opacity:1;" d="M 25.023438 26.753906 L 24.296875 26.035156 L 27.664062 22.652344 L 24.300781 19.332031 L 25.019531 18.605469 L 29.109375 22.644531 L 25.023438 26.753906 "/>
<path style=" stroke:none;fill-rule:nonzero;fill:rgb(81.17981%,93.328857%,81.959534%);fill-opacity:1;" d="M 20.933594 26.753906 L 20.210938 26.035156 L 23.574219 22.652344 L 20.210938 19.332031 L 20.929688 18.605469 L 25.023438 22.644531 L 20.933594 26.753906 "/>
<g clip-path="url(#clip4)" clip-rule="nonzero">
<path style=" stroke:none;fill-rule:nonzero;fill:rgb(81.17981%,93.328857%,81.959534%);fill-opacity:1;" d="M 16.847656 26.753906 L 16.121094 26.035156 L 19.484375 22.652344 L 16.125 19.332031 L 16.84375 18.605469 L 20.933594 22.644531 L 16.847656 26.753906 "/>
</g>
<path style=" stroke:none;fill-rule:nonzero;fill:rgb(81.17981%,93.328857%,81.959534%);fill-opacity:1;" d="M 27.164062 32.984375 L 26.441406 32.261719 L 46.304688 12.398438 L 47.027344 13.121094 L 27.164062 32.984375 "/>
<path style=" stroke:none;fill-rule:nonzero;fill:rgb(81.17981%,93.328857%,81.959534%);fill-opacity:1;" d="M 41.21875 18.25 L 41.207031 13.296875 L 42.226562 13.292969 L 42.238281 17.222656 L 46.125 17.195312 L 46.132812 18.21875 L 41.21875 18.25 "/>
<path style=" stroke:none;fill-rule:nonzero;fill:rgb(81.17981%,93.328857%,81.959534%);fill-opacity:1;" d="M 43.648438 15.820312 L 43.636719 10.867188 L 44.65625 10.863281 L 44.667969 14.792969 L 48.554688 14.769531 L 48.5625 15.789062 L 43.648438 15.820312 "/>
<path style=" stroke:none;fill-rule:nonzero;fill:rgb(81.17981%,93.328857%,81.959534%);fill-opacity:1;" d="M 46.078125 13.390625 L 46.0625 8.4375 L 47.085938 8.4375 L 47.097656 12.363281 L 50.984375 12.339844 L 50.992188 13.359375 L 46.078125 13.390625 "/>
<path style=" stroke:none;fill-rule:nonzero;fill:rgb(81.17981%,93.328857%,81.959534%);fill-opacity:1;" d="M 31.257812 32.070312 L 31.25 28.140625 L 27.363281 28.164062 L 27.355469 27.144531 L 32.269531 27.113281 L 32.28125 32.066406 L 31.257812 32.070312 "/>
<path style=" stroke:none;fill-rule:nonzero;fill:rgb(81.17981%,93.328857%,81.959534%);fill-opacity:1;" d="M 28.832031 34.496094 L 28.820312 30.570312 L 24.933594 30.59375 L 24.925781 29.574219 L 29.839844 29.542969 L 29.851562 34.496094 L 28.832031 34.496094 "/>
<path style=" stroke:none;fill-rule:nonzero;fill:rgb(81.17981%,93.328857%,81.959534%);fill-opacity:1;" d="M 26.402344 36.925781 L 26.390625 33 L 22.503906 33.023438 L 22.496094 32 L 27.410156 31.96875 L 27.421875 36.925781 L 26.402344 36.925781 "/>
<path style=" stroke:none;fill-rule:nonzero;fill:rgb(81.17981%,93.328857%,81.959534%);fill-opacity:1;" d="M 46.304688 32.964844 L 26.441406 13.101562 L 27.164062 12.378906 L 47.027344 32.242188 L 46.304688 32.964844 "/>
<path style=" stroke:none;fill-rule:nonzero;fill:rgb(81.17981%,93.328857%,81.959534%);fill-opacity:1;" d="M 41.207031 32.070312 L 41.175781 27.15625 L 46.128906 27.144531 L 46.132812 28.164062 L 42.203125 28.175781 L 42.226562 32.0625 L 41.207031 32.070312 "/>
<path style=" stroke:none;fill-rule:nonzero;fill:rgb(81.17981%,93.328857%,81.959534%);fill-opacity:1;" d="M 43.636719 34.5 L 43.605469 29.585938 L 48.558594 29.574219 L 48.558594 30.59375 L 44.632812 30.605469 L 44.65625 34.492188 L 43.636719 34.5 "/>
<path style=" stroke:none;fill-rule:nonzero;fill:rgb(81.17981%,93.328857%,81.959534%);fill-opacity:1;" d="M 46.0625 36.929688 L 46.03125 32.015625 L 50.988281 32 L 50.988281 33.023438 L 47.0625 33.035156 L 47.085938 36.921875 L 46.0625 36.929688 "/>
<path style=" stroke:none;fill-rule:nonzero;fill:rgb(81.17981%,93.328857%,81.959534%);fill-opacity:1;" d="M 27.359375 18.21875 L 27.355469 17.195312 L 31.285156 17.1875 L 31.257812 13.300781 L 32.28125 13.292969 L 32.3125 18.207031 L 27.359375 18.21875 "/>
<path style=" stroke:none;fill-rule:nonzero;fill:rgb(81.17981%,93.328857%,81.959534%);fill-opacity:1;" d="M 24.929688 15.789062 L 24.925781 14.769531 L 28.855469 14.757812 L 28.832031 10.871094 L 29.851562 10.863281 L 29.882812 15.777344 L 24.929688 15.789062 "/>
<path style=" stroke:none;fill-rule:nonzero;fill:rgb(81.17981%,93.328857%,81.959534%);fill-opacity:1;" d="M 22.5 13.359375 L 22.5 12.339844 L 26.425781 12.328125 L 26.402344 8.441406 L 27.421875 8.433594 L 27.453125 13.347656 L 22.5 13.359375 "/>
</g>
</svg>
