<?xml version="1.0" encoding="UTF-8"?>
<svg xmlns="http://www.w3.org/2000/svg" xmlns:xlink="http://www.w3.org/1999/xlink" width="75pt" height="44.999999pt" viewBox="0 0 75 44.999999" version="1.2">
<defs>
<clipPath id="clip1">
  <path d="M 17.511719 2.511719 L 48 2.511719 L 48 33 L 17.511719 33 Z M 17.511719 2.511719 "/>
</clipPath>
</defs>
<g id="surface1">
<path style=" stroke:none;fill-rule:nonzero;fill:rgb(1.959229%,87.838745%,91.369629%);fill-opacity:1;" d="M 40.632812 28.113281 L 43.109375 25.636719 L 48.140625 30.664062 L 45.664062 33.140625 Z M 40.632812 28.113281 "/>
<path style=" stroke:none;fill-rule:nonzero;fill:rgb(1.959229%,87.838745%,91.369629%);fill-opacity:1;" d="M 56.078125 35.792969 C 57.171875 36.886719 57.171875 38.664062 56.078125 39.757812 L 54.757812 41.078125 C 53.660156 42.175781 51.886719 42.175781 50.792969 41.078125 L 43.710938 33.996094 C 42.617188 32.902344 42.617188 31.125 43.710938 30.03125 L 45.03125 28.710938 C 46.125 27.617188 47.902344 27.617188 48.996094 28.710938 Z M 56.078125 35.792969 "/>
<g clip-path="url(#clip1)" clip-rule="nonzero">
<path style=" stroke:none;fill-rule:nonzero;fill:rgb(1.959229%,87.838745%,91.369629%);fill-opacity:1;" d="M 32.554688 2.492188 C 24.234375 2.492188 17.492188 9.234375 17.492188 17.554688 C 17.492188 25.871094 24.234375 32.613281 32.554688 32.613281 C 40.871094 32.613281 47.613281 25.871094 47.613281 17.554688 C 47.613281 9.234375 40.871094 2.492188 32.554688 2.492188 Z M 32.554688 29.828125 C 25.773438 29.828125 20.277344 24.332031 20.277344 17.554688 C 20.277344 10.773438 25.773438 5.28125 32.554688 5.28125 C 39.332031 5.28125 44.828125 10.773438 44.828125 17.554688 C 44.828125 24.332031 39.332031 29.828125 32.554688 29.828125 Z M 32.554688 29.828125 "/>
</g>
<path style=" stroke:none;fill-rule:nonzero;fill:rgb(1.959229%,87.838745%,91.369629%);fill-opacity:1;" d="M 35.640625 25.007812 C 29.632812 25.007812 24.761719 20.136719 24.761719 14.128906 C 24.761719 13.96875 24.777344 13.8125 24.785156 13.652344 C 23.992188 14.933594 23.527344 16.445312 23.527344 18.0625 C 23.527344 22.707031 27.292969 26.472656 31.9375 26.472656 C 33.730469 26.472656 35.390625 25.90625 36.757812 24.949219 C 36.390625 24.992188 36.015625 25.007812 35.640625 25.007812 Z M 35.640625 25.007812 "/>
</g>
</svg>
