<?xml version="1.0" encoding="UTF-8"?>
<svg xmlns="http://www.w3.org/2000/svg" xmlns:xlink="http://www.w3.org/1999/xlink" width="75pt" height="44.999999pt" viewBox="0 0 75 44.999999" version="1.2">
<defs>
<clipPath id="clip1">
  <path d="M 36 1.59375 L 39 1.59375 L 39 9 L 36 9 Z M 36 1.59375 "/>
</clipPath>
<clipPath id="clip2">
  <path d="M 16.273438 18 L 24 18 L 24 22 L 16.273438 22 Z M 16.273438 18 "/>
</clipPath>
<clipPath id="clip3">
  <path d="M 29 36 L 34 36 L 34 43.59375 L 29 43.59375 Z M 29 36 "/>
</clipPath>
<clipPath id="clip4">
  <path d="M 41 36 L 46 36 L 46 43.59375 L 41 43.59375 Z M 41 36 "/>
</clipPath>
<clipPath id="clip5">
  <path d="M 51 18 L 59.023438 18 L 59.023438 22 L 51 22 Z M 51 18 "/>
</clipPath>
</defs>
<g id="surface1">
<path style=" stroke:none;fill-rule:nonzero;fill:rgb(100%,92.939758%,0%);fill-opacity:1;" d="M 37.648438 13.289062 C 32.222656 13.289062 27.808594 17.691406 27.808594 23.101562 C 27.808594 28.511719 32.222656 32.914062 37.648438 32.914062 C 43.074219 32.914062 47.488281 28.511719 47.488281 23.101562 C 47.488281 17.691406 43.074219 13.289062 37.648438 13.289062 Z M 37.648438 34.539062 C 31.324219 34.539062 26.179688 29.40625 26.179688 23.101562 C 26.179688 16.796875 31.324219 11.664062 37.648438 11.664062 C 43.972656 11.664062 49.117188 16.796875 49.117188 23.101562 C 49.117188 29.40625 43.972656 34.539062 37.648438 34.539062 "/>
<g clip-path="url(#clip1)" clip-rule="nonzero">
<path style=" stroke:none;fill-rule:nonzero;fill:rgb(100%,92.939758%,0%);fill-opacity:1;" d="M 38.460938 8.597656 L 36.835938 8.597656 L 36.835938 1.601562 L 38.460938 1.601562 L 38.460938 8.597656 "/>
</g>
<path style=" stroke:none;fill-rule:nonzero;fill:rgb(100%,92.939758%,0%);fill-opacity:1;" d="M 27.679688 12.511719 L 23.167969 7.152344 L 24.414062 6.109375 L 28.925781 11.46875 L 27.679688 12.511719 "/>
<g clip-path="url(#clip2)" clip-rule="nonzero">
<path style=" stroke:none;fill-rule:nonzero;fill:rgb(100%,92.939758%,0%);fill-opacity:1;" d="M 23.1875 21.382812 L 16.277344 20.167969 L 16.558594 18.570312 L 23.46875 19.785156 L 23.1875 21.382812 "/>
</g>
<path style=" stroke:none;fill-rule:nonzero;fill:rgb(100%,92.939758%,0%);fill-opacity:1;" d="M 19.382812 34.554688 L 18.570312 33.148438 L 24.648438 29.648438 L 25.460938 31.054688 L 19.382812 34.554688 "/>
<g clip-path="url(#clip3)" clip-rule="nonzero">
<path style=" stroke:none;fill-rule:nonzero;fill:rgb(100%,92.939758%,0%);fill-opacity:1;" d="M 31.039062 43.582031 L 29.511719 43.027344 L 31.910156 36.453125 L 33.441406 37.007812 L 31.039062 43.582031 "/>
</g>
<g clip-path="url(#clip4)" clip-rule="nonzero">
<path style=" stroke:none;fill-rule:nonzero;fill:rgb(100%,92.939758%,0%);fill-opacity:1;" d="M 44.257812 43.582031 L 41.855469 37.007812 L 43.386719 36.453125 L 45.785156 43.027344 L 44.257812 43.582031 "/>
</g>
<path style=" stroke:none;fill-rule:nonzero;fill:rgb(100%,92.939758%,0%);fill-opacity:1;" d="M 55.914062 34.554688 L 49.835938 31.054688 L 50.648438 29.648438 L 56.726562 33.148438 L 55.914062 34.554688 "/>
<g clip-path="url(#clip5)" clip-rule="nonzero">
<path style=" stroke:none;fill-rule:nonzero;fill:rgb(100%,92.939758%,0%);fill-opacity:1;" d="M 52.109375 21.382812 L 51.828125 19.785156 L 58.738281 18.570312 L 59.019531 20.167969 L 52.109375 21.382812 "/>
</g>
<path style=" stroke:none;fill-rule:nonzero;fill:rgb(100%,92.939758%,0%);fill-opacity:1;" d="M 47.617188 12.511719 L 46.371094 11.46875 L 50.882812 6.109375 L 52.128906 7.152344 L 47.617188 12.511719 "/>
</g>
</svg>
