<?xml version="1.0" encoding="UTF-8"?>
<svg xmlns="http://www.w3.org/2000/svg" xmlns:xlink="http://www.w3.org/1999/xlink" width="75pt" height="44.999999pt" viewBox="0 0 75 44.999999" version="1.2">
<defs>
<clipPath id="clip1">
  <path d="M 8.421875 1.566406 L 66.921875 1.566406 L 66.921875 43.566406 L 8.421875 43.566406 Z M 8.421875 1.566406 "/>
</clipPath>
</defs>
<g id="surface1">
<g clip-path="url(#clip1)" clip-rule="nonzero">
<path style=" stroke:none;fill-rule:evenodd;fill:rgb(100%,92.939758%,0%);fill-opacity:1;" d="M 18.066406 28.511719 C 17.136719 26.730469 16.609375 24.703125 16.609375 22.558594 C 16.609375 15.425781 22.417969 9.632812 29.574219 9.632812 C 35.007812 9.632812 39.667969 12.976562 41.589844 17.710938 C 41.636719 17.710938 41.679688 17.710938 41.726562 17.710938 C 46.65625 17.710938 50.949219 20.464844 53.140625 24.515625 C 53.585938 24.332031 54.046875 24.179688 54.523438 24.0625 L 54.535156 24.058594 C 55.296875 23.871094 56.09375 23.769531 56.914062 23.769531 L 56.945312 23.769531 L 56.980469 23.773438 L 57.203125 23.773438 L 57.234375 23.777344 L 57.296875 23.777344 L 57.332031 23.78125 L 57.394531 23.78125 L 57.425781 23.785156 L 57.457031 23.785156 L 57.488281 23.789062 L 57.519531 23.789062 L 57.550781 23.792969 L 57.582031 23.792969 L 57.613281 23.796875 L 57.644531 23.796875 L 57.679688 23.800781 L 57.710938 23.804688 L 57.742188 23.804688 L 57.773438 23.808594 L 57.804688 23.808594 L 57.929688 23.824219 L 57.960938 23.824219 L 58.242188 23.859375 L 58.269531 23.863281 L 58.394531 23.878906 L 58.425781 23.886719 L 58.480469 23.894531 L 58.542969 23.902344 L 58.574219 23.910156 L 58.636719 23.917969 L 58.664062 23.925781 L 58.695312 23.929688 L 58.726562 23.9375 L 58.761719 23.941406 L 58.792969 23.949219 L 58.824219 23.953125 L 58.851562 23.960938 L 58.882812 23.964844 L 58.945312 23.980469 L 58.972656 23.984375 L 59.003906 23.992188 L 59.035156 23.996094 L 59.066406 24.003906 L 59.09375 24.011719 L 59.125 24.019531 L 59.15625 24.023438 L 59.183594 24.03125 L 59.246094 24.046875 L 59.273438 24.054688 L 59.304688 24.058594 L 59.335938 24.066406 L 59.363281 24.074219 L 59.394531 24.082031 L 59.421875 24.089844 L 59.484375 24.105469 L 59.511719 24.113281 L 59.542969 24.121094 L 59.570312 24.128906 L 59.601562 24.140625 L 59.628906 24.148438 L 59.660156 24.15625 L 59.6875 24.164062 L 59.71875 24.171875 L 59.746094 24.179688 L 59.777344 24.191406 L 59.804688 24.199219 L 59.835938 24.207031 L 59.863281 24.214844 L 59.894531 24.226562 L 59.921875 24.234375 L 59.953125 24.242188 L 59.980469 24.253906 L 60.011719 24.261719 L 60.039062 24.273438 L 60.066406 24.28125 L 60.097656 24.292969 L 60.125 24.300781 L 60.152344 24.3125 L 60.183594 24.320312 L 60.210938 24.332031 L 60.238281 24.339844 L 60.269531 24.351562 L 60.296875 24.363281 L 60.324219 24.371094 L 60.355469 24.382812 L 60.382812 24.394531 L 60.410156 24.402344 L 60.4375 24.414062 L 60.46875 24.425781 L 60.496094 24.4375 L 60.523438 24.445312 L 60.550781 24.457031 L 60.582031 24.46875 L 60.71875 24.527344 L 60.75 24.539062 L 60.996094 24.644531 L 61.023438 24.660156 L 61.105469 24.695312 L 61.132812 24.710938 L 61.1875 24.734375 L 61.214844 24.75 L 61.269531 24.773438 L 61.296875 24.789062 L 61.351562 24.8125 L 61.378906 24.828125 L 61.40625 24.839844 L 61.429688 24.855469 L 61.457031 24.867188 L 61.484375 24.882812 L 61.511719 24.894531 L 61.539062 24.910156 L 61.5625 24.925781 L 61.589844 24.9375 L 61.617188 24.953125 L 61.644531 24.964844 L 61.671875 24.980469 L 61.695312 24.996094 L 61.722656 25.011719 L 61.75 25.023438 L 61.773438 25.039062 L 61.828125 25.070312 L 61.851562 25.082031 L 61.90625 25.113281 L 61.929688 25.128906 L 61.957031 25.144531 L 61.980469 25.160156 L 62.035156 25.191406 L 62.058594 25.203125 L 62.085938 25.222656 L 62.109375 25.234375 L 62.136719 25.25 L 62.160156 25.269531 L 62.1875 25.285156 L 62.210938 25.300781 L 62.21875 25.304688 C 63.730469 26.257812 64.960938 27.609375 65.773438 29.207031 L 65.78125 29.21875 L 65.792969 29.246094 L 65.808594 29.269531 L 65.832031 29.324219 L 65.847656 29.351562 L 65.871094 29.40625 L 65.886719 29.433594 L 65.910156 29.488281 L 65.925781 29.515625 L 65.972656 29.625 L 65.988281 29.652344 L 66.070312 29.84375 L 66.082031 29.875 L 66.140625 30.011719 L 66.148438 30.039062 L 66.160156 30.070312 L 66.195312 30.152344 L 66.203125 30.183594 L 66.238281 30.265625 L 66.246094 30.296875 L 66.269531 30.351562 L 66.277344 30.382812 L 66.289062 30.410156 L 66.296875 30.4375 L 66.308594 30.46875 L 66.316406 30.496094 L 66.328125 30.523438 L 66.335938 30.554688 L 66.347656 30.582031 L 66.355469 30.609375 L 66.363281 30.640625 L 66.375 30.667969 L 66.382812 30.699219 L 66.394531 30.726562 L 66.402344 30.757812 L 66.417969 30.8125 L 66.429688 30.84375 L 66.4375 30.871094 L 66.445312 30.902344 L 66.453125 30.929688 L 66.460938 30.960938 L 66.46875 30.988281 L 66.480469 31.019531 L 66.488281 31.046875 L 66.496094 31.078125 L 66.503906 31.105469 L 66.519531 31.167969 L 66.527344 31.195312 L 66.535156 31.226562 L 66.542969 31.253906 L 66.550781 31.285156 L 66.554688 31.316406 L 66.5625 31.34375 L 66.578125 31.40625 L 66.585938 31.433594 L 66.589844 31.464844 L 66.597656 31.496094 L 66.605469 31.523438 L 66.613281 31.554688 L 66.617188 31.585938 L 66.625 31.613281 L 66.632812 31.644531 L 66.636719 31.675781 L 66.644531 31.707031 L 66.648438 31.734375 L 66.65625 31.765625 L 66.660156 31.796875 L 66.664062 31.808594 C 66.675781 31.878906 66.6875 31.945312 66.699219 32.015625 L 66.707031 32.046875 L 66.710938 32.074219 L 66.714844 32.105469 L 66.722656 32.136719 L 66.742188 32.292969 L 66.746094 32.320312 L 66.753906 32.351562 L 66.773438 32.507812 L 66.773438 32.539062 L 66.792969 32.695312 L 66.792969 32.726562 L 66.804688 32.820312 L 66.804688 32.851562 L 66.8125 32.914062 L 66.8125 32.945312 L 66.816406 32.976562 L 66.816406 33.007812 L 66.820312 33.039062 L 66.820312 33.070312 L 66.824219 33.101562 L 66.824219 33.132812 L 66.828125 33.164062 L 66.828125 33.226562 L 66.832031 33.257812 L 66.832031 33.324219 L 66.835938 33.355469 L 66.835938 33.480469 L 66.839844 33.511719 C 66.839844 33.5625 66.839844 33.617188 66.839844 33.667969 C 66.839844 39.128906 62.40625 43.558594 56.929688 43.566406 L 26.535156 43.566406 C 25.21875 43.566406 23.929688 43.304688 22.734375 42.8125 L 22.625 42.765625 L 22.613281 42.761719 C 21.6875 42.363281 20.820312 41.824219 20.046875 41.160156 L 20.035156 41.148438 L 20.011719 41.128906 L 19.984375 41.105469 L 19.960938 41.085938 L 19.917969 41.042969 L 19.894531 41.027344 L 19.875 41.003906 L 19.828125 40.964844 L 19.816406 40.953125 C 19.714844 40.859375 19.613281 40.765625 19.515625 40.667969 C 19.027344 40.175781 18.589844 39.640625 18.21875 39.070312 L 18.195312 39.035156 L 18.179688 39.007812 L 18.160156 38.984375 L 18.128906 38.929688 L 18.113281 38.90625 L 18.097656 38.878906 L 18.089844 38.867188 C 17.554688 38.003906 17.160156 37.070312 16.910156 36.089844 L 16.902344 36.050781 L 16.894531 36.023438 L 16.886719 35.988281 L 16.878906 35.964844 L 16.875 35.933594 L 16.867188 35.90625 L 16.859375 35.875 L 16.855469 35.863281 C 16.695312 35.148438 16.609375 34.414062 16.609375 33.667969 C 16.609375 31.777344 17.140625 30.011719 18.066406 28.511719 Z M 41.726562 19.328125 L 41.484375 19.328125 L 41.457031 19.332031 L 41.40625 19.332031 C 41.394531 19.332031 41.386719 19.332031 41.378906 19.332031 L 41.351562 19.332031 C 36.941406 19.476562 33.164062 22.132812 31.417969 25.914062 C 31.324219 26.113281 31.15625 26.265625 30.949219 26.339844 C 30.738281 26.410156 30.511719 26.394531 30.3125 26.292969 C 29.179688 25.714844 27.894531 25.386719 26.535156 25.386719 C 23.691406 25.386719 21.183594 26.8125 19.683594 28.988281 C 19.683594 28.992188 19.679688 28.996094 19.675781 29.003906 C 19.675781 29.003906 19.644531 29.042969 19.652344 29.035156 C 19.253906 29.632812 18.925781 30.277344 18.6875 30.953125 C 18.601562 31.195312 18.53125 31.445312 18.46875 31.695312 L 18.464844 31.710938 C 18.164062 32.949219 18.152344 34.253906 18.433594 35.5 L 18.441406 35.519531 L 18.445312 35.542969 L 18.453125 35.566406 L 18.457031 35.589844 L 18.464844 35.617188 L 18.46875 35.644531 L 18.476562 35.667969 L 18.480469 35.691406 L 18.484375 35.703125 C 18.691406 36.507812 19.015625 37.285156 19.453125 37.996094 L 19.464844 38.011719 L 19.488281 38.050781 L 19.5 38.074219 L 19.515625 38.09375 L 19.53125 38.117188 L 19.542969 38.136719 L 19.558594 38.160156 L 19.570312 38.183594 L 19.585938 38.203125 L 19.59375 38.21875 L 19.605469 38.234375 C 19.976562 38.792969 20.417969 39.308594 20.914062 39.765625 L 20.933594 39.78125 L 20.980469 39.828125 L 21.039062 39.875 L 21.078125 39.914062 L 21.117188 39.945312 L 21.125 39.949219 C 21.761719 40.496094 22.480469 40.945312 23.253906 41.277344 L 23.28125 41.289062 L 23.304688 41.296875 L 23.335938 41.308594 L 23.355469 41.320312 C 24.367188 41.738281 25.445312 41.941406 26.535156 41.949219 C 35.21875 41.949219 48.226562 41.949219 56.914062 41.949219 C 61.5 41.949219 65.21875 38.242188 65.21875 33.667969 L 65.21875 33.613281 C 65.199219 30.300781 63.21875 27.441406 60.378906 26.140625 L 60.355469 26.128906 L 60.332031 26.121094 L 60.285156 26.097656 L 60.261719 26.089844 L 60.214844 26.066406 L 60.191406 26.058594 L 60.167969 26.046875 L 60.144531 26.039062 L 60.121094 26.027344 L 60.097656 26.019531 L 60.074219 26.007812 L 60.050781 26 L 60.027344 25.988281 L 59.980469 25.972656 L 59.957031 25.960938 L 59.933594 25.953125 L 59.910156 25.941406 L 59.863281 25.925781 L 59.839844 25.914062 L 59.816406 25.90625 L 59.789062 25.898438 L 59.765625 25.890625 L 59.742188 25.878906 L 59.625 25.839844 L 59.597656 25.828125 L 59.503906 25.796875 L 59.476562 25.789062 L 59.40625 25.765625 L 59.378906 25.757812 L 59.332031 25.742188 L 59.308594 25.738281 L 59.28125 25.730469 L 59.210938 25.707031 L 59.183594 25.699219 L 59.160156 25.695312 L 59.136719 25.6875 L 59.109375 25.679688 L 59.085938 25.671875 L 59.0625 25.667969 L 59.035156 25.660156 L 59.011719 25.652344 L 58.988281 25.648438 L 58.960938 25.640625 L 58.9375 25.636719 L 58.910156 25.628906 L 58.886719 25.621094 L 58.863281 25.617188 L 58.835938 25.609375 L 58.8125 25.605469 L 58.785156 25.597656 L 58.761719 25.59375 L 58.738281 25.585938 L 58.710938 25.582031 L 58.6875 25.578125 L 58.660156 25.570312 L 58.636719 25.566406 L 58.609375 25.558594 L 58.585938 25.554688 L 58.558594 25.550781 L 58.535156 25.542969 L 58.507812 25.539062 L 58.484375 25.535156 L 58.457031 25.53125 L 58.433594 25.523438 L 58.40625 25.519531 L 58.382812 25.515625 L 58.355469 25.511719 L 58.332031 25.507812 L 58.304688 25.503906 L 58.28125 25.5 L 58.253906 25.496094 L 58.226562 25.488281 L 58.203125 25.484375 L 58.175781 25.484375 L 58.152344 25.476562 L 58.125 25.476562 L 58.097656 25.472656 L 58.074219 25.46875 L 58.046875 25.464844 L 58.023438 25.460938 L 57.96875 25.453125 L 57.945312 25.449219 L 57.917969 25.445312 L 57.890625 25.445312 L 57.867188 25.441406 L 57.8125 25.433594 L 57.789062 25.433594 L 57.734375 25.425781 L 57.710938 25.425781 L 57.65625 25.417969 L 57.632812 25.417969 L 57.605469 25.414062 L 57.578125 25.414062 L 57.550781 25.410156 L 57.527344 25.410156 L 57.5 25.40625 L 57.472656 25.40625 L 57.445312 25.402344 L 57.394531 25.402344 L 57.367188 25.398438 L 57.339844 25.398438 L 57.316406 25.394531 L 57.234375 25.394531 L 57.207031 25.390625 L 57.074219 25.390625 L 57.046875 25.386719 L 56.914062 25.386719 C 55.554688 25.386719 54.269531 25.714844 53.136719 26.292969 C 52.941406 26.394531 52.710938 26.410156 52.503906 26.339844 C 52.414062 26.308594 52.335938 26.265625 52.265625 26.210938 L 52.261719 26.207031 C 52.253906 26.199219 52.242188 26.191406 52.234375 26.183594 C 52.234375 26.183594 52.230469 26.179688 52.230469 26.179688 C 52.21875 26.171875 52.210938 26.164062 52.203125 26.15625 L 52.199219 26.148438 C 52.195312 26.144531 52.191406 26.140625 52.183594 26.136719 C 52.179688 26.132812 52.171875 26.125 52.167969 26.117188 C 52.164062 26.113281 52.160156 26.109375 52.15625 26.105469 C 52.140625 26.089844 52.125 26.070312 52.113281 26.050781 C 52.082031 26.007812 52.054688 25.960938 52.03125 25.914062 C 50.234375 22.027344 46.292969 19.328125 41.726562 19.328125 Z M 15.136719 29.9375 L 11.628906 31.960938 C 11.238281 32.183594 11.105469 32.675781 11.332031 33.0625 C 11.554688 33.449219 12.050781 33.582031 12.4375 33.359375 L 15.945312 31.339844 C 16.332031 31.117188 16.464844 30.621094 16.242188 30.234375 C 16.019531 29.847656 15.523438 29.714844 15.136719 29.9375 Z M 39.882812 17.839844 C 38.085938 13.949219 34.144531 11.25 29.574219 11.25 C 23.3125 11.25 18.230469 16.316406 18.230469 22.558594 C 18.230469 24.152344 18.5625 25.671875 19.160156 27.046875 C 20.976562 25.035156 23.609375 23.769531 26.535156 23.769531 C 27.871094 23.769531 29.144531 24.035156 30.308594 24.515625 C 32.222656 20.980469 35.738281 18.429688 39.882812 17.839844 Z M 13.371094 21.75 L 9.320312 21.75 C 8.871094 21.75 8.507812 22.113281 8.507812 22.558594 C 8.507812 23.003906 8.871094 23.367188 9.320312 23.367188 L 13.371094 23.367188 C 13.816406 23.367188 14.179688 23.003906 14.179688 22.558594 C 14.179688 22.113281 13.816406 21.75 13.371094 21.75 Z M 46.707031 11.761719 L 43.199219 13.78125 C 42.8125 14.003906 42.679688 14.496094 42.902344 14.882812 C 43.125 15.269531 43.621094 15.402344 44.007812 15.179688 L 47.519531 13.160156 C 47.90625 12.9375 48.039062 12.441406 47.8125 12.054688 C 47.589844 11.667969 47.09375 11.539062 46.707031 11.761719 Z M 15.945312 13.78125 L 12.4375 11.761719 C 12.050781 11.539062 11.554688 11.667969 11.332031 12.054688 C 11.105469 12.441406 11.238281 12.9375 11.628906 13.160156 L 15.136719 15.179688 C 15.523438 15.402344 16.019531 15.269531 16.242188 14.882812 C 16.464844 14.496094 16.332031 14.003906 15.945312 13.78125 Z M 38.996094 4.664062 L 36.972656 8.160156 C 36.75 8.546875 36.882812 9.042969 37.269531 9.265625 C 37.65625 9.488281 38.152344 9.355469 38.375 8.96875 L 40.402344 5.472656 C 40.625 5.085938 40.492188 4.589844 40.105469 4.367188 C 39.71875 4.144531 39.222656 4.277344 38.996094 4.664062 Z M 22.171875 8.160156 L 20.148438 4.664062 C 19.921875 4.277344 19.429688 4.144531 19.039062 4.367188 C 18.652344 4.589844 18.519531 5.085938 18.746094 5.472656 L 20.769531 8.96875 C 20.992188 9.355469 21.488281 9.488281 21.875 9.265625 C 22.261719 9.042969 22.394531 8.546875 22.171875 8.160156 Z M 30.382812 6.402344 L 30.382812 2.359375 C 30.382812 1.914062 30.019531 1.554688 29.574219 1.554688 C 29.125 1.554688 28.761719 1.914062 28.761719 2.359375 L 28.761719 6.402344 C 28.761719 6.847656 29.125 7.207031 29.574219 7.207031 C 30.019531 7.207031 30.382812 6.847656 30.382812 6.402344 Z M 30.382812 6.402344 "/>
</g>
</g>
</svg>
