<?xml version="1.0" encoding="UTF-8"?>
<svg xmlns="http://www.w3.org/2000/svg" xmlns:xlink="http://www.w3.org/1999/xlink" width="75pt" height="44.999999pt" viewBox="0 0 75 44.999999" version="1.2">
<defs>
<clipPath id="clip1">
  <path d="M 14.039062 1.941406 L 60.539062 1.941406 L 60.539062 43.191406 L 14.039062 43.191406 Z M 14.039062 1.941406 "/>
</clipPath>
</defs>
<g id="surface1">
<g clip-path="url(#clip1)" clip-rule="nonzero">
<path style=" stroke:none;fill-rule:nonzero;fill:rgb(30.589294%,10.198975%,23.919678%);fill-opacity:1;" d="M 34.53125 1.941406 C 28.144531 1.941406 22.949219 7.175781 22.949219 13.613281 C 22.949219 13.796875 22.953125 13.984375 22.964844 14.171875 L 22.949219 14.171875 C 18.082031 14.171875 14.121094 18.160156 14.121094 23.066406 C 14.121094 26.351562 15.90625 29.222656 18.542969 30.761719 C 18.566406 29.957031 18.871094 29.226562 19.363281 28.664062 C 17.539062 27.472656 16.328125 25.410156 16.328125 23.066406 C 16.328125 19.386719 19.296875 16.394531 22.949219 16.394531 C 23.28125 16.394531 23.632812 16.425781 24.035156 16.492188 L 25.558594 16.746094 L 25.300781 15.207031 C 25.203125 14.628906 25.152344 14.109375 25.152344 13.613281 C 25.152344 8.402344 29.359375 4.164062 34.53125 4.164062 C 39.164062 4.164062 43.054688 7.511719 43.777344 12.128906 L 44.015625 13.648438 L 45.371094 12.941406 C 46.640625 12.28125 48.003906 11.945312 49.421875 11.945312 C 54.285156 11.945312 58.246094 15.9375 58.246094 20.839844 C 58.246094 25.300781 54.96875 28.996094 50.714844 29.632812 C 51.355469 30.183594 51.921875 30.828125 52.386719 31.542969 C 57.03125 30.230469 60.453125 25.9375 60.453125 20.839844 C 60.453125 14.707031 55.507812 9.722656 49.421875 9.722656 C 48.121094 9.722656 46.863281 9.949219 45.652344 10.394531 C 44.253906 5.417969 39.78125 1.941406 34.53125 1.941406 Z M 36.597656 17.503906 C 34.492188 17.503906 32.695312 18.839844 31.964844 20.703125 C 31.746094 21.269531 32.023438 21.917969 32.589844 22.144531 C 33.160156 22.367188 33.796875 22.085938 34.023438 21.515625 C 34.429688 20.46875 35.410156 19.730469 36.597656 19.730469 C 38.097656 19.730469 39.355469 20.996094 39.355469 22.507812 C 39.355469 24.019531 38.097656 25.289062 36.597656 25.289062 L 24.050781 25.289062 C 23.65625 25.285156 23.285156 25.492188 23.082031 25.839844 C 22.882812 26.1875 22.882812 26.613281 23.082031 26.960938 C 23.285156 27.308594 23.65625 27.515625 24.050781 27.511719 L 36.597656 27.511719 C 36.679688 27.511719 36.761719 27.503906 36.839844 27.492188 C 39.445312 27.355469 41.5625 25.167969 41.5625 22.507812 C 41.5625 19.769531 39.316406 17.503906 36.597656 17.503906 Z M 21.84375 29.734375 C 21.449219 29.730469 21.078125 29.941406 20.875 30.289062 C 20.675781 30.636719 20.675781 31.0625 20.875 31.410156 C 21.078125 31.753906 21.449219 31.964844 21.84375 31.960938 L 45.007812 31.960938 C 47.457031 31.960938 49.421875 33.9375 49.421875 36.40625 C 49.421875 38.871094 47.46875 40.75 44.976562 40.851562 C 43.085938 40.894531 41.597656 39.800781 40.9375 37.941406 C 40.730469 37.363281 40.097656 37.0625 39.523438 37.265625 C 38.949219 37.476562 38.652344 38.113281 38.855469 38.691406 C 39.804688 41.34375 42.21875 43.144531 45.035156 43.078125 C 45.039062 43.078125 45.042969 43.078125 45.046875 43.078125 C 48.640625 42.9375 51.628906 40.078125 51.628906 36.40625 C 51.628906 32.777344 48.714844 29.804688 45.125 29.742188 C 45.085938 29.742188 45.046875 29.734375 45.007812 29.734375 Z M 19.636719 34.183594 C 19.242188 34.179688 18.871094 34.386719 18.667969 34.734375 C 18.46875 35.082031 18.46875 35.507812 18.667969 35.855469 C 18.871094 36.203125 19.242188 36.410156 19.636719 36.40625 L 29.566406 36.40625 C 30.765625 36.40625 31.773438 37.421875 31.773438 38.632812 C 31.773438 39.839844 30.765625 40.855469 29.566406 40.855469 C 28.691406 40.855469 27.984375 40.382812 27.640625 39.691406 C 27.367188 39.140625 26.703125 38.917969 26.15625 39.191406 C 25.613281 39.46875 25.394531 40.136719 25.667969 40.683594 C 26.382812 42.128906 27.882812 43.078125 29.566406 43.078125 C 31.984375 43.078125 33.980469 41.066406 33.980469 38.632812 C 33.980469 36.277344 32.113281 34.339844 29.808594 34.207031 C 29.730469 34.191406 29.648438 34.183594 29.566406 34.183594 Z M 19.636719 34.183594 "/>
</g>
</g>
</svg>
